<?xml version="1.0" encoding="UTF-8"?>
<!DOCTYPE svg PUBLIC "-//W3C//DTD SVG 1.1//EN" "http://www.w3.org/Graphics/SVG/1.1/DTD/svg11.dtd">
<!-- Creator: CorelDRAW 2018 (64-Bit) -->
<svg xmlns="http://www.w3.org/2000/svg" xml:space="preserve" width="11.6929in" height="8.26772in" version="1.1" style="shape-rendering:geometricPrecision; text-rendering:geometricPrecision; image-rendering:optimizeQuality; fill-rule:evenodd; clip-rule:evenodd"
viewBox="0 0 11692.91 8267.72"
 xmlns:xlink="http://www.w3.org/1999/xlink">
 <defs>
  <style type="text/css">
   <![CDATA[
    .str1 {stroke:#2F302C;stroke-width:3;stroke-miterlimit:2.61313}
    .str0 {stroke:#346C8E;stroke-width:3;stroke-miterlimit:2.61313}
    .fil14 {fill:#FFED00}
    .fil36 {fill:#746C19}
    .fil27 {fill:#1C5DA0}
    .fil32 {fill:#275768}
    .fil2 {fill:#281603}
    .fil20 {fill:#2C374A}
    .fil1 {fill:#2F302C}
    .fil0 {fill:#346C8E}
    .fil30 {fill:#499CEC}
    .fil3 {fill:#546D0A}
    .fil21 {fill:#583816}
    .fil22 {fill:#5A95B6}
    .fil37 {fill:#6F7071}
    .fil16 {fill:#704E10}
    .fil34 {fill:#720D0B}
    .fil18 {fill:#746C4D}
    .fil23 {fill:#8B734F}
    .fil9 {fill:#8BC6E8}
    .fil10 {fill:#8E9092}
    .fil7 {fill:#8F374A}
    .fil25 {fill:#90AFC9}
    .fil11 {fill:#926D0A}
    .fil5 {fill:#92AE50}
    .fil6 {fill:#99A629}
    .fil13 {fill:#AB3312}
    .fil35 {fill:#AB7606}
    .fil33 {fill:#AD956D}
    .fil4 {fill:#B38B0C}
    .fil26 {fill:#B4C6D4}
    .fil31 {fill:#CAA84C}
    .fil28 {fill:#CB4F33}
    .fil15 {fill:#CD920B}
    .fil24 {fill:#CDD0D1}
    .fil17 {fill:#D36B4E}
    .fil29 {fill:#D5E4EE}
    .fil8 {fill:#DDD39A}
    .fil19 {fill:#E99655}
    .fil12 {fill:#F35A63}
   ]]>
  </style>
 </defs>
 <g id="Layer_x0020_1">
  <metadata id="CorelCorpID_0Corel-Layer"/>
  <path class="fil0" d="M5653.13 3912.93l29.55 -4.33 1.57 -7.48c-10.82,-0.78 -24,5.84 -31.13,11.82z"/>
  <polygon class="fil1" points="5676.46,4613.87 5683.63,4612.67 5684.02,4606.39 5680.15,4603.55 5673.12,4599.92 "/>
  <path class="fil2" d="M5483.13 4240l13.25 -18.91 -0.4 -5.56c-10.98,7.95 -11.83,11.06 -12.85,24.47z"/>
  <path class="fil3" d="M5849.56 4415.44l-0.34 -8.82c-13.14,-1.51 -25.54,-4.55 -33.45,5.57 6.26,5.26 -2.87,4.6 13.79,5.28 4.32,0.18 14.98,-1.55 20,-2.03z"/>
  <path class="fil3" d="M5783.08 3937c12.97,2.14 8.52,0.86 19.07,6.22 1.21,0.61 8.52,4.3 9.24,4.45 17.14,3.66 3.36,1.15 8.17,-1.37l-29.7 -14.45 -7.29 0.35 0.51 4.8z"/>
  <path class="fil3" d="M5697.28 4239.28l9.31 0.88 -2.41 -13.04 -2.75 -1.41c-8.46,1.23 -3.36,-3.56 -8.37,2.72l4.22 10.85z"/>
  <path class="fil4" d="M5649.24 4153.92l12.28 -1.84c-0.39,-7.92 8.09,-8.75 15.06,-10.52 -11.75,-5.33 -5.82,1.55 -17.04,-6.7l6.95 -1.81 -0.93 -11.15 -5.64 -1.33c0.19,4.5 -8.76,21.39 -10.68,33.35z"/>
  <path class="fil4" d="M5497.21 4264.2l23.74 -7.2 6.19 13.37 -4.01 -38.46c-11.19,5.27 -6.09,6.02 -8.56,21.71 -10.57,5.04 -10.25,2.49 -17.35,10.57z"/>
  <path class="fil5" d="M6125.95 4275.51c26.52,-6.43 -5.61,-10.34 24.97,-6.46l5.51 -10.8 -8.48 -5.28 -11.26 -2.95c-7.39,9.83 -9.27,11.43 -10.74,25.5z"/>
  <path class="fil6" d="M6041.04 4177.05l-18.45 -12.04 -5.44 -0.5c2.74,5.36 1.43,7.43 8.49,12.29 15.5,10.67 14.41,0.91 15.4,0.25z"/>
  <polygon class="fil7" points="5945.93,3952.46 5951.64,3953.26 5961.31,3949.99 5956.12,3946.35 5959.23,3938.88 "/>
  <path class="fil8" d="M6053.19 4622.22l36.81 -13.12 2.66 -8.57c-20.15,1.25 -28.02,1.29 -42.89,14.87l3.43 6.81z"/>
  <path class="fil8" d="M5722.47 4614.06c-3.26,-11.25 2.19,-2.41 -7.48,-10.57l-14.78 -0.37 -8.14 5.6c12.4,5.79 16.98,7.67 30.4,5.34z"/>
  <path class="fil9" d="M5772.4 3921.48l-0.88 24.03 10.23 6.76c-5.54,-14.39 -2.71,-4.89 1.08,-7.36l0.25 -7.91 -0.51 -4.8 7.29 -0.35 2.31 -6.69 4.43 -11.08 -12.21 -5.06 3.91 4.17 -15.9 8.28z"/>
  <path class="fil0" d="M5659.92 4120.57l5.64 1.33 0.93 11.15c11.04,2.87 24.02,4.7 30.23,-6.26l-10.34 2c-11.75,-14.86 -11.01,-15.14 -30.57,-22.78l-0.71 6.5 4.82 8.07z"/>
  <path class="fil3" d="M5697.5 4267.36c8.52,9.09 14.31,9.99 27.06,6.39 6.18,-14.52 3.31,-25.72 2.69,-41.37l-5.86 -2.17 -2.57 5.31 -1.21 31.35c-18.04,3.76 -6.95,-7.63 -20.1,0.5z"/>
  <path class="fil3" d="M5944.22 4539.38c3.7,7.7 -7.2,12.87 9.04,2.83l4.11 -18.53c-11.75,1.95 -6.17,3 -13.15,15.7z"/>
  <path class="fil10" d="M6053.19 4622.22l-5.11 13.75 6.94 0.18c6.49,-13.25 32.85,-19.49 48.1,-18.49l0 -5.44 -1.28 -7.73 -9.19 -3.94 -2.66 8.57 -36.81 13.12z"/>
  <path class="fil11" d="M5585.94 4278.65l12.16 -10.59c3.61,-13.79 4.33,-13.41 13.02,-24.07l19.13 3.57 6.6 -2.69c-12.94,-9.01 -10.94,-12.33 -27.19,-13.62 -16.24,11.24 -19.28,28.43 -23.73,47.41z"/>
  <polygon class="fil11" points="5495.97,4215.53 5496.37,4221.08 5507.43,4205.53 "/>
  <path class="fil12" d="M6103.81 4043.45l14.84 -13.17 9.56 4.41c-1.67,-14.09 -2.27,-11.06 4.63,-22.87 0.65,0.69 1.51,0.85 1.69,2.28l5.23 22.09 0.54 -22.66 12.81 -0.33c-4.24,-7.65 -13.21,-20.41 -20,-21.77l-7.58 -0.69c1.55,18.04 -11.84,39.69 -21.73,52.72z"/>
  <path class="fil12" d="M6052.53 3963.34l-11.43 -0.39c1.68,19.26 -1.05,24.59 16.17,33.02 11.03,-18.51 7.16,-19.23 -4.74,-32.63z"/>
  <polygon class="fil13" points="6132.57,4233.23 6132.48,4243.75 6142.8,4245.06 6141.96,4233.37 6135.44,4227.04 "/>
  <path class="fil1" d="M6003.02 4630.68c9.39,8.62 30.37,4.58 44.43,3.88l0.62 1.4 5.11 -13.75 -3.43 -6.81c14.87,-13.58 22.74,-13.62 42.89,-14.87l-0.95 -8.49c-11.66,1.96 -30.57,3.02 -39.7,8.54 -13.86,8.37 -10.22,16.55 -13.54,29.12l-35.44 0.98z"/>
  <path class="fil14" d="M5766 3745.8l15.62 0.49c9.68,-1.48 10.99,-4.19 18.54,-10.65 -0.39,-9.52 0.28,-8.3 -2.99,-17.2 -4.42,-12.04 -3.72,-10.19 -10.7,-15.78 -1.15,23.12 -20.98,12.3 -2.19,38.89l-18.29 4.25z"/>
  <path class="fil14" d="M6173.65 4256.74c11.17,-12.92 13,-15.6 11.45,-34.22 -2.01,-24.07 -4.13,-16.35 -15.91,-28.33l4.46 62.54z"/>
  <path class="fil15" d="M5560.61 4295.52l13.67 -6.83c-16.77,-27.03 -3.75,-19.9 -10.69,-46.75l-2.98 -6.3c-19.75,20.59 1.21,40.63 0,59.89z"/>
  <path class="fil15" d="M5766.6 3761.9l15.86 1.24c-0.16,-12.52 2.95,-5.59 -4.45,-12.28l-11.1 1.01 -0.31 10.03z"/>
  <path class="fil16" d="M5508.2 4202.19c6.21,-36.17 7.93,-76.18 25.54,-107.5l-0.73 -8.28 -9.89 -3.09c0.02,28.18 -7.54,32.18 -11.5,54.67 -1.43,8.13 -3.63,11.85 -5.64,23.72 -2.09,12.33 -2.83,15.85 -2.89,30.52 0.25,18.04 -0.71,4.23 5.11,9.98z"/>
  <path class="fil16" d="M5497.21 4264.2l-10.75 -2.05c8.11,14.5 0.2,8.67 10,7.65l19.63 -1.93c10.54,15.94 -1.46,10.19 12.01,18.65l-1.6 -13.09 0.64 -3.06 -6.19 -13.37 -23.74 7.2z"/>
  <path class="fil12" d="M5678.3 4223.67c13.25,-3.78 13.05,-8.37 23.13,2.04l2.75 1.41c10.9,2.41 5.14,-1.56 8.96,5.6l3.52 -10.56 -42.14 -13.72 -0.61 -11.84c-7.7,10.44 1.32,3.68 -7.28,16.04 -9.5,-14.61 -12.67,-19.13 -9.18,-40.57l19.3 -8.35 -21.7 1.29c-5.08,11.13 -10.23,24.14 -3.72,35.86 0.85,1.53 8.3,11.28 9.98,13.3 7.98,9.58 6.27,4.38 16.99,9.5z"/>
  <path class="fil17" d="M5893.11 3989.02c5.97,6.87 19.16,1.2 26.77,0.13l1.03 -10.56c-19.09,-11.08 -18.05,-7.74 -31.59,2.99l3.79 7.44z"/>
  <path class="fil17" d="M5661.52 4152.08c10.64,5.1 8.54,3.95 18.29,-0.03 6.15,-10.62 4.66,-1.58 1.33,-10.41l-4.57 -0.09c-6.97,1.78 -15.45,2.6 -15.06,10.52z"/>
  <path class="fil7" d="M6030.28 3970.78c6.85,12.39 15.06,28.18 16.19,42.03l16.49 -3.54c8.78,-16.2 16.51,-24.62 4.86,-44.94 -10.63,9.93 2.78,4.92 -15.28,-0.98 11.89,13.4 15.76,14.12 4.74,32.63 -17.21,-8.43 -14.48,-13.76 -16.17,-33.02l-11.87 0.15 1.04 7.67z"/>
  <path class="fil18" d="M5496.46 4269.8c7.2,7.81 -4.28,4.75 16.09,6.3 2.91,15.86 15.77,26.76 30.15,32.73l-1.56 -7.76c21.47,1.54 9.97,0.46 15.22,6.65 21.23,-10.33 38.48,-13.97 41.74,-39.66l-12.16 10.59c-4.22,7.87 -2.26,5.93 -11.65,10.03l-13.67 6.83c-23.71,14.17 -27.74,-9.05 -34.12,-22.08l1.6 13.09c-13.46,-8.46 -1.47,-2.71 -12.01,-18.65l-19.63 1.93z"/>
  <path class="fil1" d="M5673.12 4599.92l7.03 3.63 -1.69 -17.6 12.81 1.09c-5.4,-5.04 -12.57,-3.35 -21.48,-3.65l3.33 16.53z"/>
  <path class="fil5" d="M5789.86 3931.86l29.7 14.45c-4.81,2.51 8.97,5.02 -8.17,1.37 -0.72,-0.16 -8.04,-3.84 -9.24,-4.45 -10.55,-5.36 -6.1,-4.08 -19.07,-6.22l-0.25 7.91c8.95,6.75 16.69,12.78 27.2,13.75l22.39 -6.78 5.19 -5.06c-9.56,-11.73 -5.81,-9.86 -19.63,-16.56 -11.24,-5.45 -16.49,-8.11 -25.8,-5.09l-2.31 6.69z"/>
  <polygon class="fil5" points="6154.11,4262.63 6150.71,4277.44 6170.05,4285.15 6189.36,4277.63 6189.36,4271.09 6172.87,4271.56 6173.63,4259.8 6171.82,4259.8 6166.53,4265.52 "/>
  <path class="fil5" d="M5678.3 4223.67l-3.63 11.69c-14.72,0.19 -10.38,5.13 -11.87,-8.77l-4.96 -0.13 -0.57 10.48 5.87 3.75 10.16 -4.94 12.96 10.01c11.28,-13.89 2.89,-4.29 11.02,-6.49l-4.22 -10.85c5,-6.28 -0.09,-1.5 8.37,-2.72 -10.08,-10.41 -9.88,-5.82 -23.13,-2.04z"/>
  <path class="fil14" d="M5700.21 4603.12l14.78 0.37c10.78,-8.63 9.44,-5.72 21.96,-11.36l-31.88 -4c-8.93,8.85 -10.16,5.18 -16.87,15.94l12 -0.95z"/>
  <path class="fil13" d="M5657.85 4226.46l4.96 0.13 15.5 -2.93c-10.72,-5.12 -9.02,0.07 -16.99,-9.5 -1.68,-2.02 -9.12,-11.76 -9.98,-13.3 -6.51,-11.72 -1.35,-24.73 3.72,-35.86l21.7 -1.29 8.61 -3.1 1.44 -9.67 -7 1.1c-9.76,3.98 -7.65,5.13 -18.29,0.03l-12.28 1.84c-17.93,40.26 -12.67,40.35 8.61,72.54z"/>
  <path class="fil13" d="M5849.28 4395.71l0 1.11 8.85 4.02c4.24,11.44 2.38,10.08 13.07,17.35l-18.61 1.56 -3.88 1.43 10.14 2.38c-17.34,2.04 -5.27,0.81 -11.23,5.24l40.48 -0.09 11.19 1.22 5.29 -11.34 10.47 -8.61c6.53,-13.1 2.73,-4.17 11.5,-7.81 -22.31,0.07 -20.3,6.87 -36.71,13.82 -18.66,-6.19 -20.98,-16.59 -34.03,-27.94l1.21 7.92 -7.74 -0.28z"/>
  <path class="fil13" d="M5939.9 4438.07c-6.32,8 -3.24,7.29 -13.43,8.76 -5.18,5.55 -8.41,3.37 -18.46,4.23l2.35 7.38c17.82,4.99 11.87,4.44 29.41,-1.56l1.49 -1.79c4.53,-10.99 8.96,-23.07 5.27,-34.52 -2.53,12.82 -0.09,7.45 -6.63,17.48z"/>
  <path class="fil19" d="M5904.57 4418.61c-4.05,19.45 -3.31,35.28 21.9,28.23 10.19,-1.47 7.11,-0.76 13.43,-8.76 0.13,-25.52 1.1,-27.2 -24.85,-28.08l-10.47 8.61z"/>
  <path class="fil19" d="M6116.25 4163.12c-9.71,13.56 -3.41,22.52 10.23,27.19l12.13 -8.07c-0.5,-11.89 -0.01,-14.33 -9.91,-21.26l-12.45 2.14z"/>
  <path class="fil19" d="M6139.77 4036.19l10.02 9.81c3.74,-1.56 2.02,1.34 5.5,-4.98 0.21,-0.38 3.39,-9.39 3.53,-10.14 1.99,-10.9 1.19,-11.77 -5.7,-17.69l-12.81 0.33 -0.54 22.66z"/>
  <path class="fil19" d="M5589.81 4079.47c20.66,-9.36 -12.37,-17.85 -24.24,-16.59 -9.93,2.33 -8.34,0.94 -12.93,8.69l37.16 7.91z"/>
  <polygon class="fil19" points="6140.25,4079.41 6159.78,4080.37 6160.02,4071.78 6156.45,4067.24 6144.34,4066.36 "/>
  <path class="fil5" d="M5849.22 4406.62l0.34 8.82 3.03 4.31 18.61 -1.56c-10.7,-7.27 -8.84,-5.91 -13.07,-17.35l-8.85 -4.02 -0.06 9.8z"/>
  <path class="fil5" d="M5697.28 4239.28c-8.14,2.2 0.25,-7.4 -11.02,6.49l-12.96 -10.01 -10.16 4.94 -26.28 4.16 -6.6 2.69c5.78,10.17 32.29,-1.85 46.5,-2.59l20.75 22.39c13.15,-8.13 2.06,3.27 20.1,-0.5l1.21 -31.35 -5.67 -2.8c-3.82,-7.16 1.94,-3.2 -8.96,-5.6l2.41 13.04 -9.31 -0.88z"/>
  <path class="fil5" d="M5848.7 4421.18l3.88 -1.43 -3.03 -4.31c-5.02,0.48 -15.68,2.21 -20,2.03 -16.65,-0.68 -7.53,-0.02 -13.79,-5.28 7.91,-10.13 20.31,-7.09 33.45,-5.57l0.06 -9.8 0 -1.11 -3.1 -0.31c-11.02,-2.93 -21.69,-2.8 -33.18,-2.35 -4.39,0.17 -13.33,0.67 -17.45,2 -15.57,5.05 -6.02,2.05 -10.94,7.54 27.02,32.97 59.12,18.82 64.1,18.59z"/>
  <path class="fil1" d="M5946.46 4678.25l2.47 -3.65 -6.04 -5.29 4.36 -39.45c11.79,-0.87 20.65,0.64 28.86,7.13l18.87 -0.29c8.52,0.98 15.95,2.8 24.78,3.26 3.14,0.16 10.64,0.23 13.58,-0.16 16.27,-2.14 5.7,0.85 14.12,-5.23 -14.06,0.7 -35.04,4.74 -44.43,-3.88 -15.63,1.57 -35.74,-4.89 -49.69,-12.08l-0.32 -20.93 -3.23 0c-9.93,8.8 -18.74,66.79 -14.35,78.86l11.01 1.71z"/>
  <path class="fil0" d="M5536.46 4038.72c13.41,-5.99 30.18,-5.89 44.01,-5.99 12.44,-0.09 6.35,2.13 19.39,3.5 10.62,1.12 15.02,-2.84 21.85,4.41 13.04,0.45 23.28,5.48 32.13,12.73l13.63 2.31 2.75 -6.42c-19.54,-8.19 -30.62,-16.3 -53.43,-19.44l-61.21 -5.15 0.46 -9.14c-7.21,4.7 -5.63,2.99 -12.48,10.65 -7.41,8.29 -4.44,2.94 -7.1,12.54z"/>
  <path class="fil20" d="M6156.45 4723.46c-40.15,16.56 -179,-1.32 -209.41,-31.26l-13.38 -3.37c24.63,35.74 211.55,67.74 222.79,34.63z"/>
  <path class="fil20" d="M5956.18 3695.54c9.35,4.72 8,6.06 13,-3.11 -14.52,-12.07 -9.51,-0.37 -13,3.11z"/>
  <path class="fil20" d="M5864.32 3699.41c11.58,6.38 0.51,7.78 13.04,-0.39 -11.2,-14.39 -9.8,-1.33 -13.04,0.39z"/>
  <path class="fil13" d="M5539.98 4082.02c41.3,-0.43 80.91,11.85 115.12,30.48l0.71 -6.5 -9.06 -5.73c-8.57,-5.62 -11.65,-6.96 -22.96,-10.36l-19.91 -6.69 -14.06 -3.74 -37.16 -7.91c4.58,-7.75 3,-6.35 12.93,-8.69 12.93,-10.77 9.43,-1.77 21.34,-12.37l3.66 -1.66c-5.99,-8.39 8.3,-8.19 -7.81,-6.33 -12.56,14.83 -14.37,7.56 -27.24,15.57l-24.31 18.46 8.77 5.47z"/>
  <path class="fil13" d="M6156.43 4258.25l-2.33 4.39 12.43 2.89 5.29 -5.72 -1.02 -8.94c-21.13,7.68 -15.01,-3.21 -22.85,2.11l8.48 5.28z"/>
  <path class="fil21" d="M5678.3 4223.67l-15.5 2.93c1.49,13.9 -2.85,8.96 11.87,8.77l3.63 -11.69z"/>
  <path class="fil21" d="M5542.7 4308.83l3.06 5.25 8.47 -5.37 2.13 -0.99c-5.24,-6.19 6.26,-5.11 -15.22,-6.65l1.56 7.76z"/>
  <path class="fil0" d="M5986.68 3950.38c8.01,8 3.13,2.57 12.48,8.62 -4.93,11.39 -4.07,2.2 -12.45,14.5l11.12 -0.94c5.89,18.68 2.28,28.54 18.5,29.18l2.39 -14.66c-1.28,-6.09 -1.41,-11.1 -4.14,-16.24 -8.3,-15.67 -7.15,2.95 -8.11,-15.19 12.08,-7.99 14.52,0.6 23.8,15.12l-1.04 -7.67c9.17,-7.46 4.65,0.12 12.75,-9.57 -24.23,0.81 -17.7,-15.97 -19.96,-38 -6.04,-7.06 -4.61,-5.7 -15.22,-6.67l-0.63 4.41c10.7,22.72 6.67,32.92 -19.49,37.1z"/>
  <path class="fil0" d="M5712.01 4073.43c9.61,-0.92 3.97,-4.64 9.02,0.82l-4.15 14.22 -7.95 -0.03c0.19,13.9 -5.71,16.11 -9.28,31.62 11.24,-9.97 4.78,-13.06 14.02,-20.63 7.87,-6.46 12.53,-2.76 22.39,-12.34l-13.1 2.49c0.76,-23.63 33.1,-73.78 23.5,-89.87 -14.02,4.12 -33.39,64.08 -34.44,73.72z"/>
  <path class="fil0" d="M5723.55 3959.98l0.55 16.85 13 -14c3.78,7.03 1.33,-0.37 3.33,9.02 0.02,0.11 0.07,8.41 0.09,9.42l7.58 -0.28 8.57 -18.95 7.95 2.24c-7.64,-15.03 -6.02,-4.78 -18.51,-15.04 -13.25,-10.88 -0.27,-9.06 -17.17,-14.21 5.23,14.75 4.85,14.05 -5.39,24.95z"/>
  <path class="fil0" d="M6046.47 4012.8c3.91,14.16 23.71,31.14 36.82,37.85l-0.15 -7.31 10.57 -3.41 -0.75 -3.54 -8.72 1.33c-9.43,-9.03 -21.99,-15.53 -21.3,-28.47l-16.49 3.54z"/>
  <path class="fil0" d="M5911.84 3998.54l-42.22 -0.34 6.69 30.57c1.54,6.06 1.56,4.13 3.91,7.79 7.2,-9.99 6.65,-18.56 7.25,-31.71 13.41,-1.39 14.15,0.02 24.37,-6.3z"/>
  <path class="fil22" d="M5948.93 4674.6l3.87 0.65c-6.63,-15.61 -6.52,-26.41 3.31,-39.88l19.99 1.62c-8.21,-6.49 -17.07,-7.99 -28.86,-7.13l-4.36 39.45 6.04 5.29z"/>
  <path class="fil0" d="M5729.78 3934.91c-6.04,-3.86 -7.35,-3.93 -11.83,-7.69 -10.61,-8.89 5.59,-0.73 -10.09,-8.08l1.62 8.06 -15.72 13.31c17.41,3.44 15.39,-4.54 36.04,-5.6z"/>
  <polygon class="fil23" points="5713.14,4232.71 5718.81,4235.51 5721.39,4230.2 5727.24,4232.38 5728.96,4222.78 5716.66,4222.15 "/>
  <path class="fil16" d="M6162.26 4093.87c11.56,11.31 19.65,70.4 25.75,90.48 6.22,20.47 24.98,74.17 1.35,86.74l0 6.54 -0.45 4.57c35.61,-9.02 20.98,-68.8 12.17,-94.64 -11.12,-32.63 -19.58,-66.92 -25.76,-100.89l-12.5 -4.46 -0.56 11.67z"/>
  <path class="fil3" d="M5997.5 4158.85c-18.93,2 -41.97,8.48 -54.25,23.11 8.27,23.76 57.07,29.97 80.44,26.53 4.28,-9.97 -1.67,-1.11 9.56,-10.09 -24.19,3.77 -62.83,0.31 -78.58,-15.78 25.05,-13.49 36.42,-11.24 62.48,-18.11l5.44 0.5 -4.01 -9.61 -21.07 3.46z"/>
  <polygon class="fil1" points="6091.7,4592.04 6092.65,4600.53 6101.84,4604.48 6103.12,4612.21 6109.78,4572.72 6093.28,4569.78 "/>
  <path class="fil3" d="M5781.75 3952.27l15.08 15.96 13.19 -9.57c-10.5,-0.96 -18.24,-7 -27.2,-13.75 -3.79,2.47 -6.61,-7.03 -1.08,7.36z"/>
  <path class="fil9" d="M5556.04 4015.53l-0.46 9.14 61.21 5.15 -9.58 -7.82c7.63,-6.34 7.13,-4.49 11.49,-12.8 -30.44,10.44 -25.35,2.78 -48.9,-5.81 -9.9,2.89 -13.43,2.8 -13.75,12.13z"/>
  <path class="fil9" d="M5756.89 3944.59c7.01,9.71 27.59,21.82 40.79,23.67l-0.84 -0.02 -15.08 -15.96 -10.23 -6.76 0.88 -24.03c-6.53,10.75 -4.35,24.72 -15.51,23.1z"/>
  <polygon class="fil3" points="5901.77,4539.01 5924.23,4538.85 5920.88,4529.5 5913.49,4528.84 "/>
  <path class="fil1" d="M5830.28 4627.3l11.89 -0.89c14.52,26.57 4.09,35.33 10.03,57.33l2.3 6.19c-19.98,20.16 -73.3,32.84 -101.34,38.88 -49.82,10.72 -76.1,4.14 -123.35,-5.7l-1.93 2.77c44.43,25.2 116.33,12.59 163.29,1.02 14.85,-3.66 60.19,-19.96 67.05,-32.96 10.96,-20.77 -0.33,-62.25 -11.75,-78.31l-16.18 11.67z"/>
  <path class="fil7" d="M6029.24 3963.1l11.87 -0.15 11.43 0.39c18.07,5.9 4.65,10.91 15.28,0.98 -9.45,-10.86 -11.61,-8.96 -25.83,-10.8 -8.1,9.7 -3.59,2.11 -12.75,9.57z"/>
  <path class="fil24" d="M6055.02 4636.14c12.45,-3.19 47.03,-6.5 51.15,-17.28l-3.05 -1.2c-15.24,-1 -41.61,5.24 -48.1,18.49z"/>
  <path class="fil25" d="M5947.04 4692.19c30.41,29.94 169.26,47.83 209.41,31.26 1.83,-4.17 0.37,-3.35 3.84,-7.93 -6.7,-10.22 -7.75,-5.4 -22.18,-2.36 -59.46,12.51 -138.23,-7.39 -191.66,-30.56 -3.91,8.77 -4.23,0.44 0.59,9.58z"/>
  <path class="fil9" d="M6018.72 3987.09c9.45,1.1 11.37,0.53 16.48,9.21 1.48,2.5 2.12,6.45 3.75,9.04 7.84,12.48 -0.04,2.58 7.52,7.46 -1.13,-13.85 -9.33,-29.64 -16.19,-42.03 -9.28,-14.52 -11.72,-23.11 -23.8,-15.12 0.96,18.15 -0.19,-0.48 8.11,15.19 2.72,5.14 2.86,10.15 4.14,16.24z"/>
  <path class="fil14" d="M6152.57 4130.33c5.78,27.31 16.31,28.56 16.62,63.87 11.78,11.97 13.9,4.25 15.91,28.33 1.55,18.61 -0.28,21.3 -11.45,34.22l-0.02 3.06 -0.76 11.76 16.5 -0.47c23.63,-12.57 4.87,-66.28 -1.35,-86.74 -6.11,-20.08 -14.2,-79.17 -25.75,-90.48 -2.85,20.95 7.8,30.81 -0.29,44.31 2.4,-3.63 -2.43,-5.12 -9.41,-7.85z"/>
  <path class="fil14" d="M5773.14 3775.58l-12.35 -4.54 5.81 -9.14 0.31 -10.03 11.1 -1.01c6.24,-1.59 0.65,0.85 3.61,-4.57l-15.62 -0.49 -8.68 3.15c-5.5,13.98 -7.29,10.54 -3.22,25.63 10.55,4.64 8.72,6.12 19.04,1z"/>
  <path class="fil26" d="M5639.79 4707.39c-12.15,-2.49 -1.64,-2.26 -11.14,0.33 -3.66,11.63 -3.37,4.05 1.14,15.39 47.25,9.85 73.54,16.43 123.35,5.7 28.04,-6.04 81.36,-18.72 101.34,-38.88l-2.3 -6.19 -4 0.09c-70.6,30.11 -130.89,45.56 -208.41,23.57z"/>
  <path class="fil26" d="M5717.55 4631.49l-0.89 -5.49 -31.01 -8.87 -6.45 0.48c7.79,12.19 25.25,14.64 38.35,13.87z"/>
  <path class="fil27" d="M6055.02 4636.14l-6.94 -0.18 -0.62 -1.4c-8.42,6.08 2.15,3.09 -14.12,5.23 -2.94,0.39 -10.44,0.32 -13.58,0.16 -8.83,-0.45 -16.26,-2.28 -24.78,-3.26 22.93,19.73 100.81,-3.4 108.32,-3.01 24.16,1.25 53.37,42.27 49.32,67.49 -54.62,24.72 -147.57,-7.72 -199.81,-25.93l-3.87 -0.65 -2.47 3.65 0 4.36c53.43,23.17 132.2,43.07 191.66,30.56 14.43,-3.04 15.47,-7.86 22.18,2.36 11.41,-14.5 1.81,-43.7 -8.48,-58.69 -11.83,-17.23 -29.19,-27.85 -45.64,-37.98 -4.12,10.78 -38.7,14.1 -51.15,17.28z"/>
  <path class="fil27" d="M5676.46 4613.87c-27.52,27.91 -56.6,40.77 -56.67,84.98 11.31,0.24 15.22,-1.09 20,8.53 77.52,22 137.81,6.54 208.41,-23.57l-6.79 -6.31c-42.84,26.81 -169.8,47.06 -208.72,14.86 -2.3,-26.81 25.57,-60.88 49.47,-58.98 25.64,2.04 73.56,17.06 96.41,4.53 -17.18,0.66 -44.39,3.28 -56.34,-6.35l-4.68 -0.09c-13.1,0.76 -30.56,-1.69 -38.35,-13.87l6.45 -0.48 -1.64 -10.74 -0.38 6.29 -7.18 1.2z"/>
  <path class="fil13" d="M6115.63 4095.52l-5.97 17.04 10.52 -3.91c13.49,11 18.55,26.42 25.37,43.58 -20.06,8.26 -5.62,-6.28 -16.85,8.76 9.9,6.93 9.41,9.38 9.91,21.26l-12.13 8.07c-13.64,-4.67 -19.94,-13.63 -10.23,-27.19 -2.15,-8.63 3.49,-5.38 -5.17,-6.25 -11.22,9 -10.67,18.56 -8.77,33.33 35.51,20.85 30.39,3.28 53.14,-0.39 5.83,15.68 4.97,35.04 3.73,51.79 -16.48,0.59 -6.06,1.57 -17.22,-8.24l0.84 11.69 -10.32 -1.31 0.1 -10.52c-5.29,5.63 -15.57,27.4 -18.42,35.55l9.33 -0.56 0.45 8.19 2.01 -0.91c1.47,-14.07 3.35,-15.67 10.74,-25.5l11.26 2.95c7.84,-5.32 1.72,5.57 22.85,-2.11l1.02 8.94 1.81 0 0.02 -3.06 -4.46 -62.54c-0.31,-35.32 -10.85,-36.57 -16.62,-63.87l-25.43 -41.57c-8.36,8.18 -2.15,2.96 -11.51,6.76z"/>
  <path class="fil13" d="M5852.85 3967.19c0.56,-0.85 1.66,-2.96 1.92,-2.35l29.18 -3.83c-0.74,20.42 -5.58,25.81 -24.1,27.11 11.63,7.57 17.93,1.58 33.26,0.9l-3.79 -7.44c13.54,-10.73 12.5,-14.07 31.59,-2.99l-1.03 10.56c13.81,-1.57 14.57,1.8 22.04,-5.85l-10.43 0.17c-4.83,-17.8 0.16,-7.09 -9.51,-21.14 20.72,-8.33 9.73,-4.28 22.28,-0.92 11.65,3.13 5.73,-0.39 15.48,1.14 15.63,2.44 9.16,1.98 9.81,9.93l13.85 -8.36 -37.17 -5.9 5.42 -4.94 -5.71 -0.8c-16.76,-1.14 -31.81,4.17 -49.5,4.29 -20,0.13 -28.9,-7.06 -49.66,-6l6.08 16.45z"/>
  <path class="fil13" d="M5915.05 4409.99c25.95,0.89 24.99,2.57 24.85,28.08 6.54,-10.04 4.1,-4.66 6.63,-17.48 3.69,11.44 -0.74,23.53 -5.27,34.52 18.07,-20.28 7.09,-27.86 16.61,-38.78l-3.1 -11.68c-16.44,6.22 -7.56,-1.87 -28.22,-2.47 -8.78,3.63 -4.97,-5.29 -11.5,7.81z"/>
  <path class="fil13" d="M5565.57 4062.88c11.87,-1.26 44.9,7.23 24.24,16.59l14.06 3.74c-3.15,-25.48 -2.37,-15.76 -16.95,-32.7 -11.92,10.6 -8.42,1.6 -21.34,12.37z"/>
  <path class="fil13" d="M5888.1 4428.72c3.67,15.68 5.59,25.84 22.26,29.73l-2.35 -7.38c10.04,-0.87 13.28,1.31 18.46,-4.23 -25.21,7.04 -25.94,-8.78 -21.9,-28.23l-5.29 11.34 -11.19 -1.22z"/>
  <path class="fil28" d="M5679.81 4152.05l7 -1.1 -1.44 9.67 8.13 -19.64 -12.35 0.66c3.33,8.83 4.82,-0.21 -1.33,10.41z"/>
  <path class="fil29" d="M5877.36 3699.02c-12.53,8.16 -1.46,6.76 -13.04,0.39 3.24,-1.71 1.85,-14.78 13.04,-0.39zm-43.45 32.47c35.57,16.98 49.78,17.78 75.33,-10.89 2.37,-20.25 0.04,-26.09 -8.61,-43.34 -25.75,-19.64 -52.41,-16.75 -73.43,5.52 -4.47,22.34 -4.69,29.71 6.71,48.71z"/>
  <path class="fil29" d="M5969.17 3692.43c-5,9.16 -3.65,7.82 -13,3.11 3.48,-3.48 -1.52,-15.18 13,-3.11zm-55.89 -16.87c0.87,12.93 2.77,32.83 8.72,42.97 13.24,0.71 45.28,7.94 54.02,3.24 20.02,-18.76 5.22,-53.63 -26.2,-57.08 -13.59,-1.76 -26.54,1.23 -36.53,10.88z"/>
  <path class="fil30" d="M5778.57 4637.93c-22.85,12.54 -70.77,-2.49 -96.41,-4.53 -23.91,-1.9 -51.77,32.16 -49.47,58.98 38.92,32.2 165.88,11.95 208.72,-14.86l6.79 6.31 4 -0.09c-5.94,-22 4.5,-30.76 -10.03,-57.33l-11.89 0.89c-16.47,6.21 -34,10.59 -51.71,10.63z"/>
  <path class="fil30" d="M5952.8 4675.24c52.24,18.21 145.19,50.65 199.81,25.93 4.05,-25.22 -25.16,-66.24 -49.32,-67.49 -7.51,-0.39 -85.4,22.74 -108.32,3.01l-18.87 0.29 -19.99 -1.62c-9.83,13.46 -9.94,24.27 -3.31,39.88z"/>
  <path class="fil12" d="M6027.09 4153.89c17.69,21.28 37.08,18.94 48.52,31.63 -10.28,8.47 -6.23,1.17 -17.61,7.49 -5.95,3.3 -6.4,6.17 -15.3,10.68l-5.04 4.82c-11.39,17.09 -28.01,37.65 -18.95,61.31 16.63,7.52 17.84,0.5 32.84,4.29 -6.76,9.63 -0.15,4.87 -10.78,8.9l12.82 2.1c19.75,2.21 9.46,17.99 35.41,5.98 11.1,-5.14 20.18,-10.65 25.15,-22.3 2.85,-8.15 13.13,-29.93 18.42,-35.55l2.87 -6.19 6.52 6.33c11.16,9.81 0.75,8.83 17.22,8.24 1.24,-16.75 2.09,-36.11 -3.73,-51.79 -22.76,3.67 -17.63,21.24 -53.14,0.39 -1.91,-14.78 -2.46,-24.33 8.77,-33.33 8.67,0.87 3.02,-2.38 5.17,6.25l12.45 -2.14c11.23,-15.04 -3.21,-0.49 16.85,-8.76 -6.83,-17.16 -11.88,-32.58 -25.37,-43.58l-10.52 3.91 -3.67 11.52 -25.02 -16.56c-15.76,-7.13 -24.28,-10.37 -41.97,-7.56 -15.48,13.2 -34.54,34.26 -11.9,53.94z"/>
  <path class="fil12" d="M5693.5 4140.98l-8.13 19.64 -8.61 3.1 -19.3 8.35c-3.49,21.44 -0.32,25.95 9.18,40.57 8.6,-12.37 -0.43,-5.6 7.28,-16.04 22.82,-1.19 44.85,35.54 84.65,8.91 14.06,-34.61 -2.17,-30.58 -8.36,-56.53l23.12 -15.55 5.21 -21.2 -10.17 -13.19c-73.99,-8.97 -41.98,27.88 -74.87,41.94z"/>
  <path class="fil12" d="M5858.66 4341.56c-10.57,14.91 -12.43,26.17 -5.69,44.84l2.84 1.67c13.05,11.34 15.37,21.74 34.03,27.94 16.42,-6.95 14.41,-13.75 36.71,-13.82 20.66,0.6 11.77,8.69 28.22,2.47 14.56,-11.93 22.8,-52.95 10.83,-68.48 -19.01,-24.68 -44.21,15.67 -49.37,22.97 -23.23,-3.75 -29,-30.85 -57.57,-17.59z"/>
  <path class="fil12" d="M5832.6 4433.02c-6.35,9.08 -15.68,16.34 -15.86,29.25 -0.17,12.19 8,20.26 18.7,20.55l27.67 5.15c0.72,14.11 -1.49,27.46 4.46,40.15 9.22,6.66 8.53,6.83 20.49,6.21 19.89,-7.98 20.53,-11.88 24.43,-31.23l6.43 -34.66c-9.11,-9.22 -3.1,0.83 -8.55,-9.98 -16.68,-3.89 -18.6,-14.05 -22.26,-29.73l-40.48 0.09 -15.02 4.21z"/>
  <path class="fil12" d="M5941.26 4455.11l-1.49 1.79 -6.2 8.56 2.87 9.06c-0.95,24.24 27.54,38.6 50.46,39.6 5,-10.85 9.17,-10.61 11.31,-23.18 2.26,-13.28 -2.06,-11.74 -0.08,-23.59 15.37,-3 18.51,-5.59 30.64,-10.78l-0.85 -21.12 -5.35 -4.72c-21.06,-11.69 -40.16,-17.04 -64.71,-14.39 -9.52,10.92 1.46,18.5 -16.61,38.78z"/>
  <path class="fil12" d="M5852.85 3967.19c-14.78,-2.67 -19.42,-5.85 -33.74,0.19l-12.77 5.03c11.72,9.55 38.28,15.43 53.52,15.7 18.52,-1.3 23.36,-6.69 24.1,-27.11l-29.18 3.83c-0.26,-0.6 -1.36,1.51 -1.92,2.35z"/>
  <path class="fil12" d="M6103.81 4043.45c-5.39,15.52 7.91,32.18 20.73,36.66 7.36,-9.53 13.96,-10.35 13.73,-21.09 -0.14,-6.9 -6.8,-13.59 -10.06,-24.33l-9.56 -4.41 -14.84 13.17z"/>
  <path class="fil12" d="M5941.92 3983.3c11.86,-1.31 16.52,-5.64 27.63,-10.83 -0.65,-7.95 5.82,-7.48 -9.81,-9.93 -9.75,-1.53 -3.82,1.99 -15.48,-1.14 -12.54,-3.36 -1.56,-7.41 -22.28,0.92 9.67,14.05 4.69,3.34 9.51,21.14l10.43 -0.17z"/>
  <path class="fil14" d="M5764.5 3698.87l-1.38 9.6 7.43 10.8 8.95 -18.03 6.98 1.41c6.97,5.6 6.28,3.75 10.7,15.78 3.27,8.9 2.61,7.69 2.99,17.2 -7.55,6.46 -8.86,9.17 -18.54,10.65 -2.96,5.43 2.64,2.98 -3.61,4.57 7.4,6.69 4.29,-0.24 4.45,12.28l-15.86 -1.24 -5.81 9.14 12.35 4.54 10.24 3.24c-9.1,8.13 -13.98,5.76 -18.87,14.98 -5.26,9.91 -0.7,11.19 -8.39,23l-2.51 10.05c-1,15.63 -1.85,26.33 -17.15,32l-7.26 16.69c20.68,8.77 35.69,11.8 56.67,24.06 18.2,10.63 34.5,22.4 53.56,32.91 47.56,26.24 92.63,17.17 136.62,-9.86 7.65,-15.15 11.32,-10.01 9.61,-30.44l-15.85 -11.39 -15.37 -1.52c-36.92,29.03 -93.82,45.43 -127.74,2.64 -15.94,-20.11 -12.19,-50.39 -3.8,-72.96 10,-26.93 26.14,-29.23 43.59,-44.61l3.24 -11.21c-10.03,10.31 -14.72,-2.59 -16.57,-4.08l-20.2 -9.98c-28,-12.23 -24.05,-57.83 -2.58,-73.17 29.47,-21.07 48,-9.14 75.96,0.14l26.7 -11.63 23.35 -3.84 -6.74 -19.09 -19.82 -0.7c-12.89,2.25 -24.89,9.8 -37.67,13.37 -32.35,9.02 -27.75,-9.3 -128.85,22.75l1.22 31.96z"/>
  <path class="fil14" d="M5533.74 4094.69c-17.61,31.33 -19.33,71.33 -25.54,107.5l-0.78 3.33 -11.06 15.56 -13.25 18.91 3.33 22.15 10.75 2.05c7.11,-8.09 6.78,-5.54 17.35,-10.57 2.48,-15.69 -2.63,-16.44 8.56,-21.71l4.01 38.46 -0.64 3.06c6.38,13.03 10.41,36.26 34.12,22.08 1.21,-19.25 -19.75,-39.29 0,-59.89l2.98 6.3c6.94,26.85 -6.08,19.72 10.69,46.75 9.4,-4.11 7.43,-2.16 11.65,-10.03 4.45,-18.98 7.49,-36.17 23.73,-47.41 16.24,1.29 14.24,4.61 27.19,13.62l26.28 -4.16 -5.87 -3.75 0.57 -10.48c-21.28,-32.19 -26.53,-32.28 -8.61,-72.54 1.92,-11.97 10.86,-28.86 10.68,-33.35l-4.82 -8.07c-34.2,-18.63 -73.82,-30.91 -115.12,-30.48l-6.23 12.67z"/>
  <path class="fil14" d="M5953.02 4597.67l0.32 20.93c13.95,7.19 34.06,13.65 49.69,12.08l35.44 -0.98c3.32,-12.57 -0.32,-20.74 13.54,-29.12 9.13,-5.52 28.04,-6.58 39.7,-8.54l1.57 -22.26c-22.46,-0.43 -126.9,16.52 -140.26,27.89z"/>
  <path class="fil14" d="M5736.96 4592.13c-12.52,5.64 -11.18,2.73 -21.96,11.36 9.67,8.16 4.21,-0.68 7.48,10.57l1.64 12.75c29.22,5.3 40.94,8.35 72.26,1.8 34.7,-7.26 39.92,-8.92 39.26,-43.64l-98.67 7.16z"/>
  <path class="fil14" d="M6127.14 4088.76l25.43 41.57c6.98,2.73 11.8,4.22 9.41,7.85 8.09,-13.5 -2.56,-23.36 0.29,-44.31l0.56 -11.67c0.41,-4.63 1.25,-3.76 -3.04,-1.82l-19.54 -0.96 -13.11 9.35z"/>
  <path class="fil9" d="M5848.5 4336.03c33.37,-23.8 41.31,1.17 64.95,6.99 13.7,-10.37 27.73,-39.35 54.81,-19.54 19.46,14.23 13.63,46.55 8.12,66.52l0.37 11.95 15.27 5.37c11.5,3.02 27.4,4.71 34.85,14.37 17.72,6.73 18.18,37.1 1.61,44.26 -5.17,8.04 -10.41,8.16 -19.93,12.03 -1.05,20.84 -0.24,33.87 -22.09,40.69l-1.05 0.59c-11.96,7 -12.92,4.07 -28.05,4.42l-4.11 18.53 -5.73 9.27c-13.93,-2.67 -14.66,-2.85 -23.3,-12.63l-22.46 0.16 -4.31 -0.74c-6.91,9.05 -25.41,3.94 -34.25,-2.48 -14.13,-10.26 -10.81,-23.25 -10.37,-39.55l-13.8 -3.18c-25.45,-7 -46.76,-32.73 -23.04,-53.95l-0.31 -10.23c-11.72,2.74 -32.76,-14.74 -39.74,-26.76 12.12,-19.98 43.37,-20.2 65.39,-15.63 -1.65,-17.15 -6.64,-36.76 7.16,-50.47zm-180.7 -412.99l11.11 9.3c1.34,12.63 4.97,21.47 -7.85,26.21 -5.57,10.65 -20.61,13.83 -31.29,19.26 -6.2,16.8 3.57,19.49 -15.68,27.64l-5.41 3.77c-4.36,8.31 -3.86,6.45 -11.49,12.8l9.58 7.82c22.81,3.14 33.9,11.26 53.43,19.44 10.93,5.75 32.42,26.85 41.8,24.17 1.06,-9.63 20.43,-69.6 34.44,-73.72 9.6,16.09 -22.74,66.24 -23.5,89.87l13.1 -2.49 36.22 4.2c25.17,12.33 22.08,46.39 -2.41,54.76l0.06 -0.51c-2.24,22.49 20.71,51.57 -6.69,66.32 -10.84,8.71 -20.51,10.83 -34.28,10.91l-1.71 9.6c0.62,15.65 3.49,26.84 -2.69,41.37 -12.75,3.61 -18.54,2.71 -27.06,-6.39l-20.75 -22.39c-14.21,0.74 -40.71,12.75 -46.5,2.59l-19.13 -3.57c-8.69,10.67 -9.41,10.29 -13.02,24.07 -3.26,25.69 -20.51,29.33 -41.74,39.66l-2.13 0.99c-6.3,34.11 -8.91,81.57 -10.73,116.74 -1.92,37.09 -6.75,72.34 37.17,84.51 7.31,-31.89 -5.87,-89.19 16.28,-112.09 -0.54,45.33 -9.19,82.51 -5.88,130.86 24.61,23.8 79.65,44.79 113.28,51.4 58.12,11.43 112.67,-11.74 162.11,-5.53 167.45,21.02 141.74,-12.69 226.53,-14.09 27.31,-0.45 54.68,8.85 70.06,-16.19l0.68 -236.03c-19.81,-0.19 -11.54,6.69 -27.96,-5.37 -10.97,-8.06 -18.42,-11.35 -33.88,-7.94 -14.85,10.73 -20.63,9.74 -38.56,6.08 -8.38,-8.43 -7.07,-4.5 -9.73,-15.94l-12.82 -2.1c-15.17,-0.15 -24.04,-0.43 -32.52,-13.37 -9.02,-26 4.6,-40.24 15.45,-61.15 -23.37,3.44 -72.17,-2.76 -80.44,-26.53 12.28,-14.63 35.32,-21.11 54.25,-23.11l14.89 -6.85c-9.41,-23.39 -5.3,-45.32 17.34,-56.62 18.06,-9.65 42.34,-6.82 57.83,6.78l14.33 -1.02c13.26,-35.89 -0.81,-20.69 -12.43,-45.47l-6.19 -5.02c-13.11,-6.71 -32.91,-23.69 -36.82,-37.85 -7.55,-4.89 0.32,5.01 -7.52,-7.46 -1.63,-2.59 -2.28,-6.54 -3.75,-9.04 -5.11,-8.68 -7.02,-8.11 -16.48,-9.21l-2.39 14.66c-16.23,-0.64 -12.62,-10.5 -18.5,-29.18l-11.12 0.94 -22.61 11.55 -0.5 24.11c-0.23,0.13 -6.33,3.5 -6.63,3.73 -8.37,6.37 0.9,3.47 -12.34,9.93l-5.08 -23.89 -17.6 0.61 -10.1 -0.99c-10.22,6.33 -10.96,4.91 -24.37,6.3 -0.6,13.15 -0.05,21.72 -7.25,31.71 -2.36,-3.65 -2.38,-1.72 -3.91,-7.79l-6.69 -30.57 -26.65 -1.15 -15.15 -0.76c-2.52,12.59 -3.1,32.33 -27.26,35.15 -2.97,-14.76 -0.5,-29.04 6.54,-41.55l-6.62 -7.76 -8.12 -6.83 -27.73 -11.01 -7.95 -2.24 -8.57 18.95 -4.22 7.04c-29.17,-13.42 -17.61,5.31 -27.18,-6.4 -3.43,-9.19 1.93,-15.64 6.85,-21.65 10.24,-10.9 10.62,-10.2 5.39,-24.95l0.83 -0.12c-20.65,1.06 -18.63,9.04 -36.04,5.6l15.72 -13.31 -1.62 -8.06 -13.8 -5.12 -25.25 2.41 -0.99 6.61z"/>
  <path class="fil9" d="M6041.99 3953.53c14.22,1.83 16.38,-0.06 25.83,10.8 11.65,20.32 3.92,28.75 -4.86,44.94 -0.69,12.94 11.86,19.44 21.3,28.47l8.72 -1.33c17.59,-9.23 28.37,-36.41 20.24,-54.21 -15.96,-23.46 -68.48,-62.03 -91.17,-66.67 2.26,22.03 -4.27,38.81 19.96,38z"/>
  <path class="fil9" d="M5697.38 3894l2.16 10.16 57.35 40.43c11.16,1.61 8.98,-12.35 15.51,-23.1l15.9 -8.28 -3.91 -4.17c-25.71,-19.36 -56.87,-32.59 -87.01,-15.03z"/>
  <path class="fil9" d="M5655.37 4076l-5.17 2.17c-6.02,11.55 -5.02,7.8 -3.46,22.09l9.06 5.73c19.56,7.64 18.82,7.93 30.57,22.78l10.34 -2 2.93 -6.71c3.57,-15.5 9.47,-17.72 9.28,-31.62 -10.1,-12.76 -22.83,-17.69 -36.33,-25.89 -13.91,5.59 1.5,5.57 -17.24,13.44z"/>
  <path class="fil9" d="M5977.38 3929.42c-2.09,17.75 -3.78,4.61 -10.59,20.58l19.89 0.38c26.17,-4.18 30.19,-14.38 19.49,-37.1l-10.38 0.29c-9.68,5.43 -3.96,9.92 -18.41,15.85z"/>
  <path class="fil31" d="M5947.81 3872.55l8.72 -6.77c0.07,-1.05 1.57,-2.91 1.36,-12.58 -23.57,-0.44 -84.69,9.3 -104.57,-11 8.06,-6.62 -9.85,-7.35 15.75,-4.99 2.73,0.25 13.87,6.89 37.42,8.7 19.69,1.52 37.95,-2.74 57.19,-4.93l29.19 -12.12c8,-27.33 3.76,-22.57 -7.44,-48.99 -11.41,-26.9 -16.22,-21.05 -42.75,-18.14 -36.17,3.96 -72.94,3.15 -98.86,34.38 -48.98,59.02 0.6,145.12 103.81,76.24l0.19 0.19z"/>
  <path class="fil14" d="M5962.46 3872.11l-8.04 7.17 0 0 8.11 -7.09 -0.07 -0.08zm0.07 0.08l-8.11 7.09 15.22 1.5 -7.11 -8.6zm7.26 2l0 -1.27 0 1.27z"/>
  <path class="fil32" d="M6170.05 4285.15c-17.28,54.51 7.96,221.42 -7.02,259.16 -15.38,25.04 -42.74,15.73 -70.06,16.19 -84.79,1.41 -59.08,35.12 -226.53,14.09 -49.44,-6.2 -103.99,16.96 -162.11,5.53 -33.63,-6.61 -88.67,-27.6 -113.28,-51.4 -3.3,-48.35 5.34,-85.53 5.88,-130.86 -22.15,22.9 -8.97,80.2 -16.28,112.09 -43.91,-12.17 -39.08,-47.42 -37.17,-84.51 1.81,-35.17 4.43,-82.62 10.73,-116.74l-8.47 5.37 -3.06 -5.25c-3.18,11.68 -9.14,81.48 -9.59,96.68 -0.85,28.61 -11.08,67.87 10.17,89.87 9.74,10.08 24.57,17.32 30.35,22.98 22.15,21.73 -19.43,11.58 96.17,65.04 8.91,0.3 16.08,-1.39 21.48,3.65l13.81 1.08 31.88 4 98.67 -7.16 7.49 -0.02c7.92,-4.19 97.8,5.31 106.67,12.73l3.23 0c13.35,-11.37 117.8,-28.31 140.26,-27.89l16.51 2.94c90.74,-4.74 63.34,-39.99 63.33,-117.19 -0,-40.81 -13.05,-146.29 15.8,-173.33l0.45 -4.57 -19.31 7.52z"/>
  <path class="fil0 str0" d="M5684.25 3901.11l13.13 -7.11c30.15,-17.56 61.3,-4.33 87.01,15.03l12.21 5.06 -4.43 11.08c9.31,-3.02 14.56,-0.36 25.8,5.09 13.81,6.7 10.07,4.83 19.63,16.56l-5.19 5.06c13.83,1.66 7.69,-1.07 17.03,7.36 -1.02,0.58 -2.51,0.02 -3.23,1.4 -0.72,1.37 -2.28,0.99 -3.28,1.24 -6.15,1.52 -3.74,0.9 -10.09,1.91 -9.05,1.44 -6.65,-2.89 -13.74,3.59 14.32,-6.05 18.96,-2.87 33.74,-0.19l-6.08 -16.45c20.76,-1.06 29.66,6.13 49.66,6 17.69,-0.11 32.74,-5.43 49.5,-4.29l13.3 -13.58 18.15 -9.46 -1.35 -6.78c-43.99,27.02 -89.06,36.1 -136.62,9.86 -19.06,-10.52 -35.36,-22.28 -53.56,-32.91 -20.98,-12.26 -35.98,-15.28 -56.67,-24.06 -16.95,2.94 -39.89,9.22 -44.94,25.58z"/>
  <path class="fil5" d="M6125.95 4275.51l-2.01 0.91 -22.07 18.55c15.46,-3.42 22.91,-0.12 33.88,7.94 16.42,12.06 8.15,5.18 27.96,5.37l-0.68 236.03c14.98,-37.74 -10.26,-204.65 7.02,-259.16l-19.34 -7.71 3.4 -14.8 2.33 -4.39 -5.51 10.8c-30.58,-3.88 1.55,0.03 -24.97,6.46z"/>
  <path class="fil5" d="M6033.25 4198.4l4.33 0.08c9.04,-6.29 8.11,-2.8 13.08,-12.68l-9.62 -8.76c-0.99,0.66 0.1,10.41 -15.4,-0.25 -7.06,-4.86 -5.75,-6.93 -8.49,-12.29 -26.06,6.88 -37.43,4.63 -62.48,18.11 15.75,16.09 54.39,19.55 78.58,15.78z"/>
  <path class="fil14" d="M5853.14 3749.06c1.85,1.49 6.54,14.4 16.57,4.08l-3.24 11.21c18.1,-2.7 23.63,-8.54 44.03,-10.17 17.7,-1.42 35.26,1.02 51.36,-7.33l0.18 -12.45c-60.94,-29.55 -42.87,20.48 -108.9,14.65z"/>
  <path class="fil12" d="M5536.46 4038.72c-14.5,21.64 -13.33,15 -13.33,44.59l9.89 3.09 0.73 8.28 6.23 -12.67 -8.77 -5.47 24.31 -18.46c12.87,-8.02 14.69,-0.74 27.24,-15.57 16.11,-1.85 1.83,-2.05 7.81,6.33 10.83,-4.9 5.54,-4.53 13.93,-6.31 5.81,-1.23 9.56,-0.25 17.2,-1.89 -6.83,-7.25 -11.23,-3.29 -21.85,-4.41 -13.04,-1.38 -6.95,-3.59 -19.39,-3.5 -13.83,0.1 -30.6,0 -44.01,5.99z"/>
  <path class="fil1 str1" d="M5724.11 4626.81l-1.89 4.77c11.94,9.63 39.16,7.01 56.34,6.35 17.71,-0.04 35.24,-4.42 51.71,-10.63l16.18 -11.67c-2.2,-5.77 -0.51,-17.99 -3.33,-30.68l-7.49 0.02c0.66,34.72 -4.56,36.38 -39.26,43.64 -31.31,6.56 -43.03,3.5 -72.26,-1.8z"/>
  <path class="fil3" d="M5815.69 4428.88l8.14 6.9 8.77 -2.76 15.02 -4.21c5.96,-4.43 -6.11,-3.2 11.23,-5.24l-10.14 -2.38c-4.98,0.23 -37.08,14.38 -64.1,-18.59 4.92,-5.49 -4.63,-2.49 10.94,-7.54 4.12,-1.33 13.06,-1.83 17.45,-2 11.49,-0.44 22.16,-0.57 33.18,2.35l-0.65 -8.16 -4.19 -0.75c-22.03,-4.58 -53.28,-4.36 -65.39,15.63 6.99,12.02 28.02,29.5 39.74,26.76z"/>
  <path class="fil0" d="M5694.04 3914.02l13.8 5.12c15.68,7.35 -0.51,-0.8 10.09,8.08 4.48,3.76 5.79,3.83 11.83,7.69l-0.83 0.12c16.9,5.16 3.92,3.33 17.17,14.21 12.49,10.26 10.87,0.01 18.51,15.04l27.73 11.01 5.32 -7.04c-13.2,-1.85 -33.78,-13.96 -40.79,-23.67l-57.35 -40.43 -10.87 4.25 5.38 5.61z"/>
  <path class="fil13" d="M6128.21 4034.69c3.26,10.74 9.92,17.43 10.06,24.33 0.23,10.74 -6.37,11.56 -13.73,21.09l-9.8 0.63 0.89 14.77c9.36,-3.8 3.15,1.43 11.51,-6.76l13.11 -9.35 4.09 -13.05 12.11 0.88 -10.97 -11.26 4.3 -9.96 -10.02 -9.81 -5.23 -22.09c-0.19,-1.43 -1.04,-1.59 -1.69,-2.28 -6.91,11.81 -6.3,8.78 -4.63,22.87z"/>
  <path class="fil5" d="M5921.85 4510.77c-0.08,14.47 -3.61,11.12 -8.36,18.07l7.39 0.66c20.65,-1.12 5.43,10.15 23.34,9.88 6.99,-12.7 1.4,-13.75 13.15,-15.7 15.13,-0.34 16.08,2.58 28.05,-4.42l-35.4 -3.75c-22.25,-7.63 -9.28,-5.08 -28.17,-4.74z"/>
  <path class="fil33" d="M5680.15 4603.55l3.87 2.83 1.64 10.74 31.01 8.87 0.89 5.49 4.68 0.09 1.89 -4.77 -1.64 -12.75c-13.41,2.32 -18,0.44 -30.4,-5.34l8.14 -5.6 -12 0.95c6.71,-10.76 7.94,-7.09 16.87,-15.94l-13.81 -1.08 -12.81 -1.09 1.69 17.6z"/>
  <path class="fil0" d="M5921.94 3999.53l17.6 -0.61 5.08 23.89c13.24,-6.45 3.96,-3.56 12.34,-9.93 0.3,-0.23 6.4,-3.6 6.63,-3.73l0.5 -24.11c-13.26,6.43 -32.38,7.87 -42.15,14.48z"/>
  <path class="fil0" d="M5803.39 4019.52c2.11,-13.48 2.18,-24.89 14.48,-25.96 7.08,9.47 4.14,12.07 -0.42,23.51 -9.56,-1.96 -3.33,-3.71 -14.07,2.46zm39.58 -22.48l-42.5 -14.93 6.62 7.76c-7.04,12.52 -9.51,26.79 -6.54,41.55 24.16,-2.82 24.74,-22.56 27.26,-35.15l15.15 0.76z"/>
  <path class="fil0" d="M5667.47 4055.69l5.13 6.87c13.49,8.2 26.23,13.13 36.33,25.89l7.95 0.03 4.15 -14.22c-5.04,-5.46 0.59,-1.74 -9.02,-0.82 -9.37,2.69 -30.86,-18.41 -41.8,-24.17l-2.75 6.42z"/>
  <path class="fil14" d="M5929.81 3630.79l19.82 0.7 6.74 19.09 -23.35 3.84c16.11,-2.73 14.52,-4.3 30.09,2.06l6.67 1.51 3.86 -1.51c-10.23,-11.14 -11.73,-5.19 -13.37,-20.81l12.88 -6.56 -14.07 -1.17c-11.71,-6.66 -20.44,-5.16 -29.26,2.85z"/>
  <polygon class="fil9" points="5684.25,3901.11 5682.68,3908.59 5653.13,3912.93 5646.44,3918.87 5667.8,3923.04 5668.79,3916.43 5694.04,3914.02 5688.67,3908.41 5699.54,3904.16 5697.38,3894 "/>
  <path class="fil9" d="M5748.1 3980.99l-7.58 0.28c-0.02,-1.02 -0.07,-9.31 -0.09,-9.42 -2,-9.39 0.45,-1.99 -3.33,-9.02l-13 14 -0.55 -16.85c-4.93,6.01 -10.28,12.46 -6.85,21.65 9.57,11.71 -1.99,-7.02 27.18,6.4l4.22 -7.04z"/>
  <path class="fil0" d="M5976.04 3922.64l1.35 6.78c14.45,-5.94 8.74,-10.43 18.41,-15.85l1.28 -11.37c-2.64,-10.96 -2.08,-8.3 -11.43,-10 1.71,20.44 -1.96,15.3 -9.61,30.44z"/>
  <path class="fil5" d="M5923.2 4498.93l-1.35 11.84c18.88,-0.35 5.91,-2.89 28.17,4.74 -2.83,-15.3 -11.94,-18.76 -25.76,-24.82l-1.06 8.24z"/>
  <path class="fil0" d="M5803.39 4019.52c10.73,-6.17 4.51,-4.42 14.07,-2.46 4.56,-11.44 7.5,-14.04 0.42,-23.51 -12.3,1.07 -12.37,12.49 -14.48,25.96z"/>
  <path class="fil3" d="M5924.23 4538.85c8.64,9.78 9.37,9.96 23.3,12.63l5.73 -9.27c-16.24,10.04 -5.34,4.87 -9.04,-2.83 -17.92,0.27 -2.69,-11 -23.34,-9.88l3.35 9.35z"/>
  <path class="fil9" d="M5959.23 3938.88l-3.11 7.47 5.19 3.63 5.48 0.02c6.81,-15.98 8.51,-2.83 10.59,-20.58l-18.15 9.46z"/>
  <polygon class="fil0" points="6083.29,4050.66 6089.48,4055.68 6093.72,4039.94 6083.14,4043.35 "/>
  <polygon class="fil34" points="5846.18,4395.4 5849.28,4395.71 5857.02,4395.99 5855.81,4388.07 5852.96,4386.4 5845.53,4387.24 "/>
  <polygon class="fil9" points="5995.8,3913.57 6006.17,3913.28 6006.81,3908.87 5997.07,3902.2 "/>
  <path class="fil35" d="M5962.04 3734.41l-0.18 12.45c-16.1,8.35 -33.65,5.91 -51.36,7.33 -20.41,1.63 -25.93,7.47 -44.03,10.17 -17.44,15.38 -33.59,17.68 -43.59,44.61 -8.39,22.57 -12.14,52.85 3.8,72.96 33.92,42.8 90.82,26.39 127.74,-2.64l-6.8 -6.93c-103.21,68.89 -152.79,-17.22 -103.81,-76.24 25.92,-31.23 62.69,-30.42 98.86,-34.38 26.54,-2.91 31.35,-8.76 42.75,18.14 11.2,26.42 15.45,21.66 7.44,48.99l12.81 -0.24c6.7,-17.16 -1.34,-27.66 -7.61,-44.69 -8.25,-22.43 -9.5,-22.9 -27.71,-39.02l9.43 -11.14 -17.75 0.63zm0.49 137.78c3.03,-21.14 3.9,-9.41 1.15,-31.2 -19.24,2.18 -37.5,6.44 -57.19,4.93 -23.54,-1.82 -34.69,-8.45 -37.42,-8.7 -25.6,-2.36 -7.69,-1.63 -15.75,4.99 19.88,20.3 81,10.56 104.57,11 0.41,18.64 -5.56,8.25 4.64,18.98zm-14.72 0.37l8.72 -6.77c-0,0.05 -0,0.1 0,0.15 0,0.03 0,0.05 0.01,0.08 0.14,0.81 1.48,1.44 5.9,6.08l0.02 0.02 -8.04 7.17 -6.61 -6.73z"/>
  <path class="fil36" d="M5746.46 3828.01l7.15 -1.16 2.51 -10.05 1.07 -12.99 -7.39 0.93c0.04,13.72 -0.16,11.72 -3.33,23.27z"/>
  <path class="fil36" d="M5736.46 3858.85c15.3,-5.67 16.15,-16.37 17.15,-32l-7.15 1.16c-7.42,14.03 -0.22,6.13 -2.4,13.16 -3.53,11.37 -4.95,-1.94 -7.6,17.68z"/>
  <path class="fil36" d="M5763.12 3708.46l0.08 30.69c-43.78,33.94 -1.42,28.65 -13.41,65.58l7.39 -0.93 -1.07 12.99c7.7,-11.8 3.13,-13.08 8.39,-23 4.9,-9.22 9.77,-6.85 18.87,-14.98l-10.24 -3.24c-10.33,5.12 -8.5,3.64 -19.04,-1 -4.07,-15.09 -2.28,-11.65 3.22,-25.63l8.68 -3.15 18.29 -4.25c-18.79,-26.59 1.04,-15.77 2.19,-38.89l-6.98 -1.41 -8.95 18.03 -7.43 -10.8z"/>
  <path class="fil36" d="M5973.14 3629.11l-12.88 6.56c1.64,15.63 3.15,9.68 13.37,20.81l-3.86 1.51 13.35 9.05c-1.24,-10.67 -4.07,-16.39 -10.57,-24.84l16.62 -7.37 0.62 -9.99 -16.65 4.26zm-72.51 48.16c8.65,17.25 10.98,23.09 8.61,43.34l12.76 -2.08c-5.95,-10.14 -7.85,-30.04 -8.72,-42.97 -11.76,5.48 -1.38,3.38 -12.65,1.71zm-67.69 61.81c-7.22,-13.62 -3.72,-4.68 0.97,-7.59 -11.4,-19 -11.18,-26.37 -6.71,-48.71 21.02,-22.27 47.68,-25.15 73.43,-5.52 11.28,1.67 0.89,3.77 12.65,-1.71 9.99,-9.65 22.93,-12.64 36.53,-10.88 5.13,-11.38 -9.3,-9.9 13.3,-8.2 -15.57,-6.35 -13.98,-4.78 -30.09,-2.06l-26.7 11.63c-27.96,-9.28 -46.49,-21.21 -75.96,-0.14 -21.47,15.34 -25.42,60.94 2.58,73.17zm89.06 -20.56l-12.76 2.08c-25.55,28.67 -39.76,27.86 -75.33,10.89 -4.7,2.91 -8.19,-6.03 -0.97,7.59l20.2 9.98c66.03,5.83 47.96,-44.2 108.9,-14.65l17.75 -0.63 12.89 -15.45c-2.64,-13.92 -4.07,-2.22 -4,-14.32 0.04,-6.48 1.11,-16.97 1.11,-25.14l-6.67 -11.83 -13.35 -9.05 -6.67 -1.51c-22.59,-1.7 -8.17,-3.17 -13.3,8.2 31.43,3.45 46.23,38.33 26.2,57.08 -8.74,4.7 -40.78,-2.52 -54.02,-3.24z"/>
  <path class="fil29" d="M5736.35 3648.87l13.44 4.01c15.39,3.21 35.09,3.55 47.15,-5.07l-13.81 -2.8 -2.21 -20.06 -6.61 16.3c-9.48,-18.94 -2.7,-38.9 7.47,-55.62l-4.47 -11.38 -14.12 6.61c-22.76,9.83 -27.83,44.22 -26.84,68.01zm26.84 -68.01l14.12 -6.61 4.47 11.38c7.32,-12.26 8.15,-20.18 19.47,-26.82l11.84 -15.2 -4.63 -0.15c-15.07,11.39 -36.54,20.69 -45.28,37.41zm42.4 -15.62c-8.97,21.69 -29.66,32.12 -24.67,59.71l2.21 20.06 13.81 2.8c14.45,0.21 29.39,-7.85 43.7,-12.36 5.48,-4.18 4.67,-3.9 11.94,-7.4 20.15,-9.71 73.43,-24.78 85.9,-30.56 1.92,-27.26 -12.71,-40.89 -37.81,-46.1 -14.22,-4.66 -9.95,-8.93 -28.21,-9.45 -14.13,-0.41 -21.35,2.43 -34.69,-2.35l-32.19 25.65zm76.25 72.52c23.51,-1.31 46.37,-17.58 75.17,-20.28 3.14,6.72 2.42,0.68 2.07,10.46l14.07 1.17 16.65 -4.26 5.05 -9.31c-20.91,-10.53 -2.56,-12.15 -34.52,-9.06 -26.17,2.54 -88.72,10.82 -103.33,31.93 13.17,3.2 11.59,1.85 24.84,-0.65zm18.84 -86.37l-4.04 -10.44c28.94,-0.76 53.4,20.24 51.58,56.82l38.24 0.35c2.83,-7.66 2.7,-7.94 0.72,-16.35 -4.03,-17.13 2.19,-1.78 -7.44,-12.84 -6.75,-7.76 -12.38,-14.61 -23.29,-20.03 -32.97,-7.58 -85.69,-20.18 -118.69,-9.31 13.35,4.78 20.56,1.94 34.69,2.35 18.26,0.53 13.99,4.79 28.21,9.45z"/>
  <path class="fil37" d="M5801.25 3558.8c-1.45,9.69 -2.05,3.74 4.33,6.43l32.19 -25.65 -24.68 4.01 -11.84 15.2zm-19.47 26.82c-10.17,16.72 -16.95,36.68 -7.47,55.62l6.61 -16.3c-4.99,-27.59 15.7,-38.02 24.67,-59.71 -6.38,-2.69 -5.79,3.26 -4.33,-6.43 -11.33,6.64 -12.15,14.56 -19.47,26.82zm100.06 52.14c-13.09,13.91 -27.73,0.44 -41.19,-2.31 -14.31,4.5 -29.25,12.57 -43.7,12.36 -12.06,8.63 -31.76,8.28 -47.15,5.07 5.61,12.9 4.81,6.83 7.61,21.76l3 17.1c3.06,8.76 -1.68,0.7 4.1,7.13l-1.22 -31.96c101.1,-32.05 96.5,-13.72 128.85,-22.75 12.78,-3.56 24.78,-11.11 37.67,-13.37 8.82,-8.01 17.56,-9.51 29.26,-2.85 0.35,-9.78 1.06,-3.74 -2.07,-10.46 -28.79,2.7 -51.66,18.97 -75.17,20.28zm-145.48 11.11c-0.99,-23.8 4.07,-58.18 26.84,-68.01 8.74,-16.72 30.2,-26.02 45.28,-37.41 -22.94,-3.33 -65.39,28.14 -75.07,59.02 -11.32,36.1 -7.81,37.5 2.95,46.4zm72.11 -105.42l4.63 0.15 24.68 -4.01c33,-10.87 85.72,1.73 118.69,9.31 -12.85,-19.69 -28.93,-17.5 -64.1,-22.59 -2.25,-0.33 -4.55,-0.58 -6.89,-0.77l-24.87 0c-17.52,1.17 -35.37,4.37 -50.07,7.35l-2.05 10.56zm92.21 7.94c25.09,5.22 39.72,18.84 37.81,46.1 -12.47,5.78 -65.74,20.85 -85.9,30.56 -7.27,3.5 -6.45,3.22 -11.94,7.4 13.46,2.76 28.09,16.22 41.19,2.31 -13.25,2.5 -11.67,3.85 -24.84,0.65 14.6,-21.11 77.16,-29.4 103.33,-31.93 31.96,-3.09 13.61,-1.47 34.52,9.06 6.04,-3.22 4.43,0.33 4.09,-5.81l-12.48 -11.61 -38.24 -0.35c1.82,-36.57 -22.65,-57.58 -51.58,-56.82l4.04 10.44z"/>
  <path class="fil12" d="M5629.79 3931.94c-7.34,8.78 -19.06,18.93 -27.61,29.31 -2.78,3.37 -9.29,11.69 -11.75,14.91 -4.95,6.49 -9.14,11.78 -14,16.03 10.88,24.08 33.2,11.07 49.27,2.28 2.59,-13.48 4.79,-5.79 0.74,-15.58 2.64,-12.4 8.81,-8.12 22.6,-13.98 9.1,-3.87 11.79,-7.3 19.39,-12.73l0.58 -16.36c-14.08,-9.76 -23.21,-8.09 -39.22,-3.88z"/>
  <path class="fil12" d="M5590.57 4048.85l-3.66 1.66c14.59,16.94 13.81,7.22 16.95,32.7l19.91 6.69 14.34 -14.66 18.08 -9.96 -2.36 -11.91c-8.85,-7.25 -19.09,-12.28 -32.13,-12.73 -7.63,1.64 -11.38,0.66 -17.2,1.89 -8.39,1.78 -3.1,1.41 -13.93,6.31z"/>
  <path class="fil7" d="M6053.59 4285.11c2.66,11.44 1.35,7.52 9.73,15.94 17.93,3.66 23.7,4.65 38.56,-6.08l22.07 -18.55 -0.45 -8.19 -9.33 0.56c-4.98,11.65 -14.05,17.17 -25.15,22.3 -25.96,12.01 -15.66,-3.77 -35.41,-5.98zm-12.82 -2.1c10.62,-4.03 4.02,0.73 10.78,-8.9 -15,-3.79 -16.21,3.23 -32.84,-4.29 -9.06,-23.66 7.56,-44.22 18.95,-61.31l-13.96 -0.02c-10.85,20.92 -24.47,35.15 -15.45,61.15 8.48,12.93 17.35,13.21 32.52,13.37zm-17.07 -74.52l13.96 0.02 5.04 -4.82c-2.24,-6.87 3.83,-5.68 -5.11,-5.21l-4.33 -0.08c-11.23,8.98 -5.27,0.12 -9.56,10.09zm-1.11 -43.48l18.45 12.04 9.62 8.76c-4.97,9.87 -4.04,6.39 -13.08,12.68 8.94,-0.46 2.88,-1.65 5.11,5.21 8.9,-4.51 9.35,-7.37 15.3,-10.68 11.38,-6.32 7.33,0.98 17.61,-7.49 -11.44,-12.69 -30.82,-10.35 -48.52,-31.63l-8.51 1.5 4.01 9.61zm-25.08 -6.15l21.07 -3.46 8.51 -1.5c-22.64,-19.68 -3.57,-40.74 11.9,-53.94 -17.19,1.37 -7.03,2.18 -9.25,-4.57 -22.65,11.3 -26.75,33.23 -17.34,56.62l-14.89 6.85zm32.24 -63.47c2.22,6.75 -7.94,5.94 9.25,4.57 17.69,-2.81 26.21,0.43 41.97,7.56l6.61 0.93 0 -6.27c-15.49,-13.6 -39.77,-16.43 -57.83,-6.78zm79.91 17.17l-22.08 -4.11 -6.61 -0.93 25.02 16.56 3.67 -11.52zm-16.69 -76.15l0.75 3.54 -4.24 15.74c11.61,24.78 25.68,9.59 12.43,45.47l-14.33 1.02 0 6.27 22.08 4.11 5.97 -17.04 -0.89 -14.77 9.8 -0.63c-12.82,-4.48 -26.12,-21.15 -20.73,-36.66 9.89,-13.02 23.28,-34.68 21.73,-52.72l7.58 0.69c-5.18,-6.21 -0.92,-3.74 -8.71,-7.13 -8.09,-3.53 -2.38,-1.3 -11.2,-2.09 8.13,17.8 -2.65,44.98 -20.24,54.21zm-168.71 454.28c13.82,6.07 22.93,9.52 25.76,24.82l35.4 3.75 1.05 -0.59 1.65 -4.94 -1.22 0.39c-22.92,-1 -51.41,-15.36 -50.46,-39.6 -10.41,-5.89 -1.61,-3.71 -14.52,-3.75 -1.98,14.3 -3.7,6.63 2.34,19.92zm-13.89 -32.23c5.45,10.8 -0.56,0.76 8.55,9.98l-6.43 34.66 10.71 -4.16 1.06 -8.24c-6.04,-13.3 -4.31,-5.62 -2.34,-19.92 12.91,0.04 4.12,-2.13 14.52,3.75l-2.87 -9.06 6.2 -8.56c-17.54,6 -11.59,6.54 -29.41,1.56zm-12.91 79.81l-9.4 -3.95c-11.96,0.63 -11.27,0.45 -20.49,-6.21 -8.06,-7.1 -4.15,-3.72 -6.44,-15.63 -2.75,-14.29 1.98,-9.49 -8.28,-16.24 -0.45,16.3 -3.76,29.29 10.37,39.55 8.85,6.43 27.34,11.53 34.25,2.48zm15.03 -35.18c-3.91,19.35 -4.54,23.25 -24.43,31.23l9.4 3.95 4.31 0.74 11.72 -10.17c4.76,-6.95 8.28,-3.6 8.36,-18.07l1.35 -11.84 -10.71 4.16zm-73.45 -10.03l13.8 3.18c10.26,6.75 5.53,1.95 8.28,16.24 2.29,11.91 -1.61,8.53 6.44,15.63 -5.94,-12.69 -3.73,-26.03 -4.46,-40.15l-27.67 -5.15 -3.51 2.53 7.11 7.71zm0 0l-7.11 -7.71 3.51 -2.53c-10.7,-0.3 -18.87,-8.37 -18.7,-20.55 0.18,-12.91 9.51,-20.17 15.86,-29.25l-8.77 2.76 -8.14 -6.9 0.31 10.23c-23.72,21.22 -2.41,46.95 23.04,53.95zm152.99 -85.74l-15.27 -5.37 -0.37 -11.95 -10.23 11.87c9.24,5.5 12.83,4 25.87,5.45zm30.55 23.41l5.35 4.72 0.85 21.12 -0.28 9.39c16.57,-7.17 16.1,-37.53 -1.61,-44.26l3.7 9.78 -8 -0.74zm-35.68 83.39l1.22 -0.39 -1.65 4.94c21.86,-6.82 21.05,-19.85 22.09,-40.69 9.51,-3.87 14.76,-3.99 19.93,-12.03l0.28 -9.39c-12.13,5.19 -15.28,7.78 -30.64,10.78 -1.98,11.85 2.35,10.31 0.08,23.59 -2.14,12.57 -6.31,12.33 -11.31,23.18zm-145.57 -127.62l4.19 0.75 7.44 -0.85c-6.73,-18.67 -4.88,-29.93 5.69,-44.84 -21.25,1.38 -7.72,1.94 -10.16,-5.53 -13.8,13.7 -8.81,33.32 -7.16,50.47zm7.16 -50.47c2.44,7.47 -11.09,6.91 10.16,5.53 28.57,-13.27 34.34,13.84 57.57,17.59 5.16,-7.31 30.36,-47.65 49.37,-22.97 11.97,15.54 3.72,56.56 -10.83,68.48l3.1 11.68c24.55,-2.65 43.65,2.7 64.71,14.39l8 0.74 -3.7 -9.78c-7.45,-9.65 -23.35,-11.35 -34.85,-14.37 -13.05,-1.46 -16.63,0.04 -25.87,-5.45l10.23 -11.87c5.51,-19.97 11.34,-52.29 -8.12,-66.52 -27.08,-19.81 -41.11,9.17 -54.81,19.54 -23.64,-5.82 -31.58,-30.79 -64.95,-6.99zm-131.84 -113.88l12.3 0.63c13.77,-0.09 23.44,-2.2 34.28,-10.91 -0.7,-7.56 1.62,-6.2 -4.68,-6.36 -39.8,26.63 -61.83,-10.1 -84.65,-8.91l0.61 11.84 42.14 13.72zm-17.01 -102.08l-2.93 6.71c-6.21,10.96 -19.19,9.13 -30.23,6.26l-6.95 1.81c11.22,8.25 5.29,1.37 17.04,6.7l4.57 0.09 12.35 -0.66c32.89,-14.06 0.88,-50.91 74.87,-41.94l7.67 -0.43 -3.75 -7.33 -36.22 -4.2c-9.86,9.59 -14.52,5.89 -22.39,12.34 -9.24,7.57 -2.78,10.66 -14.02,20.63zm50.55 28.91c2.3,11.05 -4.04,2.95 7,9.69l12.74 -13.12 -0.06 0.51 3.45 -12.63 -23.12 15.55zm18.17 -49.93l10.17 13.19 -5.21 21.2 -3.45 12.63c24.5,-8.38 27.59,-42.44 2.41,-54.76l3.75 7.33 -7.67 0.43zm-9.81 106.46c6.3,0.15 3.98,-1.2 4.68,6.36 27.4,-14.75 4.46,-43.83 6.69,-66.32l-12.74 13.12c-11.04,-6.74 -4.7,1.36 -7,-9.69 6.2,25.95 22.42,21.93 8.36,56.53zm-134.78 -115.6c11.32,3.4 14.39,4.74 22.96,10.36 -1.56,-14.3 -2.56,-10.54 3.46,-22.09l-15.84 3.18 3.76 -6.11 -14.34 14.66zm32.42 -24.62l-0.83 10.72c18.74,-7.87 3.33,-7.85 17.24,-13.44l-5.13 -6.87 -13.63 -2.31 2.36 11.91zm-18.08 9.96l-3.76 6.11 15.84 -3.18 5.17 -2.17 0.83 -10.72 -18.08 9.96zm-8.32 -143.3c16.01,-4.22 25.14,-5.89 39.22,3.88l-0.58 16.36 2.64 6.36c12.82,-4.74 9.19,-13.58 7.85,-26.21l-11.11 -9.3 -21.36 -4.17c-11.04,4.44 -9.5,2.8 -16.65,13.08zm-60 71.45c23.55,8.59 18.46,16.25 48.9,5.81l5.41 -3.77c7.01,-11.29 3.2,-2.68 1.6,-10.96 -16.07,8.79 -38.39,21.81 -49.27,-2.28l-9.81 3.63 3.17 7.57zm56.65 -24.5c4.05,9.79 1.85,2.1 -0.74,15.58 1.6,8.28 5.41,-0.32 -1.6,10.96 19.25,-8.15 9.47,-10.83 15.68,-27.64l-13.33 1.09zm0 0l13.33 -1.09c10.68,-5.43 25.71,-8.61 31.29,-19.26l-2.64 -6.36c-7.6,5.43 -10.29,8.86 -19.39,12.73 -13.79,5.87 -19.96,1.59 -22.6,13.98zm325.2 -25.63l-5.42 4.94 37.17 5.9 -13.85 8.36c-11.1,5.19 -15.77,9.52 -27.63,10.83 -7.47,7.65 -8.23,4.28 -22.04,5.85 -7.61,1.07 -20.8,6.74 -26.77,-0.13 -15.32,0.68 -21.62,6.67 -33.26,-0.9 -15.24,-0.27 -41.8,-6.15 -53.52,-15.7l12.77 -5.03c7.08,-6.48 4.69,-2.15 13.74,-3.59 6.35,-1.01 3.94,-0.39 10.09,-1.91 0.99,-0.24 2.56,0.13 3.28,-1.24 0.72,-1.38 2.21,-0.82 3.23,-1.4 -9.34,-8.44 -3.2,-5.7 -17.03,-7.36l-22.39 6.78 -13.19 9.57 0.84 0.02 -5.32 7.04 8.12 6.83 42.5 14.93 26.65 1.15 42.22 0.34 10.1 0.99c9.77,-6.61 28.89,-8.05 42.15,-14.48l22.61 -11.55c8.38,-12.29 7.52,-3.1 12.45,-14.5 -9.35,-6.06 -4.47,-0.62 -12.48,-8.62l-19.89 -0.38 -5.48 -0.02 -9.67 3.28z"/>
 </g>
</svg>
