<?xml version="1.0" encoding="UTF-8"?>
<!DOCTYPE svg PUBLIC "-//W3C//DTD SVG 1.0//EN" "http://www.w3.org/TR/2001/REC-SVG-20010904/DTD/svg10.dtd">
<!-- Creator: CorelDRAW 2018 (64-Bit) -->
<svg xmlns="http://www.w3.org/2000/svg" xml:space="preserve" width="1.27164in" height="0.63in" version="1.0" style="shape-rendering:geometricPrecision; text-rendering:geometricPrecision; image-rendering:optimizeQuality; fill-rule:evenodd; clip-rule:evenodd"
viewBox="0 0 1515.99 751.06"
 xmlns:xlink="http://www.w3.org/1999/xlink">
 <defs>
  <style type="text/css">
   <![CDATA[
    .fil0 {fill:#FEFEFE}
    .fil2 {fill:#064795}
    .fil1 {fill:#FDB814}
    .fil3 {fill:#FDFEFE}
   ]]>
  </style>
 </defs>
 <g id="Layer_x0020_1">
  <metadata id="CorelCorpID_0Corel-Layer"/>
  <rect class="fil0" x="-0" width="1515.99" height="751.06"/>
  <g id="_2385153006800">
   <g>
    <path class="fil1" d="M1238.2 68.95c40.8,-2.95 24.69,1.94 31.14,6.59 9.68,6.97 -14.84,4.82 15.06,7.11 10.21,0.79 14.46,-3.01 19.84,-6.77l6.89 -5.69c22.73,-11.47 29.18,6.66 29.64,7.25l30.87 5c10.36,-14.21 -5.47,-15.26 34.35,-13.23l19.8 217.39 -66.73 0c-2.27,-34.95 1.07,-79.1 -39.03,-77.95 -37.22,1.07 -33.32,42.34 -35.75,77.95l-66.45 -0.01 20.36 -217.63zm-69.21 101.67c0,72.62 22.87,127.86 90.16,156.21 119.42,50.32 215.82,-50.08 215.82,-120.45 0,-55.43 -0.42,-90.16 -42.55,-132.3 -93.45,-93.45 -263.43,-26.42 -263.43,96.53z"/>
    <path class="fil1" d="M1289.2 150.74c4.31,39.83 66.96,36.4 64.22,-7.97 -2.65,-42.81 -69.26,-38.6 -64.22,7.97z"/>
   </g>
   <g>
    <path class="fil2" d="M48.37 715.03l95.37 0 0 -222.53 131.14 222.53 123.19 0 -158.95 -242.4c20.14,-30.07 134.7,-191.79 139.08,-210.61l-115.24 0c-3.98,14.91 -19.99,35.12 -27.63,47.87l-91.58 142.87 0 -190.75 -95.37 0 0 453.02z"/>
    <path class="fil2" d="M990.17 611.71c0,-50.17 33.86,-51.66 79.48,-51.66l0 63.58c0,26.63 -79.48,44.25 -79.48,-11.92zm-87.43 -202.67c3.68,15.82 27.03,51.06 35.76,67.56 29.53,-15.62 135.11,-85.62 135.11,7.95 0,25.99 -41.57,-3.83 -121,30.01 -92.04,39.21 -72.3,200.47 33.57,200.47 76.22,0 59.51,2.87 111.27,-31.79 3.98,14.89 21.92,39.74 39.74,39.74 11.96,0 44.25,-44.57 51.66,-55.64 -13.94,-20.82 -26.54,-16.37 -27.96,-51.51 -4.61,-113.86 29.3,-227.56 -69.53,-248.38 -77.51,-16.34 -130.67,10.93 -188.63,41.59z"/>
    <path class="fil2" d="M493.44 488.52c0,-30.27 17.16,-59.61 47.69,-59.61 35.34,0 47.69,34.96 47.69,71.53l-95.37 0 0 -11.92zm-99.34 31.79c0,77.14 13.37,142.23 83.56,178.71 50.36,26.17 130.12,15.93 171.65,-10.92 10.35,-6.69 14.51,-13.47 26.93,-16.78 -1.62,-19.51 -22.55,-42.15 -31.79,-59.61 -36.84,24.67 -106.89,54.14 -139.1,7.97 -12.94,-18.55 -8,-35.27 -15.88,-51.68l190.75 0c0,-59.24 3.78,-111.73 -33.31,-161.41 -62.71,-84 -252.8,-56.14 -252.8,113.72z"/>
    <path class="fil2" d="M735.84 242.14c0,44.12 3.98,82.69 3.98,131.14l0.87 269.35c9.7,68.53 60.34,68.43 102.45,68.43 17.09,0 21.54,-4.64 35.76,-7.95 -21.21,-91.04 -19.95,-39.82 -39.74,-59.6 -16.17,-16.17 -7.73,-305.77 -7.81,-369.7 -0.03,-23.97 -4.11,-28.86 -4.11,-51.53 -18.12,0.4 -69.35,14.73 -91.4,19.87z"/>
   </g>
   <path class="fil3" d="M1289.2 150.74c-5.04,-46.57 61.57,-50.78 64.22,-7.97 2.74,44.37 -59.91,47.8 -64.22,7.97zm-71.36 135.84l66.45 0.01c2.43,-35.61 -1.46,-76.88 35.75,-77.95 40.11,-1.15 36.76,43 39.03,77.95l66.73 0 -19.8 -217.39c-39.82,-2.04 -23.99,-0.99 -34.35,13.23l-30.87 -5c-0.46,-0.59 -6.92,-18.72 -29.64,-7.25l-6.89 5.69c-5.39,3.76 -9.63,7.56 -19.84,6.77 -29.9,-2.3 -5.38,-0.14 -15.06,-7.11 -6.45,-4.65 9.65,-9.54 -31.14,-6.59l-20.36 217.63z"/>
  </g>
 </g>
</svg>
