<?xml version="1.0" encoding="UTF-8"?>
<!DOCTYPE svg PUBLIC "-//W3C//DTD SVG 1.0//EN" "http://www.w3.org/TR/2001/REC-SVG-20010904/DTD/svg10.dtd">
<!-- Creator: CorelDRAW 2018 (64-Bit) -->
<svg xmlns="http://www.w3.org/2000/svg" xml:space="preserve" width="7.75297in" height="8.95983in" version="1.0" style="shape-rendering:geometricPrecision; text-rendering:geometricPrecision; image-rendering:optimizeQuality; fill-rule:evenodd; clip-rule:evenodd"
viewBox="0 0 7546.49 8721.22"
 xmlns:xlink="http://www.w3.org/1999/xlink">
 <defs>
  <style type="text/css">
   <![CDATA[
    .fil2 {fill:#00A0E3}
    .fil1 {fill:#393185}
    .fil0 {fill:#111214}
   ]]>
  </style>
 </defs>
 <g id="Layer_x0020_1">
  <metadata id="CorelCorpID_0Corel-Layer"/>
  <path class="fil0" d="M2617.78 2845.67l19.63 26.26c1.9,2.39 4.35,5.64 6.32,8.02l62.75 58.97c34.8,29.93 3.31,-1.12 31.44,28.49 44.63,22.48 78.3,91.73 124.1,98.67l64.48 45.73c24.08,26.65 15.46,25.33 39.84,53.85 83.25,97.38 124.01,113.12 195.21,182.95 42.27,41.46 38.69,56.34 93.07,97.24l81.05 -56.57c67.25,58.38 37.01,27.48 45.05,84.77 10.24,72.98 34.49,35.75 86.3,56.07 85.27,33.45 -28.6,26.76 40.88,93.57 49.2,47.3 26.2,-14.61 96.59,25.28 -3.8,65.07 -33.78,67.49 -30.83,147.18 3.02,81.32 40.88,75.78 20.04,135.77 -73.62,31.74 -31.47,-37.78 -90.65,18.77 -55.05,52.6 2.69,26.29 -17.65,88.94 -62.15,29.45 -73.59,-33.58 -102.88,32.86 -19.14,43.43 4.04,83.97 -43.02,95.56 -32.84,32.32 14.3,12.17 -21.24,5.23 -31.22,-6.1 -13.35,-19.44 -63.64,-44.1 -50.75,25.96 -135.18,135.68 -226.92,212.72 -1.85,1.56 -7.19,9.37 -8.55,6.84 -1.38,-2.56 -5.7,4.74 -8.71,6.9l-32.4 36.19 -76.94 69.47c-70.27,52.06 -117.54,109.54 -186.9,173.07l-1907.19 1770.08c-146.87,154.88 -427.44,384.23 -579.99,542.2 -113.67,117.71 -359.03,226.89 -137.43,447.06 181.62,180.44 253.17,242.96 438.85,30.07 300.15,-344.12 751.47,-790.24 1069.73,-1147.25 233.64,-262.09 470.27,-501.13 711,-762.59l705.93 -769c2.89,-3.04 7.46,-11.39 9.04,-8.74 1.55,2.58 6.68,-6.52 8.77,-8.55l36.92 -36.11c17.29,-18.16 26.33,-29.96 43.52,-49.87l98 -101.48 73.44 -78.63c27.29,-30.61 40.84,-56.46 83.08,-80.83l56.26 -69c-26.41,-57.28 -30.6,-26.74 -51.88,-83.08 60.33,-87.17 53.06,-27.74 124.63,-59.36 50.71,-97.83 -26.13,2.46 7.36,-94.74 36.78,-11.19 47.78,-0.52 84.06,2.31 50.41,-97.62 -4.06,-46.29 35.42,-127.52 83.06,-0.34 81.92,30.62 158.21,33.71 80.73,3.28 73.74,-37.04 142.81,-18.72 27.22,92.85 -27.1,16.7 11.36,99.81l9.79 27.88c110.87,-16.6 50.62,-26.22 132.53,-80.49l-28.19 -78.14c-112.83,-35.28 -20.86,31.06 -96.95,-24.22 67.05,-128.39 6.33,-214.9 0.88,-251.85 67.69,-20.9 126.45,6.03 117.88,-74.5 -1.44,-13.5 -31.84,-60.93 -36.67,-65.39 -37.53,-34.7 -24.74,-26.48 -89.31,-30.52l-8.22 28.47c-34.78,81.28 17.79,4.63 -11.18,101.13 -76.52,15.12 -68.73,-35.64 -158.1,-25.2 -81.78,9.56 -62.22,51.2 -148.9,28.91 -16.46,-52.98 30.68,-103.24 -40.32,-116.67l-37.74 0.03c-21.89,-2.44 -20.13,-4.81 -44.31,-15.44 11.16,-47.98 2.35,-19.05 27.07,-59.53 -83.6,-41.4 -15.89,-31.59 -73.78,-26.48 -55.69,4.92 -32.47,-1.75 -87.78,-38.78 10.55,-67.77 4.32,-63.12 54.36,-94.57 -33.46,-25.83 -47.14,-56.92 -71.52,-91.83 -25.32,-36.26 -52.2,-55.77 -77.31,-84.08 -62.32,-70.25 -136.21,-126.24 -164.49,-180.37 -43.19,-35.96 -78.35,-86.57 -119.04,-131.13l-128.73 -135.52c-25.87,-28.15 -113.7,-113.37 -126.12,-144.39 -51.19,-47.25 -29.07,-44.99 -98.83,-95.1l-38.89 -30.22c-0.07,-0.28 -773.31,-862.05 -925.92,-1006.91l-625.66 -672.19c-51.2,-57.94 -106.07,-108.9 -157.34,-167.11 -69.27,-78.64 -435.43,-477.89 -477.28,-496.72 -120.41,-54.2 -180.63,20.09 -232.27,73.6 -150.9,156.35 -261.38,211.08 -75.24,396.83l503.4 469.81c117.39,102.56 217.19,209.33 334.77,314.12 62.77,55.94 101.77,93.11 167.56,156.88l507.35 466.29c322.19,288.26 680.99,651.89 1006.17,934.91z"/>
  <path class="fil1" d="M2985.88 3780.97c66.96,-119.02 61.08,-337.02 3.4,-460.75 -22.71,6.49 -46.43,-12.96 -63.86,95.28 -13.38,83.09 -35.47,336.04 60.46,365.47zm772.14 2265.12c-5.8,-147.82 -22.21,-874.81 11.58,-964.4 -78.97,26.48 -184.89,11.59 -271.72,12.17 6.17,60.77 37.55,116.57 56.16,165.64 1.29,3.39 2.71,6.77 3.9,10.3 1.25,3.68 2.35,7.12 3.48,10.93l72.15 610.33c1.46,201.15 -27.57,118.89 124.45,155.03zm23.76 470.06l0 808.35c-0.01,45.31 -1.74,91.61 -1.69,136.36 0.08,62.92 14.42,54.18 42.24,79.94l0 459.65 -67.6 40.56c0,62.31 8.15,131.06 -12.5,187.3 -14.15,76.9 -5.61,265.75 -7.05,367.18 -0.76,53.63 -6.82,90.32 19.61,124.34l40.54 1.39c36.17,-48.14 19.59,-135.47 19.51,-193.52 -0.09,-67.83 0.15,-135.59 -0.43,-203.41 -1.22,-143.04 14.91,-69.62 40.38,-155.85 13.92,-47.13 8.02,-127.28 20.82,-183.4 210.19,-37.29 751.91,36.37 912.56,-18.1 15.65,-70.32 27.26,-290.32 -15.18,-348.15 -63.06,-85.91 -707.67,-207.91 -858.49,-276.63l50.47 -830.5c-38.43,18.56 -47.63,15.34 -102.52,14.74 -39.04,-0.43 -52.9,0.94 -80.7,-10.24zm-5.96 -5038.93c13.51,64.34 5.99,141.58 5.96,209.86 -0.02,36.59 -0.68,73.22 -0.78,109.71 -0.25,90.51 -7.01,90.31 81.08,93.73 107.96,4.18 146.52,21.26 239.28,51.53 94.3,30.78 196.98,61.9 216.29,178.8 7.7,46.64 14.09,92.36 19.4,137.77 36.59,-3.97 66.65,-6.53 121.82,-11.22 137.11,-11.66 9.65,41.53 162.27,-27.41 103.15,28.7 118.65,13.08 229.68,18.66 66.03,77.56 29.77,0.54 49.18,106.76 2.13,11.68 3.49,35.29 4.3,68.21 7.14,-5.02 14.64,-9.77 22.54,-14.2 -35.18,-91.73 20.41,-1069.65 -18.9,-1217.09l-69.99 -9.79c-61.33,90.86 -12.92,813.95 -28.48,999.15l-202.97 0.56 -154.5 -518.71c-21.7,-64.88 -170.99,-465.03 -193.7,-482.18 -64.29,-7.56 -72.98,-24.03 -126.21,-46.61 -8.23,-3.49 -114.19,-29.34 -39.38,-32.44 0,130.77 38.59,159.42 69.73,345.44 9.35,55.88 20.57,30.81 24.9,114.07 -96.12,-4.93 -42.61,-10.86 -112.93,-27.04 -127.35,-29.29 -269.28,-40.05 -298.6,-47.56zm174.1 1208.99c-56.92,-3.23 -92.64,-12.32 -168.14,-12.32l-0 770.72c62.9,0 170.11,11.93 156.08,70.76l8.22 -28.47c16.75,1.05 28.29,1.27 36.86,1.63 -5.39,-207.16 -9.52,-477.66 26.25,-543.32 -5.45,-118.87 -23.81,-52.61 -50.48,-165.73 -11.49,-48.73 -10.37,-60.63 -8.78,-93.28zm37.15 963.91c-10.53,1.54 -21.59,3.7 -32.89,7.19 5.45,36.95 66.17,123.45 -0.88,251.85 76.09,55.28 -15.88,-11.06 96.95,24.22l28.19 78.14c-81.91,54.27 -21.66,63.89 -132.53,80.49l-9.79 -27.88c24.17,76.05 -109.8,28.18 -140.82,69.82 -47.15,47.15 23.75,800.92 -25.7,947.75 82.13,-31.14 203.71,-11.92 296.15,-13.16 18.73,-77.43 60.77,-119.28 94.12,-187.7l111.56 -266.34c4.81,-13.73 19.86,-46.07 22.06,-57.33 11.93,-61.02 -75.73,-117.41 -115.38,-157 -18.05,-18.03 -22.46,-20.69 -38.13,-43.1 -2.37,-3.39 -14.45,-23.1 -16.57,-27.02 -1.86,-3.45 -3.63,-7.38 -5.28,-10.64l113.59 -153.78c37.38,-35.67 16.71,-23.47 63.86,-42.88l221.3 193.93c49.52,48.07 9.19,3.77 34.8,52.29 49.95,94.64 22,-25.04 89.45,82.39 -1.75,-35.28 29.42,-174.83 34.2,-235.77 7.33,-93.38 1.34,-187.01 5.11,-280.58l130.24 -5.64 0.87 570.8c0.35,73.39 11.47,111.27 91.55,92.22 40.54,-96.84 14.16,-1473.08 15.99,-1709 -5.59,6.92 -11.47,13.51 -17.59,19.81 -4.74,391.48 -8.73,863.78 24.27,990.62l-103.91 25.22c-255.41,-148.22 -575.52,-139.43 -834.64,-203.54 0.49,-15.41 0.35,-37.84 -0.16,-65.38zm-220.72 -2614.72c30.28,103.65 11.16,324.66 9.47,441.82 29.32,7.51 171.24,18.28 298.6,47.56 70.32,16.17 16.81,22.1 112.93,27.04 -4.33,-83.26 -15.55,-58.19 -24.9,-114.07 -29.45,-175.95 -65.57,-211.12 -69.39,-325.07 -0.22,-6.52 -0.34,-13.29 -0.34,-20.37 -44.84,1.85 -24.74,11.88 0.34,20.37 16.76,5.67 35.74,10.66 39.04,12.06 53.23,22.58 61.92,39.05 126.21,46.61 -28.7,-86.22 -62.7,-142.43 -115.87,-196.37 -30.64,-31.09 -124.34,-119.19 -185.36,-112.63l-56.84 -11.44c53.18,47.73 127.77,107.81 153.11,216 -101.08,-6.74 -161.18,-38.83 -287,-31.51zm-486.7 995.72c39.5,-6.52 41.27,-15.34 78.49,-32.31 46.07,-34.54 222.65,-93.56 271.13,-100.23l142.77 -3.47c14.21,57.05 134.11,278.31 230.35,452.68 88.53,-69.5 164.91,-69.24 297.93,-85 13.49,-1.6 25.42,-2.96 36.73,-4.18 -5.31,-45.41 -11.7,-91.13 -19.4,-137.77 -19.31,-116.9 -121.99,-148.03 -216.29,-178.8 -92.76,-30.27 -131.32,-47.35 -239.28,-51.53 -88.09,-3.41 -81.33,-3.22 -81.08,-93.73 0.1,-36.49 0.76,-73.11 0.78,-109.71 0.03,-68.28 7.55,-145.51 -5.96,-209.86 -158.43,-13.42 -319.86,89.64 -376.44,165.35 -68.22,91.3 -168.88,336.43 -119.73,388.56zm420.14 633.23c-113.92,-14.18 -216.05,44.53 -313.6,64.06 -24.02,-48.25 -150.67,-258.98 -153.79,-306.58 -82.51,94.95 45.59,452.96 -128.55,490.68 28.28,54.13 102.17,110.11 164.49,180.37 25.11,28.31 51.99,47.83 77.31,84.08 24.38,34.91 38.06,66 71.52,91.83 -50.04,31.44 -43.8,26.79 -54.36,94.57 55.31,37.03 32.09,43.7 87.78,38.78 57.89,-5.11 -9.81,-14.92 73.78,26.48 -24.73,40.48 -15.91,11.55 -27.07,59.53 24.18,10.63 22.42,13 44.31,15.44l37.74 -0.03c71.01,13.42 23.86,63.69 40.32,116.67 86.68,22.29 67.12,-19.35 148.9,-28.91 89.37,-10.44 81.58,40.31 158.1,25.2 28.96,-96.51 -23.6,-19.85 11.18,-101.13 14.03,-58.84 -93.18,-70.76 -156.08,-70.76l0 -770.72c75.5,0 111.22,9.09 168.14,12.32 0.53,-10.93 1.11,-24.19 1.29,-41.93 0.25,-24.75 -0.57,-46.16 -1.44,-65.86 -49.59,-99.82 -126.11,-212.67 -160.69,-292.75 -13.13,16.87 -8.78,6.71 -13.81,37.92l-0.28 327.6 -75.19 13.16zm-202.9 1504.93c41.13,-2.71 21.66,-16.29 27.16,57.41 16.93,226.77 34.47,292.43 190.2,433.47 -174.72,-8.5 -364.01,-171.59 -346.38,-279.44 -42.24,24.36 -55.79,50.22 -83.08,80.83l-73.44 78.63c41.77,15.2 27.97,7.77 45.48,65.77 82.75,274.17 191.62,382.27 206.76,470.41 -52.11,5.84 -102.82,-8.3 -135.59,17.99 12,74.19 120.85,152.12 178.74,449.63 26.11,134.21 129.05,1647.35 126.43,1805.99 -180.24,35.6 -403.28,110.2 -582.91,162.48 -267.93,77.98 -317.96,21.66 -303.63,367.38 2.35,56.83 -7.27,44.61 23.08,79.16 59.61,46.47 763.06,15.46 901.86,19.04 23.91,124.19 -14,187.53 70.67,250.27 20.64,-56.24 12.5,-124.99 12.5,-187.3l67.6 -40.56 0 -459.65c-27.82,-25.77 -42.17,-17.02 -42.24,-79.94 -0.05,-44.75 1.68,-91.05 1.69,-136.36l0 -808.35 -126.96 -11.75 -12.04 -278.25 258.74 -13.49 1.87 -155.55 -145.37 -11.02c-152.02,-36.14 -122.99,46.12 -124.45,-155.03l-72.15 -610.33c-1.13,-3.81 -2.23,-7.25 -3.48,-10.93 -1.2,-3.53 -2.62,-6.91 -3.9,-10.3 -18.61,-49.07 -49.99,-104.87 -56.16,-165.64 86.83,-0.58 192.75,14.31 271.72,-12.17 49.45,-146.83 -21.45,-900.59 25.7,-947.75 31.02,-41.64 164.99,6.23 140.82,-69.82 -38.46,-83.11 15.86,-6.96 -11.36,-99.81 -69.07,-18.31 -62.08,22 -142.81,18.72 -76.28,-3.09 -75.15,-34.05 -158.21,-33.71 -39.48,81.23 14.99,29.9 -35.42,127.52 -36.29,-2.83 -47.28,-13.49 -84.06,-2.31 -33.49,97.2 43.35,-3.09 -7.36,94.74zm-129.02 211.44c-17.64,107.85 171.66,270.95 346.38,279.44 -155.73,-141.04 -173.27,-206.7 -190.2,-433.47 -5.5,-73.7 13.97,-60.13 -27.16,-57.41 -71.57,31.63 -64.3,-27.81 -124.63,59.36 21.28,56.34 25.47,25.79 51.88,83.08l-56.26 69zm-352.78 364.21c49.94,17.19 12.42,-16.1 83.1,86.27l229.81 263.14c32.76,-26.28 83.48,-12.15 135.59,-17.99 -15.14,-88.14 -124.02,-196.24 -206.76,-470.41 -17.51,-58 -3.7,-50.57 -45.48,-65.77l-98 101.48c-17.19,19.92 -26.23,31.71 -43.52,49.87l-36.92 36.11c-2.09,2.02 -7.22,11.13 -8.77,8.55 -1.59,-2.66 -6.15,5.7 -9.04,8.74zm-29.22 -963.97c-95.93,-29.43 -73.84,-282.38 -60.46,-365.47 17.43,-108.24 41.15,-88.79 63.86,-95.28 57.68,123.73 63.55,341.73 -3.4,460.75zm-84.79 680.33l76.94 -69.47c-46.66,1.86 -48.74,-35.06 -55.38,-88.58 -10.68,-86.14 -27.79,-290.8 48.06,-349.01 97.33,58.34 67.89,300.89 39.72,401.4 3,-2.17 7.33,-9.46 8.71,-6.9 1.36,2.53 6.7,-5.28 8.55,-6.84 91.74,-77.04 176.17,-186.77 226.92,-212.72 50.29,24.66 32.42,38.01 63.64,44.1 35.54,6.94 -11.6,27.09 21.24,-5.23l-3.84 -778.77 -81.05 56.57c-54.38,-40.9 -50.8,-55.78 -93.07,-97.24 -71.2,-69.83 -111.96,-85.56 -195.21,-182.95 -24.38,-28.51 -15.75,-27.19 -39.84,-53.85l-64.48 -45.73c24.08,156.24 9.76,579.53 3.18,754.92l-133.22 -0.33 5.94 -853.25c-28.12,-29.61 3.37,1.44 -31.44,-28.49l-62.75 -58.97c-1.97,-2.38 -4.43,-5.63 -6.32,-8.02l-19.63 -26.26c17.5,161.59 7.94,1289.38 4.5,1613.16 -1.07,100.51 -20.4,160.18 92.32,134.54 39.56,-86.8 12.7,-521.57 17.39,-659.68l133.06 -3.72c3.42,93.09 -2.58,186.09 4.88,277.54 6.63,81.15 34.08,186.64 31.16,253.79zm377.8 -3280.56c-118.25,267.45 -278.38,704.18 -335.54,991.82l-210.46 -1.17c-14.18,-223.25 29.37,-838.63 -13.16,-990.26l-71.43 -8.43c-57.79,88.28 -25.78,431 -25.78,568.46 0,198.27 0.37,396.57 -0.07,594.84 -3.2,86.95 5.18,16.88 -30.21,40.17l38.89 30.22c69.76,50.11 47.65,47.84 98.83,95.1l1.04 -217.22 190.16 -3.8c-8.78,88.6 -40.88,178.42 -29.16,267.32l7.14 32.95c25.94,-155.58 122.6,-293.3 203.38,-383.03 13.65,-50.36 39.14,-63.14 81.88,-94.36 17.15,-12.52 26.1,-18.54 48.28,-33.42 42.1,-28.25 11.81,14.66 46.97,-38.79 -49.15,-52.13 51.51,-297.26 119.73,-388.56 56.57,-75.7 218.01,-178.77 376.44,-165.35 1.69,-117.16 20.81,-338.17 -9.47,-441.82 -204.3,-8.11 -338.2,50.82 -487.46,145.34zm-300.86 3211.09l32.4 -36.19c28.17,-100.5 57.61,-343.05 -39.72,-401.4 -75.84,58.21 -58.74,262.87 -48.06,349.01 6.64,53.52 8.72,90.44 55.38,88.58zm-86.02 -1844.05c-1.92,3.46 -3.04,8.34 -3.97,11.19l-31.96 86.9 128.73 135.52c40.69,44.56 75.85,95.18 119.04,131.13 174.14,-37.73 46.03,-395.73 128.55,-490.68 -26.6,-45.79 -18.72,-16.57 -51.02,-56.43 -18.57,-22.92 -16.13,-23.92 -30.68,-51.86 -22.96,-44.09 -38.8,-57.68 -48.19,-115.85 -80.77,89.73 -177.43,227.45 -203.38,383.03l-7.14 -32.95zm897.07 -262.1c34.57,80.08 111.09,192.92 160.69,292.75 -3.05,-69.17 -6.66,-117.24 33.58,-214.77 6.43,-5.66 12.77,-10.94 19.05,-15.87 -96.24,-174.37 -216.13,-395.63 -230.35,-452.68l-142.77 3.47c-20.77,7.49 -24.22,21 -35.53,31.84 17.43,48.49 65.82,133.24 89.7,178.23 30.63,57.71 79.93,118.39 105.63,177.03zm-22.72 -1250.28c125.82,-7.32 185.92,24.77 287,31.51 -25.34,-108.19 -99.94,-168.27 -153.11,-216l56.84 11.44c-44.33,-44.36 -118.29,-46.37 -187.26,-46.6l-3.47 219.65zm-426.86 3132.64c47.06,-11.59 23.88,-52.13 43.02,-95.56 29.29,-66.43 40.73,-3.41 102.88,-32.86 20.34,-62.65 -37.4,-36.35 17.65,-88.94 59.18,-56.55 17.03,12.97 90.65,-18.77 20.84,-59.99 -17.03,-54.45 -20.04,-135.77 -2.96,-79.69 27.02,-82.11 30.83,-147.18 -70.38,-39.89 -47.38,22.02 -96.59,-25.28 -69.48,-66.8 44.38,-60.12 -40.88,-93.57 -51.81,-20.32 -76.06,16.92 -86.3,-56.07 -8.04,-57.29 22.19,-26.39 -45.05,-84.77l3.84 778.77zm18.66 -2169.23c37.65,19.09 9.78,-4.93 38.28,33.47 30.35,40.9 268.44,528.97 331.85,604.22l-28.48 27.85 75.19 -13.16 0.28 -327.6c5.04,-31.21 0.69,-21.05 13.81,-37.92 -25.69,-58.64 -75,-119.32 -105.63,-177.03 -23.88,-44.99 -72.27,-129.74 -89.7,-178.23 11.31,-10.84 14.76,-24.35 35.53,-31.84 -48.48,6.67 -225.06,65.69 -271.13,100.23zm-628.18 502.67c12.42,31.01 100.24,116.24 126.12,144.39l31.96 -86.9c0.93,-2.85 2.05,-7.73 3.97,-11.19 -11.72,-88.89 20.38,-178.72 29.16,-267.32l-190.16 3.8 -1.04 217.22zm132.04 564.6c-45.8,-6.94 -79.47,-76.19 -124.1,-98.67l-5.94 853.25 133.22 0.33c6.59,-175.39 20.9,-598.67 -3.18,-754.92zm907.59 2015.61c-33.79,89.59 -17.38,816.58 -11.58,964.4l145.37 11.02 -1.87 155.55 -258.74 13.49 12.04 278.25 126.96 11.75c27.8,11.19 41.66,9.82 80.7,10.24 54.89,0.6 64.09,3.82 102.52,-14.74 -0.7,-196.9 45.76,-888.77 92.5,-1062.39 78.29,-290.78 192.9,-377.49 324.29,-539.53 31.3,-38.61 98.17,-139.5 130.09,-167.27 61.63,41.53 2384.61,2565.67 2500.9,2676.48 55.82,53.19 102.77,151.88 229.07,137.88 86.43,-9.58 170.55,-115.9 218.45,-163.42 184.62,-183.13 40.63,-288.12 -132.14,-438.19 -408.03,-354.42 -930.31,-888.63 -1344.39,-1251.3 -242.25,-212.17 -513.6,-484.6 -763.12,-710.41l-579.52 -542.14c-67.46,-107.42 -39.5,12.26 -89.45,-82.39 -25.61,-48.53 14.72,-4.22 -34.8,-52.29l-221.3 -193.93c-47.15,19.41 -26.48,7.21 -63.86,42.88l-113.59 153.78c1.66,3.26 3.42,7.19 5.28,10.64 2.12,3.92 14.2,23.63 16.57,27.02 15.67,22.41 20.08,25.07 38.13,43.1 39.65,39.6 127.31,95.99 115.38,157 -2.2,11.26 -17.25,43.6 -22.06,57.33l-111.56 266.34c-33.35,68.42 -75.39,110.27 -94.12,187.7 -92.44,1.23 -214.01,-17.98 -296.15,13.16zm851.56 -2861.71c-152.62,68.94 -25.16,15.75 -162.27,27.41 -72.23,6.14 -101.41,8.63 -158.56,15.4 -142.46,16.88 -219.95,15.37 -316.98,100.87 -51.7,125.3 -31.01,168.96 -32.13,280.62 -0.71,70.75 -7.84,70.16 7.5,135.21 26.68,113.12 45.04,46.86 50.48,165.73 -53.25,97.72 -18.08,649.25 -21.96,770.28 259.13,64.1 579.23,55.31 834.64,203.54l103.91 -25.22c-56.22,-216.11 -5.09,-1435.28 -25.76,-1548.42 -19.41,-106.22 16.85,-29.2 -49.18,-106.76 -111.03,-5.58 -126.53,10.04 -229.68,-18.66zm-1341.5 -188.86c-35.16,53.44 -4.88,10.53 -46.97,38.79 -22.18,14.88 -31.13,20.9 -48.28,33.42 -42.74,31.22 -68.22,44 -81.88,94.36 9.38,58.18 25.23,71.77 48.19,115.85 14.55,27.93 12.11,28.93 30.68,51.86 32.3,39.86 24.41,10.65 51.02,56.43 3.12,47.6 129.76,258.33 153.79,306.58 97.55,-19.53 199.68,-78.24 313.6,-64.06l28.48 -27.85c-63.41,-75.25 -301.5,-563.32 -331.85,-604.22 -28.49,-38.4 -0.63,-14.39 -38.28,-33.47 -37.23,16.97 -39,25.79 -78.49,32.31zm-0.76 -850.39c149.25,-94.52 283.16,-153.45 487.46,-145.34l3.47 -219.65c-259.94,9.35 -421.58,158.71 -490.93,364.99z"/>
  <path class="fil0" d="M4926.11 2831.33l-19.63 26.26c-1.9,2.39 -4.35,5.64 -6.32,8.02l-62.75 58.97c-34.8,29.93 -3.31,-1.12 -31.44,28.49 -44.63,22.48 -78.3,91.73 -124.1,98.67l-64.48 45.73c-24.08,26.65 -15.46,25.33 -39.84,53.85 -83.25,97.38 -124.01,113.12 -195.21,182.95 -42.27,41.46 -38.69,56.34 -93.07,97.24l-81.05 -56.57c-67.25,58.38 -37.01,27.48 -45.05,84.77 -10.24,72.98 -34.49,35.75 -86.3,56.07 -85.27,33.45 28.6,26.76 -40.88,93.57 -49.2,47.3 -26.2,-14.61 -96.59,25.28 3.8,65.07 33.78,67.49 30.83,147.18 -3.02,81.32 -40.88,75.78 -20.04,135.77 73.62,31.74 31.47,-37.78 90.65,18.77 55.05,52.6 -2.69,26.29 17.65,88.94 62.15,29.45 73.59,-33.58 102.88,32.86 19.14,43.43 -4.04,83.97 43.02,95.56 32.84,32.32 -14.3,12.17 21.24,5.23 31.22,-6.1 13.35,-19.44 63.64,-44.1 50.75,25.96 135.18,135.68 226.92,212.72 1.85,1.56 7.19,9.37 8.55,6.84 1.38,-2.56 5.7,4.74 8.71,6.9l32.4 36.19 76.94 69.47c70.27,52.06 117.54,109.54 186.9,173.07l1907.19 1770.08c146.87,154.88 427.44,384.23 579.99,542.2 113.67,117.71 359.03,226.89 137.43,447.06 -181.62,180.44 -253.17,242.96 -438.85,30.07 -300.15,-344.12 -751.47,-790.24 -1069.73,-1147.25 -233.64,-262.09 -470.27,-501.13 -711,-762.59l-705.93 -769c-2.89,-3.04 -7.46,-11.39 -9.04,-8.74 -1.55,2.58 -6.68,-6.52 -8.77,-8.55l-36.92 -36.11c-17.29,-18.16 -26.33,-29.96 -43.52,-49.87l-98 -101.48 -73.44 -78.63c-27.29,-30.61 -40.84,-56.46 -83.08,-80.83l-56.26 -69c26.41,-57.28 30.6,-26.74 51.88,-83.08 -60.33,-87.17 -53.06,-27.74 -124.63,-59.36 -50.71,-97.83 26.13,2.46 -7.36,-94.74 -36.78,-11.19 -47.78,-0.52 -84.06,2.31 -50.41,-97.62 4.06,-46.29 -35.42,-127.52 -83.06,-0.34 -81.92,30.62 -158.21,33.71 -80.73,3.28 -73.74,-37.04 -142.81,-18.72 -27.22,92.85 27.1,16.7 -11.36,99.81l-9.79 27.88c-110.87,-16.6 -50.62,-26.22 -132.53,-80.49l28.19 -78.14c112.83,-35.28 20.86,31.06 96.95,-24.22 -67.05,-128.39 -6.33,-214.9 -0.88,-251.85 -67.69,-20.9 -126.45,6.03 -117.88,-74.5 1.44,-13.5 31.84,-60.93 36.67,-65.39 37.53,-34.7 24.74,-26.48 89.31,-30.52l8.22 28.47c34.78,81.28 -17.79,4.63 11.18,101.13 76.52,15.12 68.73,-35.64 158.1,-25.2 81.78,9.56 62.22,51.2 148.9,28.91 16.46,-52.98 -30.68,-103.24 40.32,-116.67l37.74 0.03c21.89,-2.44 20.13,-4.81 44.31,-15.44 -11.16,-47.98 -2.35,-19.05 -27.07,-59.53 83.6,-41.4 15.89,-31.59 73.78,-26.48 55.69,4.92 32.47,-1.75 87.78,-38.78 -10.55,-67.77 -4.32,-63.12 -54.36,-94.57 33.46,-25.83 47.14,-56.92 71.52,-91.83 25.32,-36.26 52.2,-55.77 77.31,-84.08 62.32,-70.25 136.21,-126.24 164.49,-180.37 43.19,-35.96 78.35,-86.57 119.04,-131.13l128.73 -135.52c25.87,-28.15 113.7,-113.37 126.12,-144.39 51.19,-47.25 29.07,-44.99 98.83,-95.1l38.89 -30.22c0.07,-0.28 773.31,-862.05 925.92,-1006.91l625.66 -672.19c51.2,-57.94 106.07,-108.9 157.34,-167.11 69.27,-78.64 435.43,-477.89 477.28,-496.72 120.41,-54.2 180.63,20.09 232.27,73.6 150.9,156.35 261.38,211.08 75.24,396.83l-503.4 469.81c-117.39,102.56 -217.19,209.33 -334.77,314.12 -62.77,55.94 -101.77,93.11 -167.56,156.88l-507.35 466.29c-322.19,288.26 -680.99,651.89 -1006.17,934.91z"/>
  <path class="fil2" d="M3776.56 1680.64c11.57,23.39 5.14,51.46 5.11,76.28 -0.02,13.3 -0.59,26.61 -0.67,39.87 -0.21,32.9 -6.01,32.83 69.47,34.06 92.5,1.52 125.54,7.73 205.02,18.73 80.79,11.19 168.77,22.5 185.32,64.99 6.6,16.95 12.08,33.57 16.62,50.07 31.35,-1.44 57.11,-2.37 104.38,-4.08 93.77,-3.38 43.15,8.25 85.38,0.34l0 192.04 -514.49 0c-12.4,-22.63 -6.46,-22.79 -5.86,-48.13 0.96,-40.59 -16.77,-56.46 27.53,-101.99 83.14,-31.07 149.54,-30.53 271.6,-36.66 48.96,-2.46 73.97,-3.36 135.85,-5.59 93.77,-3.38 43.15,8.25 85.38,0.34l0 -86.2 -91.27 -129.98c-18.59,-23.58 -146.51,-169.02 -165.96,-175.25 -55.08,-2.75 -62.53,-8.73 -108.14,-16.94 -7.05,-1.27 -97.83,-10.66 -33.74,-11.79 0,47.53 33.06,57.94 59.74,125.55 8.02,20.31 17.62,11.2 21.34,41.46 -82.36,-1.79 -36.51,-3.95 -96.76,-9.83 -109.12,-10.65 -230.72,-14.56 -255.84,-17.29zm149.17 439.42c-48.77,-1.17 -79.38,-4.48 -144.06,-4.48l0 32.45 -498.88 0c9.91,-44.39 -15.72,-102.64 28.17,-124.07 2.67,17.3 111.18,93.9 131.76,111.43 83.58,-7.1 171.09,-28.43 268.7,-23.28l64.43 -4.79 0.24 -119.07c4.32,-11.34 0.59,-7.65 11.83,-13.78 29.62,29.1 95.19,70.12 137.68,106.4 0.74,7.16 1.45,14.94 1.24,23.94 -0.15,6.45 -0.65,11.27 -1.1,15.24 -48.77,-1.17 -79.38,-4.48 -144.06,-4.48l0 32.45 71.22 0 11.58 4.91 68.22 0c-9.25,-16.87 -8.3,-21.25 -6.97,-32.89zm-157.28 -600c25.94,37.67 9.56,118 8.11,160.58 25.12,2.73 146.73,6.64 255.84,17.29 60.25,5.87 14.41,8.03 96.76,9.83 -3.71,-30.26 -13.32,-21.15 -21.34,-41.46 -25.23,-63.95 -56.18,-76.74 -59.46,-118.15 -0.19,-2.37 -0.29,-4.83 -0.29,-7.4 -38.42,0.67 -21.2,4.32 0.29,7.4 14.36,2.06 30.62,3.88 33.45,4.39 45.61,8.2 53.06,14.19 108.14,16.94 -24.59,-31.34 -53.72,-51.76 -99.28,-71.37 -26.25,-11.3 -106.54,-43.32 -158.82,-40.94l-48.7 -4.16c45.56,17.35 109.48,39.18 131.19,78.51 -86.61,-2.45 -138.1,-14.11 -245.91,-11.45zm-417.01 361.9c33.84,-2.37 35.36,-5.58 67.25,-11.75 39.48,-12.55 190.77,-34 232.31,-36.43l122.32 -1.26c12.18,20.73 114.91,101.15 197.36,164.53 75.86,-25.26 141.3,-25.17 255.27,-30.89 11.56,-0.58 21.79,-1.07 31.47,-1.52 -4.55,-16.51 -10.02,-33.12 -16.62,-50.07 -16.55,-42.49 -104.53,-53.8 -185.32,-64.99 -79.48,-11 -112.52,-17.21 -205.02,-18.73 -75.48,-1.24 -69.68,-1.16 -69.47,-34.06 0.08,-13.26 0.65,-26.57 0.67,-39.87 0.03,-24.82 6.46,-52.89 -5.11,-76.28 -135.74,-4.87 -274.06,32.58 -322.53,60.1 -58.46,33.18 -144.7,122.28 -102.59,141.22zm-0.65 -309.08c-82.04,78.71 -187.6,197.76 -250.81,295.72l0 130.88c31.02,-22.13 66.88,-41.51 99.69,-56.97 11.7,-18.3 33.53,-22.95 70.15,-34.3 14.7,-4.55 22.37,-6.74 41.37,-12.15 36.07,-10.27 10.12,5.33 40.25,-14.09 -42.11,-18.95 44.13,-108.04 102.59,-141.22 48.47,-27.52 186.79,-64.97 322.53,-60.1 1.45,-42.58 17.83,-122.91 -8.11,-160.58 -175.05,-2.95 -289.78,18.47 -417.66,52.82zm-68 575.15c9.91,-44.39 -15.72,-102.64 28.17,-124.07 -22.79,-16.64 -16.04,-6.02 -43.71,-20.51 -15.91,-8.33 -13.82,-8.7 -26.29,-18.85 -19.67,-16.02 -33.25,-20.97 -41.29,-42.11 -32.81,15.46 -68.67,34.84 -99.69,56.97l0 148.56 182.81 0zm505.13 -173.55c29.62,29.1 95.19,70.12 137.68,106.4 -2.61,-25.14 -5.71,-42.61 28.77,-78.06 5.51,-2.06 10.94,-3.98 16.32,-5.77 -82.46,-63.38 -185.19,-143.8 -197.36,-164.53l-122.32 1.26c-17.79,2.72 -20.75,7.63 -30.44,11.57 14.93,17.63 56.4,48.43 76.86,64.78 26.24,20.98 68.48,43.03 90.5,64.35zm-19.47 -454.42c107.81,-2.66 159.3,9 245.91,11.45 -21.71,-39.32 -85.63,-61.16 -131.19,-78.51l48.7 4.16c-37.98,-16.12 -101.35,-16.85 -160.44,-16.94l-2.97 79.84zm-349.76 350.16c32.26,6.94 8.38,-1.79 32.8,12.17 26.01,14.87 230,192.26 284.33,219.61l-24.4 10.12 64.43 -4.79 0.24 -119.07c4.32,-11.34 0.59,-7.65 11.83,-13.78 -22.02,-21.31 -64.26,-43.37 -90.5,-64.35 -20.46,-16.35 -61.92,-47.15 -76.86,-64.78 9.69,-3.94 12.65,-8.85 30.44,-11.57 -41.54,2.43 -192.83,23.88 -232.31,36.43zm-67.25 11.75c-30.13,19.43 -4.18,3.83 -40.25,14.09 -19,5.41 -26.67,7.6 -41.37,12.15 -36.62,11.35 -58.45,16 -70.15,34.3 8.04,21.14 21.61,26.09 41.29,42.11 12.47,10.15 10.38,10.52 26.29,18.85 27.67,14.49 20.92,3.87 43.71,20.51 2.67,17.3 111.18,93.9 131.76,111.43 83.58,-7.1 171.09,-28.43 268.7,-23.28l24.4 -10.12c-54.33,-27.35 -258.33,-204.74 -284.33,-219.61 -24.41,-13.96 -0.54,-5.23 -32.8,-12.17 -31.9,6.17 -33.41,9.37 -67.25,11.75zm-0.65 -309.08c127.88,-34.36 242.61,-55.77 417.66,-52.82l2.97 -79.84c-222.72,3.4 -361.21,57.69 -420.63,132.66z"/>
 </g>
</svg>
