<?xml version="1.0" encoding="UTF-8"?>
<!DOCTYPE svg PUBLIC "-//W3C//DTD SVG 1.1//EN" "http://www.w3.org/Graphics/SVG/1.1/DTD/svg11.dtd">
<!-- Creator: CorelDRAW 2018 (64-Bit) -->
<svg xmlns="http://www.w3.org/2000/svg" xml:space="preserve" width="11.6929in" height="8.26772in" version="1.1" style="shape-rendering:geometricPrecision; text-rendering:geometricPrecision; image-rendering:optimizeQuality; fill-rule:evenodd; clip-rule:evenodd"
viewBox="0 0 11692.91 8267.72"
 xmlns:xlink="http://www.w3.org/1999/xlink">
 <defs>
  <style type="text/css">
   <![CDATA[
    .str1 {stroke:#2F302C;stroke-width:3;stroke-miterlimit:2.61313}
    .str0 {stroke:#346C8E;stroke-width:3;stroke-miterlimit:2.61313}
    .fil14 {fill:#FFED00}
    .fil36 {fill:#746C19}
    .fil27 {fill:#1C5DA0}
    .fil32 {fill:#275768}
    .fil2 {fill:#281603}
    .fil20 {fill:#2C374A}
    .fil1 {fill:#2F302C}
    .fil0 {fill:#346C8E}
    .fil30 {fill:#499CEC}
    .fil3 {fill:#546D0A}
    .fil21 {fill:#583816}
    .fil22 {fill:#5A95B6}
    .fil37 {fill:#6F7071}
    .fil16 {fill:#704E10}
    .fil34 {fill:#720D0B}
    .fil18 {fill:#746C4D}
    .fil23 {fill:#8B734F}
    .fil9 {fill:#8BC6E8}
    .fil10 {fill:#8E9092}
    .fil7 {fill:#8F374A}
    .fil25 {fill:#90AFC9}
    .fil11 {fill:#926D0A}
    .fil5 {fill:#92AE50}
    .fil6 {fill:#99A629}
    .fil13 {fill:#AB3312}
    .fil35 {fill:#AB7606}
    .fil33 {fill:#AD956D}
    .fil4 {fill:#B38B0C}
    .fil26 {fill:#B4C6D4}
    .fil31 {fill:#CAA84C}
    .fil28 {fill:#CB4F33}
    .fil15 {fill:#CD920B}
    .fil24 {fill:#CDD0D1}
    .fil17 {fill:#D36B4E}
    .fil29 {fill:#D5E4EE}
    .fil8 {fill:#DDD39A}
    .fil19 {fill:#E99655}
    .fil12 {fill:#F35A63}
   ]]>
  </style>
 </defs>
 <g id="Layer_x0020_1">
  <metadata id="CorelCorpID_0Corel-Layer"/>
  <path class="fil0" d="M4623.42 2746.39l186.18 -27.31 9.92 -47.15c-68.19,-4.89 -151.18,36.81 -196.1,74.46z"/>
  <polygon class="fil1" points="4770.41,7162.59 4815.63,7155.02 4818.03,7115.41 4793.67,7097.55 4749.4,7074.68 "/>
  <path class="fil2" d="M3552.36 4807.04l83.47 -119.16 -2.53 -35c-69.15,50.08 -74.54,69.7 -80.94,154.16z"/>
  <path class="fil3" d="M5860.98 5912.4l-2.13 -55.59c-82.8,-9.53 -160.88,-28.67 -210.74,35.12 39.42,33.11 -18.06,29 86.87,33.26 27.24,1.11 94.38,-9.75 126.01,-12.8z"/>
  <path class="fil3" d="M5442.16 2898.07c81.7,13.47 53.7,5.41 120.15,39.19 7.61,3.87 53.67,27.06 58.24,28.05 108,23.04 21.16,7.22 51.49,-8.61l-187.15 -91.03 -45.94 2.18 3.2 30.21z"/>
  <path class="fil3" d="M4901.62 4802.5l58.67 5.53 -15.21 -82.18 -17.31 -8.85c-53.28,7.74 -21.19,-22.43 -52.71,17.16l26.56 68.34z"/>
  <path class="fil4" d="M4598.94 4264.74l77.36 -11.61c-2.45,-49.91 50.95,-55.11 94.88,-66.3 -74.04,-33.61 -36.69,9.75 -107.38,-42.27l43.8 -11.39 -5.88 -70.22 -35.52 -8.39c1.17,28.33 -55.17,134.76 -67.27,210.17z"/>
  <path class="fil4" d="M3641.09 4959.54l149.57 -45.37 38.97 84.26 -25.25 -242.29c-70.5,33.22 -38.35,37.9 -53.95,136.77 -66.6,31.72 -64.56,15.68 -109.33,66.63z"/>
  <path class="fil5" d="M7602.4 5030.8c167.11,-40.53 -35.32,-65.16 157.33,-40.73l34.7 -68.04 -53.43 -33.29 -70.94 -18.58c-46.58,61.91 -58.41,71.98 -67.67,160.63z"/>
  <path class="fil6" d="M7067.37 4410.44l-116.26 -75.85 -34.25 -3.15c17.24,33.76 8.98,46.78 53.48,77.42 97.65,67.19 90.81,5.73 97.04,1.59z"/>
  <polygon class="fil7" points="6468.17,2995.45 6504.14,3000.51 6565.06,2979.87 6532.36,2956.98 6551.98,2909.9 "/>
  <path class="fil8" d="M7143.92 7215.15l231.89 -82.65 16.77 -53.98c-126.97,7.89 -176.56,8.14 -270.27,93.69l21.61 42.94z"/>
  <path class="fil8" d="M5060.32 7163.75c-20.56,-70.87 13.79,-15.18 -47.11,-66.57l-93.14 -2.35 -51.27 35.27c78.13,36.46 107.01,48.3 191.52,33.66z"/>
  <path class="fil9" d="M5374.87 2800.29l-5.53 151.41 64.44 42.57c-34.87,-90.64 -17.09,-30.81 6.8,-46.36l1.59 -49.83 -3.2 -30.21 45.94 -2.18 14.56 -42.12 27.88 -69.83 -76.92 -31.9 24.63 26.3 -100.19 52.16z"/>
  <path class="fil0" d="M4666.2 4054.57l35.52 8.39 5.88 70.22c69.58,18.08 151.33,29.62 190.45,-39.46l-65.16 12.57c-74.04,-93.61 -69.38,-95.4 -192.61,-143.54l-4.46 40.98 30.39 50.85z"/>
  <path class="fil3" d="M4902.99 4979.43c53.68,57.3 90.14,62.95 170.46,40.23 38.92,-91.5 20.86,-162.05 16.94,-260.62l-36.91 -13.69 -16.22 33.44 -7.64 197.52c-113.68,23.71 -43.8,-48.09 -126.63,3.13z"/>
  <path class="fil3" d="M6457.41 6693.24c23.29,48.49 -45.37,81.08 56.95,17.83l25.92 -116.76c-74.04,12.28 -38.84,18.88 -82.87,98.92z"/>
  <path class="fil10" d="M7143.92 7215.15l-32.2 86.61 43.76 1.12c40.9,-83.49 206.99,-122.81 303.06,-116.48l0 -34.31 -8.06 -48.72 -57.89 -24.85 -16.77 53.98 -231.89 82.65z"/>
  <path class="fil11" d="M4200.13 5050.57l76.62 -66.75c22.74,-86.87 27.28,-84.46 82.03,-151.68l120.55 22.5 41.6 -16.96c-81.53,-56.76 -68.93,-77.69 -171.28,-85.8 -102.31,70.81 -121.49,179.09 -149.52,298.69z"/>
  <polygon class="fil11" points="3633.3,4652.88 3635.83,4687.88 3705.48,4589.87 "/>
  <path class="fil12" d="M7462.87 3568.73l93.52 -82.94 60.25 27.76c-10.52,-88.8 -14.31,-69.65 29.2,-144.09 4.09,4.34 9.5,5.38 10.67,14.36l32.94 139.18 3.4 -142.77 80.71 -2.11c-26.72,-48.19 -83.24,-128.56 -126.01,-137.17l-47.77 -4.34c9.77,113.65 -74.59,250.08 -136.9,332.13z"/>
  <path class="fil12" d="M7139.8 3064.01l-72.01 -2.46c10.59,121.35 -6.6,154.95 101.85,208.06 69.48,-116.63 45.09,-121.17 -29.84,-205.6z"/>
  <polygon class="fil13" points="7644.12,4764.43 7643.5,4830.68 7708.51,4838.91 7703.23,4765.27 7662.18,4725.41 "/>
  <path class="fil1" d="M6827.88 7268.48c59.16,54.3 191.37,28.87 279.94,24.46l3.89 8.83 32.2 -86.61 -21.61 -42.94c93.71,-85.55 143.3,-85.8 270.27,-93.69l-5.98 -53.48c-73.47,12.33 -192.61,19 -250.15,53.8 -87.33,52.76 -64.39,104.26 -85.3,183.46l-223.26 6.17z"/>
  <path class="fil14" d="M5334.54 1693.39l98.42 3.07c61,-9.3 69.26,-26.39 116.83,-67.07 -2.43,-59.95 1.76,-52.31 -18.85,-108.37 -27.86,-75.83 -23.46,-64.17 -67.39,-99.44 -7.22,145.67 -132.19,77.46 -13.79,245.02l-115.22 26.79z"/>
  <path class="fil14" d="M7902.91 4912.56c70.39,-81.41 81.93,-98.3 72.16,-215.57 -12.68,-151.68 -26.05,-103.04 -100.26,-178.47l28.1 394.04z"/>
  <path class="fil15" d="M4040.56 5156.83l86.15 -43.06c-105.67,-170.28 -23.61,-125.36 -67.37,-294.53l-18.78 -39.71c-124.42,129.75 7.61,256 0,377.3z"/>
  <path class="fil15" d="M5338.35 1794.84l99.91 7.84c-0.99,-78.91 18.58,-35.22 -28.03,-77.39l-69.92 6.37 -1.96 63.18z"/>
  <path class="fil16" d="M3710.37 4568.87c39.12,-227.88 49.96,-479.96 160.91,-677.33l-4.61 -52.19 -62.28 -19.5c0.12,177.55 -47.53,202.73 -72.46,344.44 -9,51.24 -22.87,74.69 -35.54,149.44 -13.15,77.66 -17.83,99.84 -18.18,192.26 1.59,113.68 -4.49,26.64 32.17,62.88z"/>
  <path class="fil16" d="M3641.09 4959.54l-67.74 -12.92c51.07,91.38 1.27,54.62 63,48.22l123.68 -12.15c66.37,100.41 -9.18,64.17 75.65,117.5l-10.1 -82.48 4.04 -19.27 -38.97 -84.26 -149.57 45.37z"/>
  <path class="fil12" d="M4782.04 4704.15c83.46,-23.84 82.22,-52.74 145.72,12.85l17.31 8.85c68.69,15.15 32.37,-9.8 56.46,35.3l22.15 -66.55 -265.48 -86.42 -3.85 -74.59c-48.54,65.81 8.33,23.17 -45.84,101.08 -59.85,-92.07 -79.82,-120.5 -57.82,-255.59l121.59 -52.63 -136.7 8.14c-32,70.12 -64.46,152.07 -23.46,225.92 5.39,9.65 52.26,71.04 62.85,83.76 50.26,60.35 39.52,27.61 107.06,59.88z"/>
  <path class="fil17" d="M6135.37 3225.78c37.6,43.28 120.7,7.56 168.65,0.82l6.5 -66.53c-120.28,-69.82 -113.73,-48.74 -199,18.85l23.86 46.86z"/>
  <path class="fil17" d="M4676.3 4253.13c67.05,32.15 53.78,24.91 115.24,-0.17 38.77,-66.9 29.37,-9.94 8.41,-65.58l-28.77 -0.54c-43.93,11.19 -97.33,16.39 -94.88,66.3z"/>
  <path class="fil7" d="M6999.6 3110.84c43.19,78.06 94.85,177.52 102,264.79l103.88 -22.28c55.29,-102.04 104,-155.13 30.61,-283.17 -66.97,62.58 17.54,31 -96.29,-6.18 74.93,84.43 99.31,88.97 29.84,205.6 -108.44,-53.11 -91.26,-86.71 -101.85,-208.06l-74.76 0.94 6.57 48.34z"/>
  <path class="fil18" d="M3636.35 4994.83c45.37,49.24 -26.99,29.94 101.4,39.67 18.31,99.91 99.34,168.62 189.93,206.2l-9.8 -48.91c135.28,9.67 62.83,2.88 95.87,41.89 133.77,-65.06 242.44,-88.03 263,-249.85l-76.62 66.75c-26.61,49.61 -14.21,37.33 -73.42,63.2l-86.15 43.06c-149.4,89.3 -174.8,-57.03 -214.98,-139.13l10.1 82.48c-84.83,-53.33 -9.28,-17.09 -75.65,-117.5l-123.68 12.15z"/>
  <path class="fil1" d="M4749.4 7074.68l44.28 22.87 -10.61 -110.9 80.69 6.9c-34.01,-31.75 -79.18,-21.09 -135.33,-23l20.98 104.13z"/>
  <path class="fil5" d="M5484.9 2865.67l187.15 91.03c-30.33,15.83 56.5,31.65 -51.49,8.61 -4.57,-0.99 -50.63,-24.19 -58.24,-28.05 -66.45,-33.79 -38.45,-25.72 -120.15,-39.19l-1.59 49.83c56.41,42.52 105.17,80.54 171.35,86.62l141.06 -42.69 32.69 -31.85c-60.22,-73.89 -36.64,-62.14 -123.67,-104.35 -70.82,-34.33 -103.91,-51.12 -162.54,-32.07l-14.56 42.12z"/>
  <polygon class="fil5" points="7779.78,4949.66 7758.37,5042.93 7880.24,5091.52 8001.9,5044.12 8001.9,5002.94 7897.97,5005.89 7902.78,4931.8 7891.37,4931.8 7858.06,4967.87 "/>
  <path class="fil5" d="M4782.04 4704.15l-22.87 73.67c-92.72,1.19 -65.41,32.35 -74.79,-55.24l-31.23 -0.8 -3.59 66.06 36.96 23.64 64 -31.15 81.65 63.06c71.04,-87.51 18.19,-27.04 69.45,-40.88l-26.56 -68.34c31.52,-39.59 -0.57,-9.43 52.71,-17.16 -63.5,-65.59 -62.26,-36.69 -145.72,-12.85z"/>
  <path class="fil14" d="M4920.08 7094.82l93.14 2.35c67.94,-54.39 59.48,-36.06 138.36,-71.58l-200.84 -25.23c-56.23,55.74 -64,32.64 -106.29,100.43l75.63 -5.98z"/>
  <path class="fil13" d="M4653.16 4721.78l31.23 0.8 97.66 -18.43c-67.54,-32.27 -56.8,0.47 -107.06,-59.88 -10.59,-12.72 -57.47,-74.11 -62.85,-83.76 -41,-73.84 -8.53,-155.8 23.46,-225.92l136.7 -8.14 54.25 -19.52 9.08 -60.92 -44.07 6.94c-61.47,25.08 -48.2,32.32 -115.24,0.17l-77.36 11.61c-112.94,253.67 -79.82,254.24 54.22,457.04z"/>
  <path class="fil13" d="M5859.22 5788.07l0 7 55.74 25.3c26.69,72.11 14.98,63.52 82.38,109.31l-117.28 9.85 -24.43 9.03 63.89 15c-109.24,12.85 -33.19,5.11 -70.74,33.04l255.04 -0.54 70.49 7.71 33.31 -71.44 65.98 -54.27c41.15,-82.52 17.19,-26.29 72.48,-49.19 -140.54,0.47 -127.87,43.31 -231.3,87.09 -117.57,-39.02 -132.21,-104.55 -214.41,-176.01l7.61 49.91 -48.77 -1.79z"/>
  <path class="fil13" d="M6430.19 6055c-39.83,50.4 -20.41,45.94 -84.61,55.22 -32.62,34.95 -53.01,21.2 -116.28,26.67l14.78 46.51c112.29,31.43 74.79,28 185.29,-9.8l9.38 -11.29c28.55,-69.23 56.48,-145.35 33.21,-217.46 -15.95,80.79 -0.55,46.93 -41.77,110.16z"/>
  <path class="fil19" d="M6207.63 5932.34c-25.5,122.54 -20.89,222.25 137.96,177.87 64.19,-9.28 44.77,-4.81 84.61,-55.22 0.85,-160.76 6.92,-171.35 -156.59,-176.93l-65.98 54.27z"/>
  <path class="fil19" d="M7541.26 4322.68c-61.17,85.45 -21.45,141.88 64.47,171.3l76.42 -50.82c-3.15,-74.89 -0.05,-90.29 -62.43,-133.97l-78.46 13.49z"/>
  <path class="fil19" d="M7689.44 3522.99l63.1 61.84c23.54,-9.82 12.7,8.43 34.67,-31.35 1.34,-2.38 21.36,-59.13 22.22,-63.89 12.55,-68.66 7.47,-74.17 -35.89,-111.47l-80.71 2.11 -3.4 142.77z"/>
  <path class="fil19" d="M4224.49 3795.67c130.17,-58.99 -77.94,-112.49 -152.7,-104.55 -62.53,14.69 -52.56,5.9 -81.43,54.72l234.13 49.83z"/>
  <polygon class="fil19" points="7692.46,3795.27 7815.54,3801.34 7817.01,3747.2 7794.56,3718.57 7718.24,3713.04 "/>
  <path class="fil5" d="M5858.85 5856.81l2.13 55.59 19.07 27.13 117.28 -9.85c-67.39,-45.79 -55.69,-37.2 -82.38,-109.31l-55.74 -25.3 -0.37 61.74z"/>
  <path class="fil5" d="M4901.62 4802.5c-51.27,13.84 1.59,-46.63 -69.45,40.88l-81.65 -63.06 -64 31.15 -165.59 26.2 -41.6 16.96c36.44,64.04 203.42,-11.66 292.94,-16.3l130.72 141.09c82.82,-51.22 12.95,20.59 126.63,-3.13l7.64 -197.52 -35.72 -17.64c-24.09,-45.09 12.23,-20.14 -56.46,-35.3l15.21 82.18 -58.67 -5.53z"/>
  <path class="fil5" d="M5855.63 5948.56l24.43 -9.03 -19.07 -27.13c-31.63,3.05 -98.77,13.91 -126.01,12.8 -104.92,-4.27 -47.45,-0.15 -86.87,-33.26 49.86,-63.8 127.94,-44.65 210.74,-35.12l0.37 -61.74 0 -7 -19.52 -1.93c-69.45,-18.45 -136.67,-17.61 -209.05,-14.83 -27.68,1.07 -83.99,4.22 -109.93,12.63 -98.13,31.8 -37.93,12.93 -68.93,47.5 170.21,207.74 372.49,118.59 403.84,117.13z"/>
  <path class="fil1" d="M6471.49 7568.17l15.58 -23 -38.02 -33.31 27.46 -248.56c74.29,-5.46 130.1,4.02 181.81,44.89l118.86 -1.83c53.65,6.15 100.48,17.66 156.12,20.51 19.79,1.02 67.04,1.44 85.57,-0.99 102.52,-13.49 35.89,5.38 88.95,-32.94 -88.58,4.42 -220.78,29.84 -279.94,-24.46 -98.45,9.9 -225.15,-30.81 -313.03,-76.1l-2.01 -131.86 -20.34 0c-62.58,55.46 -118.09,420.81 -90.39,496.86l69.38 10.79z"/>
  <path class="fil0" d="M3888.36 3538.94c84.48,-37.75 190.15,-37.11 277.29,-37.75 78.35,-0.57 39.98,13.39 122.13,22.07 66.9,7.05 94.61,-17.88 137.64,27.78 82.15,2.83 146.67,34.53 202.45,80.19l85.9 14.58 17.31 -40.45c-123.08,-51.59 -192.93,-102.72 -336.65,-122.51l-385.63 -32.44 2.93 -57.59c-45.44,29.59 -35.5,18.83 -78.65,67.12 -46.71,52.24 -28,18.5 -44.72,79z"/>
  <path class="fil20" d="M7794.56 7852.99c-252.93,104.35 -1127.81,-8.31 -1319.37,-196.97l-84.28 -21.23c155.2,225.15 1332.86,426.79 1403.65,218.2z"/>
  <path class="fil20" d="M6532.74 1376.74c58.89,29.71 50.38,38.15 81.88,-19.57 -91.45,-76.05 -59.93,-2.36 -81.88,19.57z"/>
  <path class="fil20" d="M5954 1401.15c72.95,40.19 3.22,48.99 82.18,-2.43 -70.54,-90.66 -61.74,-8.36 -82.18,2.43z"/>
  <path class="fil13" d="M3910.54 3811.69c260.2,-2.7 509.78,74.63 725.28,192.04l4.46 -40.98 -57.1 -36.09c-54,-35.42 -73.37,-43.83 -144.69,-65.26l-125.44 -42.17 -88.57 -23.56 -234.13 -49.83c28.87,-48.81 18.9,-40.03 81.43,-54.72 81.43,-67.87 59.38,-11.16 134.46,-77.94l23.07 -10.47c-37.73,-52.83 52.26,-51.59 -49.24,-39.91 -79.1,93.46 -90.54,47.63 -171.65,98.13l-153.17 116.28 55.26 34.48z"/>
  <path class="fil13" d="M7794.44 4922.03l-14.66 27.63 78.28 18.21 33.31 -36.07 -6.4 -56.35c-133.1,48.39 -94.56,-20.22 -143.96,13.3l53.43 33.29z"/>
  <path class="fil21" d="M4782.04 4704.15l-97.66 18.43c9.38,87.59 -17.93,56.43 74.79,55.24l22.87 -73.67z"/>
  <path class="fil21" d="M3927.68 5240.69l19.25 33.06 53.38 -33.86 13.44 -6.22c-33.04,-39.02 39.41,-32.22 -95.87,-41.89l9.8 48.91z"/>
  <path class="fil0" d="M6724.92 2982.35c50.45,50.43 19.72,16.17 78.63,54.32 -31.06,71.78 -25.67,13.89 -78.46,91.33l70.05 -5.91c37.08,117.67 14.33,179.81 116.58,183.85l15.08 -92.35c-8.06,-38.35 -8.91,-69.92 -26.07,-102.31 -52.29,-98.75 -45.07,18.6 -51.09,-95.72 76.1,-50.33 91.5,3.77 149.96,95.27l-6.57 -48.34c57.74,-47.03 29.3,0.77 80.34,-60.33 -152.65,5.14 -111.52,-100.61 -125.74,-239.39 -38.05,-44.5 -29.04,-35.94 -95.92,-41.99l-3.99 27.8c67.39,143.17 42.04,207.42 -122.81,233.76z"/>
  <path class="fil0" d="M4994.42 3757.61c60.52,-5.78 25.03,-29.22 56.8,5.19l-26.12 89.62 -50.1 -0.2c1.21,87.59 -35.97,101.52 -58.46,199.2 70.84,-62.83 30.14,-82.25 88.33,-129.98 49.61,-40.68 78.95,-17.36 141.06,-77.76l-82.52 15.68c4.79,-148.85 208.53,-464.81 148.03,-566.19 -88.33,25.94 -210.37,403.74 -217.01,464.44z"/>
  <path class="fil0" d="M5067.12 3042.83l3.45 106.19 81.88 -88.23c23.84,44.28 8.41,-2.33 20.98,56.8 0.15,0.69 0.47,52.96 0.59,59.35l47.78 -1.76 54 -119.38 50.08 14.14c-48.15,-94.68 -37.93,-30.14 -116.63,-94.75 -83.49,-68.54 -1.69,-57.05 -108.17,-89.54 32.96,92.92 30.56,88.52 -33.96,157.19z"/>
  <path class="fil0" d="M7101.6 3375.63c24.63,89.22 149.37,196.2 231.97,238.5l-0.92 -46.04 66.65 -21.46 -4.71 -22.3 -54.94 8.39c-59.43,-56.9 -138.53,-97.85 -134.17,-179.36l-103.88 22.28z"/>
  <path class="fil0" d="M6253.41 3285.76l-265.98 -2.16 42.12 192.58c9.67,38.2 9.8,26.05 24.65,49.07 45.39,-62.93 41.89,-116.91 45.69,-199.78 84.48,-8.76 89.12,0.15 153.52,-39.71z"/>
  <path class="fil22" d="M6487.07 7545.17l24.41 4.07c-41.77,-98.33 -41.05,-166.41 20.89,-251.24l125.96 10.19c-51.72,-40.88 -107.53,-50.35 -181.81,-44.89l-27.46 248.56 38.02 33.31z"/>
  <path class="fil0" d="M5106.33 2884.9c-38.07,-24.31 -46.33,-24.78 -74.56,-48.44 -66.82,-55.98 35.2,-4.61 -63.6,-50.93l10.2 50.8 -99.07 83.84c109.66,21.65 96.96,-28.57 227.04,-35.27z"/>
  <polygon class="fil23" points="5001.54,4761.15 5037.25,4778.79 5053.48,4745.35 5090.39,4759.04 5101.17,4698.54 5023.69,4694.6 "/>
  <path class="fil16" d="M7831.15 3886.35c72.8,71.24 123.78,443.57 162.25,570.08 39.21,128.96 157.41,467.31 8.51,546.52l0 41.17 -2.83 28.77c224.38,-56.83 132.19,-433.46 76.7,-596.25 -70.05,-205.6 -123.38,-421.62 -162.32,-635.69l-78.76 -28.13 -3.55 73.52z"/>
  <path class="fil3" d="M6793.11 4295.82c-119.28,12.63 -264.44,53.43 -341.8,145.6 52.11,149.72 359.59,188.81 506.8,167.13 26.99,-62.83 -10.54,-7 60.2,-63.57 -152.43,23.74 -395.85,1.96 -495.07,-99.42 157.8,-84.98 229.44,-70.79 393.62,-114.13l34.25 3.15 -25.25 -60.57 -132.76 21.8z"/>
  <polygon class="fil1" points="7386.6,7025.05 7392.58,7078.52 7450.47,7103.38 7458.54,7152.09 7500.53,6903.31 7396.52,6884.8 "/>
  <path class="fil3" d="M5433.78 2994.26l95.03 100.56 83.12 -60.3c-66.18,-6.08 -114.94,-44.1 -171.35,-86.62 -23.89,15.56 -41.67,-44.28 -6.8,46.36z"/>
  <path class="fil9" d="M4011.74 3392.81l-2.93 57.59 385.63 32.44 -60.37 -49.28c48.05,-39.96 44.92,-28.28 72.38,-80.61 -191.79,65.78 -159.69,17.54 -308.07,-36.59 -62.36,18.2 -84.58,17.66 -86.64,76.44z"/>
  <path class="fil9" d="M5277.14 2945.84c44.18,61.19 173.83,137.47 256.97,149.13l-5.31 -0.15 -95.03 -100.56 -64.44 -42.57 5.53 -151.41c-41.15,67.72 -27.43,155.72 -97.73,145.55z"/>
  <polygon class="fil3" points="6189.96,6690.91 6331.45,6689.91 6310.34,6631 6263.81,6626.86 "/>
  <path class="fil1" d="M5739.54 7247.15l74.89 -5.63c91.5,167.43 25.75,222.62 63.18,361.22l14.46 39.02c-125.88,127.02 -461.81,206.92 -638.49,244.94 -313.88,67.57 -479.47,26.09 -777.17,-35.94l-12.13 17.44c279.92,158.78 732.94,79.3 1028.79,6.45 93.56,-23.04 379.24,-125.78 422.42,-207.66 69.03,-130.84 -2.06,-392.18 -74.02,-493.36l-101.92 73.52z"/>
  <path class="fil7" d="M6993.03 3062.5l74.76 -0.94 72.01 2.46c113.83,37.18 29.32,68.76 96.29,6.18 -59.53,-68.41 -73.13,-56.46 -162.72,-68.02 -51.05,61.09 -22.6,13.3 -80.34,60.33z"/>
  <path class="fil24" d="M7155.48 7302.88c78.43,-20.07 296.33,-40.98 322.28,-108.89l-19.22 -7.59c-96.07,-6.33 -262.16,32.99 -303.06,116.48z"/>
  <path class="fil25" d="M6475.19 7656.02c191.56,188.67 1066.44,301.33 1319.37,196.97 11.56,-26.27 2.31,-21.13 24.21,-49.96 -42.24,-64.39 -48.84,-34 -139.72,-14.88 -374.65,78.83 -870.91,-46.53 -1207.56,-192.51 -24.63,55.27 -26.64,2.78 3.7,60.37z"/>
  <path class="fil9" d="M6926.8 3213.6c59.56,6.94 71.63,3.35 103.81,58.02 9.3,15.78 13.37,40.63 23.64,56.98 49.39,78.6 -0.22,16.24 47.35,47.03 -7.14,-87.26 -58.81,-186.73 -102,-264.79 -58.46,-91.5 -73.87,-145.6 -149.96,-95.27 6.03,114.32 -1.19,-3.03 51.09,95.72 17.17,32.39 18.01,63.97 26.07,102.31z"/>
  <path class="fil14" d="M7770.08 4116.06c36.39,172.07 102.74,179.93 104.72,402.45 74.21,75.43 87.58,26.79 100.26,178.47 9.77,117.28 -1.76,134.17 -72.16,215.57l-0.12 19.25 -4.81 74.09 103.93 -2.95c148.9,-79.2 30.7,-417.56 -8.51,-546.52 -38.47,-126.5 -89.44,-498.84 -162.25,-570.08 -17.93,131.98 49.16,194.12 -1.81,279.2 15.11,-22.87 -15.28,-32.27 -59.26,-49.48z"/>
  <path class="fil14" d="M5379.53 1881.04l-77.81 -28.62 36.64 -57.57 1.96 -63.18 69.92 -6.37c39.34,-10.02 4.09,5.38 22.72,-28.82l-98.42 -3.07 -54.67 19.87c-34.68,88.08 -45.94,66.38 -20.31,161.48 66.45,29.24 54.92,38.55 119.98,6.3z"/>
  <path class="fil26" d="M4539.41 7751.77c-76.55,-15.7 -10.32,-14.21 -70.2,2.06 -23.07,73.24 -21.26,25.52 7.19,96.93 297.7,62.04 463.3,103.51 777.17,35.94 176.68,-38.02 512.61,-117.92 638.49,-244.94l-14.46 -39.02 -25.18 0.55c-444.79,189.7 -824.65,287.06 -1313.02,148.48z"/>
  <path class="fil26" d="M5029.29 7273.56l-5.58 -34.58 -195.36 -55.88 -40.65 3.05c49.09,76.79 159.07,92.22 241.59,87.41z"/>
  <path class="fil27" d="M7155.48 7302.88l-43.76 -1.12 -3.89 -8.83c-53.06,38.32 13.57,19.45 -88.95,32.94 -18.53,2.43 -65.78,2.01 -85.57,0.99 -55.64,-2.85 -102.47,-14.36 -156.12,-20.51 144.44,124.3 635.19,-21.43 682.5,-18.98 152.2,7.86 336.22,266.33 310.72,425.22 -344.14,155.75 -929.77,-48.64 -1258.93,-163.36l-24.41 -4.07 -15.58 23 0 27.48c336.65,145.98 832.91,271.34 1207.56,192.51 90.88,-19.12 97.48,-49.51 139.72,14.88 71.89,-91.33 11.44,-275.33 -53.45,-369.78 -74.56,-108.57 -183.87,-175.46 -287.56,-239.26 -25.95,67.92 -243.85,88.83 -322.28,108.89z"/>
  <path class="fil27" d="M4770.41 7162.59c-173.41,175.84 -356.61,256.85 -357.01,535.43 71.29,1.51 95.89,-6.87 126.01,53.75 488.37,138.58 868.23,41.22 1313.02,-148.48l-42.76 -39.74c-269.92,168.89 -1069.81,296.51 -1315.03,93.61 -14.49,-168.94 161.08,-383.55 311.69,-371.57 161.55,12.85 463.42,107.5 607.41,28.52 -108.22,4.17 -279.7,20.69 -354.95,-39.98l-29.49 -0.57c-82.52,4.81 -192.51,-10.62 -241.59,-87.41l40.65 -3.05 -10.32 -67.69 -2.41 39.61 -45.22 7.56z"/>
  <path class="fil13" d="M7537.34 3896.74l-37.63 107.33 66.3 -24.63c85,69.28 116.85,166.46 159.87,274.58 -126.38,52.06 -35.42,-39.59 -106.17,55.17 62.39,43.68 59.28,59.08 62.43,133.97l-76.42 50.82c-85.92,-29.42 -125.63,-85.85 -64.47,-171.3 -13.57,-54.37 22,-33.88 -32.59,-39.39 -70.72,56.7 -67.24,116.93 -55.24,210.02 223.71,131.39 191.44,20.66 334.81,-2.45 36.71,98.8 31.3,220.78 23.51,326.3 -103.8,3.75 -38.2,9.9 -108.52,-51.89l5.28 73.65 -65.01 -8.24 0.62 -66.25c-33.34,35.44 -98.13,172.61 -116.06,223.98l58.81 -3.52 2.85 51.62 12.68 -5.7c9.25,-88.65 21.08,-98.72 67.67,-160.63l70.94 18.58c49.41,-33.51 10.86,35.1 143.96,-13.3l6.4 56.35 11.41 0 0.12 -19.25 -28.1 -394.04c-1.98,-222.52 -68.34,-230.38 -104.72,-402.45l-160.21 -261.89c-52.69,51.54 -13.54,18.65 -72.53,42.56z"/>
  <path class="fil13" d="M5881.74 3088.27c3.5,-5.33 10.44,-18.63 12.08,-14.83l183.85 -24.11c-4.66,128.64 -35.15,162.59 -151.83,170.78 73.3,47.67 112.98,9.94 209.52,5.68l-23.86 -46.86c85.28,-67.59 78.73,-88.67 199,-18.85l-6.5 66.53c87.01,-9.92 91.82,11.31 138.88,-36.89l-65.68 1.04c-30.41,-112.12 0.99,-44.65 -59.93,-133.18 130.52,-52.46 61.32,-26.98 140.34,-5.8 73.42,19.7 36.09,-2.46 97.51,7.17 98.5,15.4 57.72,12.48 61.81,62.56l87.24 -52.69 -234.18 -37.15 34.13 -31.16 -35.97 -5.06c-105.59,-7.19 -200.39,26.29 -311.87,27.01 -125.98,0.82 -182.06,-44.5 -312.86,-37.83l38.3 103.63z"/>
  <path class="fil13" d="M6273.6 5878.07c163.51,5.58 157.44,16.17 156.59,176.93 41.22,-63.22 25.82,-29.37 41.77,-110.16 23.27,72.11 -4.66,148.23 -33.21,217.46 113.88,-127.74 44.7,-175.52 104.65,-244.3l-19.55 -73.57c-103.61,39.17 -47.6,-11.76 -177.77,-15.55 -55.29,22.89 -31.33,-33.34 -72.48,49.19z"/>
  <path class="fil13" d="M4071.79 3691.11c74.76,-7.94 282.87,45.56 152.7,104.55l88.57 23.56c-19.82,-160.54 -14.91,-99.32 -106.81,-206.05 -75.08,66.78 -53.03,10.07 -134.46,77.94z"/>
  <path class="fil13" d="M6103.82 5996.06c23.09,98.8 35.2,162.81 140.27,187.32l-14.78 -46.51c63.28,-5.46 83.67,8.28 116.28,-26.67 -158.85,44.37 -163.46,-55.34 -137.96,-177.87l-33.31 71.44 -70.49 -7.71z"/>
  <path class="fil28" d="M4791.54 4252.96l44.07 -6.94 -9.08 60.92 51.22 -123.72 -77.81 4.17c20.96,55.64 30.36,-1.31 -8.41,65.58z"/>
  <path class="fil29" d="M6036.18 1398.72c-78.95,51.42 -9.23,42.61 -82.18,2.43 20.44,-10.79 11.63,-93.09 82.18,-2.43zm-273.77 204.56c224.08,106.96 313.6,112.02 474.58,-68.58 14.96,-127.59 0.27,-164.35 -54.25,-273.05 -162.22,-123.72 -330.17,-105.54 -462.6,34.75 -28.15,140.74 -29.54,187.2 42.27,306.88z"/>
  <path class="fil29" d="M6614.61 1357.17c-31.5,57.72 -22.99,49.28 -81.88,19.57 21.95,-21.93 -9.57,-95.62 81.88,-19.57zm-352.15 -106.29c5.46,81.48 17.44,206.84 54.92,270.72 83.41,4.49 285.25,50.03 340.31,20.39 126.15,-118.17 32.91,-337.89 -165.1,-359.64 -85.65,-11.11 -167.2,7.74 -230.13,68.54z"/>
  <path class="fil30" d="M5413.74 7314.12c-143.99,78.98 -445.86,-15.68 -607.41,-28.52 -150.61,-11.98 -326.18,202.63 -311.69,371.57 245.22,202.9 1045.11,75.28 1315.03,-93.61l42.76 39.74 25.18 -0.55c-37.43,-138.61 28.33,-193.8 -63.18,-361.22l-74.89 5.63c-103.76,39.14 -214.21,66.72 -325.8,66.97z"/>
  <path class="fil30" d="M6511.48 7549.24c329.16,114.72 914.79,319.11 1258.93,163.36 25.5,-158.89 -158.53,-417.36 -310.72,-425.22 -47.3,-2.46 -538.06,143.27 -682.5,18.98l-118.86 1.83 -125.96 -10.19c-61.94,84.83 -62.65,152.92 -20.89,251.24z"/>
  <path class="fil12" d="M6979.49 4264.57c111.47,134.09 233.61,119.36 305.67,199.3 -64.79,53.38 -39.24,7.37 -110.95,47.18 -37.5,20.81 -40.33,38.84 -96.41,67.27l-31.72 30.36c-71.76,107.68 -176.48,237.2 -119.39,386.28 104.78,47.35 112.39,3.15 206.89,27.01 -42.56,60.7 -0.96,30.71 -67.89,56.08l80.76 13.22c124.44,13.91 59.58,113.33 223.12,37.65 69.97,-32.37 127.15,-67.12 158.5,-140.52 17.93,-51.37 82.72,-188.54 116.06,-223.98l18.06 -39.02 41.05 39.86c70.32,61.79 4.72,55.64 108.52,51.89 7.79,-105.52 13.2,-227.5 -23.51,-326.3 -143.37,23.11 -111.1,133.84 -334.81,2.45 -12,-93.09 -15.48,-153.31 55.24,-210.02 54.59,5.51 19.02,-14.98 32.59,39.39l78.46 -13.49c70.74,-94.75 -20.21,-3.1 106.17,-55.17 -43.01,-108.12 -74.86,-205.31 -159.87,-274.58l-66.3 24.63 -23.14 72.6 -157.68 -104.33c-99.29,-44.94 -152.97,-65.36 -264.41,-47.63 -97.51,83.17 -217.61,215.82 -74.98,339.85z"/>
  <path class="fil12" d="M4877.76 4183.21l-51.22 123.72 -54.25 19.52 -121.59 52.63c-22,135.09 -2.03,163.51 57.82,255.59 54.17,-77.91 -2.7,-35.27 45.84,-101.08 143.79,-7.49 282.55,223.89 533.32,56.13 88.56,-218.03 -13.64,-192.68 -52.68,-356.17l145.67 -97.98 32.84 -133.55 -64.04 -83.07c-466.15,-56.5 -264.46,175.67 -471.71,264.24z"/>
  <path class="fil12" d="M5918.33 5446.89c-66.63,93.93 -78.28,164.9 -35.87,282.52l17.91 10.54c82.2,71.46 96.83,137 214.41,176.01 103.43,-43.78 90.76,-86.62 231.3,-87.09 130.17,3.79 74.17,54.72 177.77,15.55 91.73,-75.16 143.67,-333.59 68.26,-431.47 -119.78,-155.48 -278.56,98.7 -311.07,144.73 -146.37,-23.61 -182.74,-194.39 -362.72,-110.8z"/>
  <path class="fil12" d="M5754.15 6023.15c-40.03,57.22 -98.8,102.94 -99.94,184.27 -1.07,76.77 50.43,127.62 117.82,129.48l174.32 32.42c4.57,88.92 -9.37,173.01 28.08,252.93 58.09,41.94 53.75,43.06 129.11,39.12 125.31,-50.28 129.33,-74.83 153.94,-196.78l40.48 -218.35c-57.4,-58.07 -19.52,5.21 -53.87,-62.85 -105.07,-24.51 -117.18,-88.53 -140.27,-187.32l-255.04 0.54 -94.63 26.54z"/>
  <path class="fil12" d="M6438.75 6162.3l-9.38 11.29 -39.04 53.93 18.06 57.07c-5.98,152.72 173.51,243.21 317.92,249.48 31.5,-68.34 57.77,-66.87 71.26,-146.05 14.26,-83.69 -12.97,-73.96 -0.52,-148.63 96.81,-18.93 116.61,-35.2 193.05,-67.92l-5.33 -133.05 -33.69 -29.74c-132.68,-73.67 -253.03,-107.35 -407.69,-90.69 -59.95,68.78 9.23,116.56 -104.65,244.3z"/>
  <path class="fil12" d="M5881.74 3088.27c-93.11,-16.84 -122.36,-36.89 -212.6,1.22l-80.46 31.7c73.82,60.15 241.15,97.21 337.17,98.92 116.68,-8.19 147.17,-42.14 151.83,-170.78l-183.85 24.11c-1.64,-3.8 -8.58,9.5 -12.08,14.83z"/>
  <path class="fil12" d="M7462.87 3568.73c-33.93,97.76 49.86,202.75 130.62,230.98 46.36,-60.06 87.96,-65.21 86.52,-132.88 -0.89,-43.46 -42.81,-85.65 -63.37,-153.29l-60.25 -27.76 -93.52 82.94z"/>
  <path class="fil12" d="M6442.89 3189.72c74.71,-8.24 104.11,-35.52 174.05,-68.21 -4.09,-50.08 36.69,-47.15 -61.81,-62.56 -61.42,-9.63 -24.09,12.53 -97.51,-7.17 -79.02,-21.18 -9.82,-46.66 -140.34,5.8 60.92,88.53 29.52,21.06 59.93,133.18l65.68 -1.04z"/>
  <path class="fil14" d="M5325.13 1397.72l-8.7 60.47 46.78 68.06 56.38 -113.58 43.95 8.91c43.93,35.27 39.54,23.61 67.39,99.44 20.61,56.06 16.42,48.42 18.85,108.37 -47.57,40.68 -55.83,57.77 -116.83,67.07 -18.63,34.2 16.62,18.8 -22.72,28.82 46.61,42.17 27.04,-1.52 28.03,77.39l-99.91 -7.84 -36.64 57.57 77.81 28.62 64.54 20.42c-57.35,51.22 -88.06,36.26 -118.91,94.38 -33.16,62.46 -4.39,70.52 -52.88,144.88l-15.8 63.33c-6.3,98.5 -11.66,165.89 -108.05,201.61l-45.76 105.12c130.3,55.26 224.85,74.31 357.01,151.56 114.65,67 217.33,141.11 337.44,207.36 299.66,165.35 583.57,108.15 860.74,-62.11 48.19,-95.42 71.31,-63.05 60.55,-191.81l-99.89 -71.78 -96.83 -9.57c-232.59,182.88 -591.09,286.24 -804.78,16.62 -100.41,-126.67 -76.77,-317.44 -23.94,-459.67 63,-169.64 164.7,-184.15 274.61,-281.04l20.39 -70.64c-63.18,64.99 -92.74,-16.32 -104.38,-25.72l-127.3 -62.85c-176.41,-77.07 -151.53,-364.33 -16.25,-460.99 185.69,-132.73 302.39,-57.59 478.58,0.89l168.2 -73.3 147.14 -24.21 -42.47 -120.28 -124.89 -4.41c-81.19,14.19 -156.79,61.76 -237.33,84.21 -203.79,56.85 -174.85,-58.61 -811.8,143.32l7.67 201.39z"/>
  <path class="fil14" d="M3871.27 3891.53c-110.95,197.37 -121.79,449.46 -160.91,677.33l-4.89 21.01 -69.65 98 -83.47 119.16 20.98 139.57 67.74 12.92c44.77,-50.95 42.74,-34.9 109.33,-66.63 15.6,-98.87 -16.54,-103.56 53.95,-136.77l25.25 242.29 -4.04 19.27c40.19,82.1 65.58,228.43 214.98,139.13 7.61,-121.3 -124.42,-247.55 0,-377.3l18.78 39.71c43.76,169.17 -38.3,124.25 67.37,294.53 59.21,-25.87 46.81,-13.59 73.42,-63.2 28.03,-119.61 47.2,-227.88 149.52,-298.69 102.34,8.11 89.74,29.04 171.28,85.8l165.59 -26.2 -36.96 -23.64 3.59 -66.06c-134.04,-202.8 -167.16,-203.37 -54.22,-457.04 12.1,-75.41 68.43,-181.84 67.27,-210.17l-30.39 -50.85c-215.5,-117.4 -465.08,-194.74 -725.28,-192.04l-39.27 79.84z"/>
  <path class="fil14" d="M6512.84 7060.52l2.01 131.86c87.88,45.29 214.58,86 313.03,76.1l223.26 -6.17c20.91,-79.2 -2.03,-130.7 85.3,-183.46 57.55,-34.8 176.68,-41.47 250.15,-53.8l9.92 -140.24c-141.54,-2.68 -799.54,104.08 -883.68,175.71z"/>
  <path class="fil14" d="M5151.58 7025.59c-78.88,35.52 -70.42,17.19 -138.36,71.58 60.9,51.4 26.54,-4.29 47.11,66.57l10.34 80.34c184.12,33.39 257.94,52.63 455.24,11.33 218.65,-45.76 251.52,-56.2 247.35,-274.96l-621.67 45.12z"/>
  <path class="fil14" d="M7609.87 3854.18l160.21 261.89c43.98,17.21 74.36,26.61 59.26,49.48 50.97,-85.08 -16.12,-147.21 1.81,-279.2l3.55 -73.52c2.58,-29.14 7.89,-23.71 -19.15,-11.48l-123.08 -6.07 -82.6 58.91z"/>
  <path class="fil9" d="M5854.31 5412.07c210.27,-149.94 260.3,7.37 409.22,44.05 86.32,-65.33 174.72,-247.89 345.35,-123.1 122.58,89.64 85.87,293.29 51.15,419.09l2.36 75.31 96.22 33.81c72.48,19.02 172.64,29.69 219.57,90.51 111.62,42.42 114.55,233.73 10.17,278.87 -32.54,50.65 -65.61,51.42 -125.54,75.8 -6.6,131.31 -1.49,213.37 -139.2,256.35l-6.62 3.72c-75.38,44.08 -81.41,25.67 -176.71,27.83l-25.92 116.76 -36.11 58.41c-87.73,-16.84 -92.35,-17.96 -146.79,-79.57l-141.48 0.99 -27.19 -4.66c-43.53,57 -160.06,24.85 -215.8,-15.63 -89,-64.64 -68.14,-146.47 -65.31,-249.16l-86.94 -20.04c-160.34,-44.1 -294.6,-206.2 -145.16,-339.92l-1.98 -64.44c-73.84,17.29 -206.37,-92.84 -250.4,-168.57 76.35,-125.91 273.22,-127.3 412,-98.45 -10.42,-108.05 -41.85,-231.63 45.12,-317.97zm-1138.45 -2601.98l70.02 58.56c8.46,79.55 31.3,135.28 -49.46,165.12 -35.12,67.07 -129.83,87.14 -197.12,121.32 -39.09,105.87 22.5,122.78 -98.77,174.13l-34.08 23.74c-27.46,52.33 -24.33,40.65 -72.38,80.61l60.37 49.28c143.72,19.8 213.56,70.92 336.65,122.51 68.88,36.24 204.26,169.19 263.32,152.25 6.65,-60.7 128.69,-438.49 217.01,-464.44 60.5,101.37 -143.24,417.33 -148.03,566.19l82.52 -15.68 228.2 26.44c158.6,77.66 139.13,292.27 -15.2,345.06l0.4 -3.22c-14.09,141.7 130.47,324.91 -42.17,417.83 -68.31,54.89 -129.23,68.21 -215.97,68.76l-10.79 60.5c3.92,98.57 21.98,169.11 -16.94,260.62 -80.32,22.72 -116.78,17.07 -170.46,-40.23l-130.72 -141.09c-89.52,4.64 -256.5,80.34 -292.94,16.3l-120.55 -22.5c-54.74,67.22 -59.28,64.81 -82.03,151.68 -20.56,161.82 -129.23,184.79 -263,249.85l-13.44 6.22c-39.66,214.93 -56.16,513.93 -67.59,735.48 -12.08,233.66 -42.51,455.78 234.15,532.43 46.06,-200.89 -36.96,-561.89 102.57,-706.18 -3.4,285.63 -57.87,519.85 -37.06,824.48 155.06,149.92 501.8,282.17 713.67,323.82 366.19,71.98 709.88,-73.94 1021.37,-34.85 1054.98,132.46 892.98,-79.92 1427.22,-88.8 172.09,-2.85 344.51,55.79 441.39,-101.97l4.29 -1487.07c-124.84,-1.22 -72.72,42.14 -176.19,-33.83 -69.1,-50.75 -116.04,-71.54 -213.46,-50 -93.59,67.59 -129.98,61.39 -242.94,38.32 -52.81,-53.08 -44.52,-28.33 -61.29,-100.43l-80.76 -13.22c-95.59,-0.97 -151.48,-2.73 -204.91,-84.21 -56.85,-163.83 29,-253.5 97.33,-385.28 -147.21,21.68 -454.69,-17.41 -506.8,-167.13 77.37,-92.17 222.52,-132.98 341.8,-145.6l93.83 -43.13c-59.26,-147.39 -33.41,-285.55 109.26,-356.76 113.8,-60.77 266.77,-42.96 364.35,42.74l90.31 -6.4c83.52,-226.09 -5.13,-130.37 -78.31,-286.49l-38.99 -31.65c-82.6,-42.29 -207.34,-149.28 -231.97,-238.5 -47.57,-30.78 2.04,31.57 -47.35,-47.03 -10.27,-16.35 -14.34,-41.2 -23.64,-56.98 -32.17,-54.67 -44.25,-51.07 -103.81,-58.02l-15.08 92.35c-102.24,-4.04 -79.5,-66.18 -116.58,-183.85l-70.05 5.91 -142.48 72.78 -3.15 151.88c-1.44,0.8 -39.89,22.05 -41.77,23.49 -52.76,40.11 5.68,21.88 -77.74,62.53l-32 -150.54 -110.9 3.87 -63.65 -6.25c-64.39,39.86 -69.03,30.96 -153.52,39.71 -3.8,82.87 -0.3,136.85 -45.69,199.78 -14.86,-23.02 -14.98,-10.87 -24.65,-49.07l-42.12 -192.58 -167.93 -7.24 -95.47 -4.81c-15.85,79.32 -19.52,203.67 -171.75,221.43 -18.72,-93.02 -3.15,-182.93 41.18,-261.79l-41.72 -48.86 -51.15 -43.04 -174.72 -69.35 -50.08 -14.14 -54 119.38 -26.61 44.35c-183.78,-84.53 -110.95,33.49 -171.25,-40.31 -21.58,-57.89 12.15,-98.55 43.19,-136.4 64.52,-68.66 66.92,-64.27 33.96,-157.19l5.26 -0.74c-130.07,6.7 -117.37,56.93 -227.04,35.27l99.07 -83.84 -10.2 -50.8 -86.96 -32.27 -159.09 15.2 -6.25 41.62z"/>
  <path class="fil9" d="M7073.37 3002.17c89.59,11.56 103.19,-0.39 162.72,68.02 73.39,128.04 24.68,181.12 -30.61,283.17 -4.37,81.51 74.74,122.46 134.17,179.36l54.94 -8.39c110.8,-58.14 178.74,-229.41 127.49,-341.53 -100.58,-147.78 -431.44,-390.79 -574.44,-420.01 14.21,138.78 -26.91,244.52 125.74,239.39z"/>
  <path class="fil9" d="M4902.22 2627.15l13.59 64 361.33 254.69c70.3,10.17 56.58,-77.83 97.73,-145.55l100.19 -52.16 -24.63 -26.3c-161.97,-121.99 -358.28,-205.33 -548.2,-94.68z"/>
  <path class="fil9" d="M4637.53 3773.79l-32.57 13.69c-37.93,72.75 -31.63,49.11 -21.78,139.18l57.1 36.09c123.23,48.15 118.57,49.93 192.61,143.54l65.16 -12.57 18.48 -42.29c22.5,-97.68 59.68,-111.62 58.46,-199.2 -63.63,-80.41 -143.87,-111.47 -228.87,-163.14 -87.63,35.22 9.47,35.12 -108.59,84.71z"/>
  <path class="fil9" d="M6666.33 2850.3c-13.15,111.81 -23.81,29.02 -66.75,129.68l125.34 2.38c164.85,-26.34 190.2,-90.58 122.81,-233.76l-65.39 1.81c-60.97,34.2 -24.95,62.48 -116.01,99.89z"/>
  <path class="fil31" d="M6480.04 2491.98l54.94 -42.67c0.45,-6.59 9.9,-18.35 8.58,-79.25 -148.48,-2.78 -533.54,58.56 -658.81,-69.3 50.75,-41.7 -62.08,-46.31 99.22,-31.45 17.19,1.59 87.41,43.38 235.74,54.84 124.05,9.57 239.09,-17.29 360.31,-31.03l183.87 -76.35c50.43,-172.17 23.67,-142.18 -46.91,-308.64 -71.86,-169.46 -102.17,-132.63 -269.35,-114.3 -227.85,24.95 -459.55,19.87 -622.84,216.62 -308.57,371.84 3.77,914.31 654.05,480.31l1.19 1.22z"/>
  <path class="fil14" d="M6572.33 2489.2l-50.68 45.2 0.02 0.02 51.07 -44.7 -0.42 -0.52zm0.42 0.52l-51.07 44.7 95.87 9.48 -44.8 -54.17zm45.76 12.63l0 -8.01 0 8.01z"/>
  <path class="fil32" d="M7880.24 5091.52c-108.87,343.42 50.18,1395 -44.2,1632.78 -96.89,157.76 -269.3,99.12 -441.39,101.97 -534.24,8.88 -372.24,221.26 -1427.22,88.8 -311.49,-39.09 -655.18,106.83 -1021.37,34.85 -211.88,-41.65 -558.62,-173.9 -713.67,-323.82 -20.81,-304.62 33.66,-538.85 37.06,-824.48 -139.52,144.29 -56.5,505.29 -102.57,706.18 -276.67,-76.64 -246.23,-298.77 -234.15,-532.43 11.44,-221.55 27.93,-520.54 67.59,-735.48l-53.38 33.86 -19.25 -33.06c-20.04,73.59 -57.57,513.33 -60.42,609.12 -5.36,180.28 -69.8,427.58 64.09,566.19 61.34,63.5 154.83,109.11 191.19,144.81 139.57,136.92 -122.39,72.98 605.87,409.74 56.16,1.91 101.33,-8.76 135.33,23l86.99 6.82 200.84 25.23 621.67 -45.12 47.2 -0.15c49.91,-26.39 616.19,33.48 672.05,80.19l20.34 0c84.14,-71.63 742.15,-178.39 883.68,-175.71l104 18.5c571.67,-29.89 399.06,-251.96 399.03,-738.35 -0.02,-257.15 -82.2,-921.66 99.52,-1092.07l2.83 -28.77 -121.67 47.4z"/>
  <path class="fil0 str0" d="M4819.52 2671.93l82.7 -44.77c189.93,-110.65 386.23,-27.31 548.2,94.68l76.92 31.9 -27.88 69.83c58.64,-19.05 91.72,-2.26 162.54,32.07 87.04,42.22 63.45,30.46 123.67,104.35l-32.69 31.85c87.16,10.44 48.47,-6.77 107.3,46.39 -6.43,3.67 -15.82,0.15 -20.36,8.83 -4.54,8.63 -14.39,6.25 -20.64,7.79 -38.77,9.55 -23.59,5.68 -63.6,12.03 -57.03,9.05 -41.92,-18.21 -86.54,22.62 90.24,-38.1 119.48,-18.06 212.6,-1.22l-38.3 -103.63c130.8,-6.67 186.88,38.65 312.86,37.83 111.47,-0.72 206.28,-34.2 311.87,-27.01l83.81 -85.55 114.35 -59.6 -8.48 -42.72c-277.17,170.26 -561.08,227.46 -860.74,62.11 -120.1,-66.25 -222.79,-140.37 -337.44,-207.36 -132.16,-77.24 -226.71,-96.29 -357.01,-151.56 -106.81,18.53 -251.31,58.09 -283.14,161.15z"/>
  <path class="fil5" d="M7602.4 5030.8l-12.68 5.7 -139.05 116.88c97.43,-21.53 144.36,-0.74 213.46,50 103.46,75.98 51.35,32.62 176.19,33.83l-4.29 1487.07c94.38,-237.78 -64.67,-1289.36 44.2,-1632.78l-121.87 -48.59 21.41 -93.27 14.66 -27.63 -34.7 68.04c-192.66,-24.43 9.77,0.2 -157.33,40.73z"/>
  <path class="fil5" d="M7018.31 4544.98l27.26 0.5c56.98,-39.64 51.07,-17.66 82.4,-79.87l-60.6 -55.17c-6.23,4.14 0.62,65.61 -97.04,-1.59 -44.5,-30.63 -36.24,-43.66 -53.48,-77.42 -164.18,43.33 -235.82,29.15 -393.62,114.13 99.22,101.38 342.65,123.15 495.07,99.42z"/>
  <path class="fil14" d="M5883.58 1713.95c11.63,9.4 41.2,90.71 104.38,25.72l-20.39 70.64c114.03,-17.04 148.85,-53.82 277.41,-64.09 111.54,-8.93 222.15,6.45 323.57,-46.16l1.14 -78.43c-383.94,-186.16 -270.12,129.03 -686.11,92.32z"/>
  <path class="fil12" d="M3888.36 3538.94c-91.33,136.33 -83.98,94.5 -83.98,280.91l62.28 19.5 4.61 52.19 39.27 -79.84 -55.26 -34.48 153.17 -116.28c81.11,-50.5 92.55,-4.66 171.65,-98.13 101.5,-11.68 11.51,-12.92 49.24,39.91 68.24,-30.88 34.9,-28.55 87.76,-39.76 36.64,-7.76 60.25,-1.59 108.35,-11.91 -43.04,-45.67 -70.74,-20.74 -137.64,-27.78 -82.15,-8.68 -43.78,-22.65 -122.13,-22.07 -87.14,0.65 -192.81,0 -277.29,37.75z"/>
  <path class="fil1 str1" d="M5070.67 7244.09l-11.88 30.04c75.26,60.67 246.73,44.15 354.95,39.98 111.59,-0.25 222.05,-27.83 325.8,-66.97l101.92 -73.52c-13.84,-36.36 -3.22,-113.33 -21.01,-193.3l-47.2 0.15c4.17,218.75 -28.7,229.19 -247.35,274.96 -197.3,41.3 -271.11,22.05 -455.24,-11.33z"/>
  <path class="fil3" d="M5647.59 5997.06l51.3 43.48 55.26 -17.39 94.63 -26.54c37.56,-27.93 -38.5,-20.19 70.74,-33.04l-63.89 -15c-31.35,1.46 -233.63,90.61 -403.84,-117.13 31.01,-34.57 -29.19,-15.7 68.93,-47.5 25.94,-8.41 82.25,-11.56 109.93,-12.63 72.38,-2.78 139.6,-3.62 209.05,14.83l-4.09 -51.39 -26.41 -4.71c-138.78,-28.85 -335.65,-27.46 -412,98.45 44.03,75.73 176.56,185.86 250.4,168.57z"/>
  <path class="fil0" d="M4881.21 2753.26l86.96 32.27c98.8,46.31 -3.22,-5.06 63.6,50.93 28.23,23.67 36.49,24.13 74.56,48.44l-5.26 0.74c106.48,32.49 24.68,21.01 108.17,89.54 78.7,64.61 68.48,0.07 116.63,94.75l174.72 69.35 33.51 -44.33c-83.15,-11.66 -212.8,-87.93 -256.97,-149.13l-361.33 -254.69 -68.48 26.79 33.88 35.32z"/>
  <path class="fil13" d="M7616.64 3513.54c20.56,67.64 62.48,109.83 63.37,153.29 1.44,67.67 -40.16,72.82 -86.52,132.88l-61.74 3.99 5.58 93.04c58.98,-23.91 19.84,8.98 72.53,-42.56l82.6 -58.91 25.77 -82.23 76.32 5.53 -69.1 -70.96 27.09 -62.78 -63.1 -61.84 -32.94 -139.18c-1.17,-8.98 -6.57,-10.02 -10.67,-14.36 -43.51,74.44 -39.71,55.29 -29.2,144.09z"/>
  <path class="fil5" d="M6316.49 6513.01c-0.52,91.15 -22.72,70.07 -52.69,113.85l46.53 4.14c130.1,-7.04 34.18,63.94 147.07,62.24 44.03,-80.04 8.83,-86.64 82.87,-98.92 95.3,-2.16 101.33,16.25 176.71,-27.83l-223.04 -23.64c-140.19,-48.07 -58.49,-32.02 -177.45,-29.84z"/>
  <path class="fil33" d="M4793.67 7097.55l24.36 17.86 10.32 67.69 195.36 55.88 5.58 34.58 29.49 0.57 11.88 -30.04 -10.34 -80.34c-84.51,14.64 -113.38,2.8 -191.52,-33.66l51.27 -35.27 -75.63 5.98c42.29,-67.79 50.06,-44.7 106.29,-100.43l-86.99 -6.82 -80.69 -6.9 10.61 110.9z"/>
  <path class="fil0" d="M6317.06 3292.01l110.9 -3.87 32 150.54c83.42,-40.65 24.98,-22.42 77.74,-62.53 1.89,-1.44 40.33,-22.69 41.77,-23.49l3.15 -151.88c-83.54,40.5 -203.99,49.58 -265.56,91.23z"/>
  <path class="fil0" d="M5570.15 3417.97c13.3,-84.91 13.74,-156.81 91.26,-163.59 44.63,59.68 26.09,76.03 -2.63,148.11 -60.22,-12.35 -21.01,-23.39 -88.63,15.48zm249.36 -141.61l-267.76 -94.03 41.72 48.86c-44.33,78.85 -59.9,168.77 -41.18,261.79 152.22,-17.76 155.9,-142.11 171.75,-221.43l95.47 4.81z"/>
  <path class="fil0" d="M4713.78 3645.82l32.35 43.26c85,51.67 165.24,82.72 228.87,163.14l50.1 0.2 26.12 -89.62c-31.78,-34.41 3.72,-10.96 -56.8,-5.19 -59.06,16.94 -194.44,-116.01 -263.32,-152.25l-17.31 40.45z"/>
  <path class="fil14" d="M6366.59 968.81l124.89 4.41 42.47 120.28 -147.14 24.21c101.48,-17.19 91.45,-27.06 189.58,12.95l42 9.53 24.31 -9.53c-64.44,-70.17 -73.92,-32.67 -84.26,-131.14l81.16 -41.3 -88.63 -7.37c-73.77,-41.97 -128.79,-32.52 -184.37,17.96z"/>
  <polygon class="fil9" points="4819.52,2671.93 4809.6,2719.08 4623.42,2746.39 4581.3,2783.79 4715.86,2810.09 4722.11,2768.46 4881.21,2753.26 4847.33,2717.94 4915.81,2691.15 4902.22,2627.15 "/>
  <path class="fil9" d="M5221.8 3175.18l-47.78 1.76c-0.12,-6.4 -0.44,-58.66 -0.59,-59.35 -12.57,-59.13 2.85,-12.53 -20.98,-56.8l-81.88 88.23 -3.45 -106.19c-31.03,37.85 -64.76,78.5 -43.19,136.4 60.3,73.8 -12.52,-44.22 171.25,40.31l26.61 -44.35z"/>
  <path class="fil0" d="M6657.85 2807.58l8.48 42.72c91.06,-37.41 55.04,-65.69 116.01,-99.89l8.06 -71.63c-16.65,-69.03 -13.1,-52.26 -72.01,-63 10.76,128.76 -12.35,96.39 -60.55,191.81z"/>
  <path class="fil5" d="M6324.97 6438.4l-8.48 74.61c118.96,-2.19 37.26,-18.23 177.45,29.84 -17.83,-96.39 -75.26,-118.17 -162.32,-156.39l-6.65 51.94z"/>
  <path class="fil0" d="M5570.15 3417.97c67.62,-38.87 28.4,-27.83 88.63,-15.48 28.72,-72.08 47.26,-88.43 2.63,-148.11 -77.51,6.77 -77.96,78.68 -91.26,163.59z"/>
  <path class="fil3" d="M6331.45 6689.91c54.44,61.61 59.06,62.73 146.79,79.57l36.11 -58.41c-102.31,63.25 -33.66,30.66 -56.95,-17.83 -112.89,1.71 -16.97,-69.28 -147.07,-62.24l21.11 58.91z"/>
  <path class="fil9" d="M6551.98 2909.9l-19.62 47.08 32.69 22.89 34.53 0.1c42.94,-100.66 53.6,-17.86 66.75,-129.68l-114.35 59.6z"/>
  <polygon class="fil0" points="7333.57,3614.12 7372.56,3645.77 7399.3,3546.63 7332.65,3568.08 "/>
  <polygon class="fil34" points="5839.7,5786.14 5859.22,5788.07 5907.99,5789.86 5900.37,5739.96 5882.46,5729.41 5835.61,5734.75 "/>
  <polygon class="fil9" points="6782.34,2750.41 6847.73,2748.59 6851.72,2720.79 6790.41,2678.77 "/>
  <path class="fil35" d="M6569.7 1621.64l-1.14 78.43c-101.43,52.61 -212.03,37.23 -323.57,46.16 -128.56,10.27 -163.39,47.06 -277.41,64.09 -109.91,96.89 -211.61,111.4 -274.61,281.04 -52.83,142.23 -76.47,333 23.94,459.68 213.69,269.63 572.19,166.26 804.78,-16.62l-42.83 -43.66c-650.28,434 -962.61,-108.47 -654.05,-480.31 163.29,-196.75 394.99,-191.67 622.84,-216.62 167.18,-18.33 197.49,-55.17 269.35,114.3 70.57,166.46 97.33,136.47 46.91,308.64l80.74 -1.54c42.24,-108.12 -8.46,-174.25 -47.93,-281.56 -51.96,-141.33 -59.83,-144.26 -174.57,-245.81l59.38 -70.2 -111.82 3.97zm3.1 868.03c19.1,-133.17 24.56,-59.28 7.22,-196.55 -121.22,13.74 -236.26,40.61 -360.31,31.03 -148.33,-11.46 -218.55,-53.26 -235.74,-54.84 -161.3,-14.86 -48.47,-10.24 -99.22,31.45 125.26,127.87 510.33,66.52 658.81,69.3 2.56,117.45 -35,51.99 29.24,119.61zm-92.77 2.31l54.94 -42.67c-0.02,0.32 -0.02,0.65 0,0.97 0.03,0.17 0.03,0.32 0.07,0.5 0.89,5.11 9.33,9.06 37.18,38.3l0.1 0.12 -50.68 45.2 -41.62 -42.42z"/>
  <path class="fil36" d="M5211.43 2211.36l45.05 -7.32 15.8 -63.33 6.75 -81.85 -46.58 5.88c0.22,86.42 -0.99,73.87 -21.01,146.62z"/>
  <path class="fil36" d="M5148.43 2405.65c96.39,-35.72 101.75,-103.11 108.05,-201.61l-45.05 7.32c-46.76,88.4 -1.36,38.62 -15.11,82.92 -22.22,71.66 -31.18,-12.26 -47.9,111.37z"/>
  <path class="fil36" d="M5316.43 1458.2l0.52 193.35c-275.83,213.81 -8.96,180.53 -84.51,413.19l46.58 -5.88 -6.75 81.85c48.49,-74.36 19.72,-82.43 52.88,-144.88 30.86,-58.11 61.57,-43.16 118.91,-94.38l-64.54 -20.42c-65.06,32.25 -53.53,22.94 -119.98,-6.3 -25.62,-95.1 -14.36,-73.39 20.31,-161.48l54.67 -19.87 115.22 -26.79c-118.39,-167.55 6.57,-99.34 13.79,-245.02l-43.95 -8.91 -56.38 113.58 -46.78 -68.06z"/>
  <path class="fil36" d="M6639.6 958.22l-81.16 41.3c10.35,98.47 19.82,60.97 84.26,131.14l-24.31 9.52 84.11 57c-7.79,-67.24 -25.67,-103.28 -66.6,-156.49l104.7 -46.41 3.92 -62.93 -104.93 26.86zm-456.85 303.43c54.52,108.69 69.2,145.45 54.24,273.05l80.39 -13.09c-37.48,-63.87 -49.46,-189.24 -54.92,-270.72 -74.12,34.5 -8.68,21.31 -79.72,10.76zm-426.46 389.46c-45.47,-85.83 -23.46,-29.5 6.13,-47.82 -71.81,-119.69 -70.42,-166.14 -42.27,-306.88 132.43,-140.3 300.38,-158.48 462.61,-34.75 71.04,10.54 5.6,23.74 79.72,-10.76 62.93,-60.8 144.48,-79.65 230.13,-68.54 32.35,-71.69 -58.56,-62.39 83.79,-51.69 -98.13,-40.01 -88.11,-30.14 -189.58,-12.95l-168.2 73.3c-176.19,-58.49 -292.89,-133.62 -478.58,-0.89 -135.28,96.66 -160.16,383.92 16.25,460.99zm561.1 -129.5l-80.39 13.09c-160.98,180.6 -250.5,175.54 -474.58,68.59 -29.59,18.33 -51.59,-38 -6.13,47.82l127.3 62.85c416,36.71 302.17,-278.48 686.12,-92.32l111.82 -3.97 81.21 -97.33c-16.62,-87.71 -25.65,-14.01 -25.18,-90.24 0.27,-40.83 6.97,-106.91 6.97,-158.38l-42.02 -74.54 -84.11 -57 -41.99 -9.52c-142.35,-10.69 -51.44,-19.99 -83.79,51.69 198.02,21.75 291.26,241.47 165.1,359.64 -55.06,29.64 -256.9,-15.9 -340.31,-20.39z"/>
  <path class="fil29" d="M5147.74 1082.71l84.71 25.25c96.96,20.22 221.06,22.37 297.06,-31.97l-87.04 -17.66 -13.94 -126.35 -41.62 102.67c-59.73,-119.33 -16.99,-245.09 47.06,-350.41l-28.18 -71.69 -88.95 41.67c-143.42,61.96 -175.32,278.58 -169.09,428.5zm169.09 -428.5l88.95 -41.67 28.18 71.69c46.14,-77.24 51.32,-127.12 122.68,-168.96l74.59 -95.8 -29.15 -0.94c-94.95,71.76 -230.21,130.35 -285.25,235.69zm267.12 -98.43c-56.5,136.63 -186.88,202.38 -155.43,376.19l13.94 126.35 87.04 17.66c91.06,1.34 185.17,-49.48 275.35,-77.86 34.55,-26.31 29.42,-24.58 75.21,-46.63 126.97,-61.17 462.63,-156.12 541.18,-192.51 12.08,-171.75 -80.09,-257.59 -238.2,-290.46 -89.59,-29.37 -62.7,-56.23 -177.75,-59.56 -89.05,-2.58 -134.49,15.33 -218.58,-14.78l-202.78 161.6zm480.39 456.93c148.11,-8.28 292.17,-110.75 473.57,-127.8 19.77,42.37 15.25,4.29 13.07,65.93l88.63 7.37 104.93 -26.86 31.8 -58.67c-131.76,-66.35 -16.15,-76.57 -217.51,-57.07 -164.85,15.98 -558.99,68.19 -650.99,201.19 82.97,20.17 73.02,11.63 156.52,-4.09zm118.71 -544.19l-25.43 -65.76c182.31,-4.81 336.45,127.54 324.99,357.98l240.9 2.21c17.83,-48.24 17.04,-50.06 4.56,-102.99 -25.4,-107.95 13.77,-11.21 -46.85,-80.89 -42.52,-48.86 -77.98,-92.07 -146.72,-126.2 -207.74,-47.77 -539.87,-127.15 -747.78,-58.69 84.09,30.11 129.53,12.2 218.58,14.78 115.04,3.32 88.15,30.19 177.75,59.56z"/>
  <path class="fil37" d="M5556.64 515.26c-9.15,61.07 -12.9,23.59 27.31,40.53l202.78 -161.6 -155.5 25.28 -74.59 95.8zm-122.68 168.96c-64.04,105.32 -106.78,231.08 -47.06,350.41l41.62 -102.67c-31.45,-173.8 98.92,-239.56 155.43,-376.19 -40.21,-16.94 -36.46,20.54 -27.31,-40.53 -71.36,41.84 -76.54,91.72 -122.68,168.96zm630.38 328.49c-82.5,87.61 -174.7,2.78 -259.48,-14.59 -90.19,28.38 -184.3,79.2 -275.35,77.86 -76,54.35 -200.1,52.19 -297.06,31.97 35.37,81.26 30.31,43.04 47.97,137.12l18.87 107.73c19.25,55.17 -10.59,4.41 25.85,44.92l-7.66 -201.39c636.95,-201.93 608,-86.47 811.8,-143.32 80.54,-22.45 156.15,-70.02 237.33,-84.21 55.59,-50.48 110.6,-59.93 184.37,-17.96 2.18,-61.64 6.7,-23.57 -13.07,-65.93 -181.4,17.04 -325.46,119.51 -473.57,127.8zm-916.6 70c-6.22,-149.92 25.67,-366.54 169.09,-428.5 55.04,-105.34 190.3,-163.93 285.25,-235.69 -144.51,-20.96 -411.95,177.3 -472.95,371.87 -71.31,227.46 -49.19,236.24 18.6,292.32zm454.35 -664.19l29.15 0.94 155.5 -25.28c207.91,-68.46 540.04,10.91 747.78,58.69 -80.96,-124.07 -182.26,-110.28 -403.87,-142.35 -14.19,-2.06 -28.68,-3.67 -43.43,-4.86l-156.72 0c-110.41,7.37 -222.84,27.53 -315.49,46.33l-12.92 66.52zm580.97 50.01c158.11,32.87 250.28,118.71 238.2,290.46 -78.56,36.39 -414.21,131.34 -541.18,192.51 -45.79,22.05 -40.66,20.31 -75.21,46.63 84.78,17.36 176.98,102.2 259.48,14.59 -83.49,15.72 -73.55,24.26 -156.52,4.09 92,-133 486.14,-185.21 650.99,-201.19 201.36,-19.5 85.75,-9.28 217.51,57.07 38.05,-20.26 27.93,2.06 25.8,-36.61l-78.61 -73.12 -240.9 -2.21c11.46,-230.43 -142.67,-362.79 -324.99,-357.98l25.43 65.76z"/>
  <path class="fil12" d="M4476.4 2866.19c-46.24,55.29 -120.08,119.26 -173.98,184.65 -17.51,21.23 -58.52,73.62 -74.04,93.96 -31.2,40.88 -57.59,74.19 -88.2,101 68.56,151.73 209.18,69.72 310.43,14.34 16.32,-84.93 30.19,-36.46 4.69,-98.15 16.62,-78.11 55.49,-51.15 142.38,-88.1 57.32,-24.36 74.26,-46.01 122.14,-80.19l3.67 -103.06c-88.7,-61.52 -146.22,-51 -247.07,-24.43z"/>
  <path class="fil12" d="M4229.33 3602.71l-23.07 10.47c91.9,106.73 86.99,45.52 106.81,206.05l125.44 42.17 90.34 -92.37 113.9 -62.76 -14.86 -75.03c-55.78,-45.67 -120.3,-77.37 -202.45,-80.19 -48.09,10.32 -71.71,4.14 -108.35,11.91 -52.86,11.21 -19.52,8.88 -87.76,39.76z"/>
  <path class="fil7" d="M7146.46 5091.26c16.77,72.11 8.48,47.35 61.29,100.43 112.96,23.07 149.35,29.27 242.91,-38.32l139.05 -116.88 -2.85 -51.62 -58.81 3.52c-31.35,73.4 -88.53,108.15 -158.48,140.52 -163.54,75.68 -98.67,-23.74 -223.12,-37.65zm-80.76 -13.22c66.93,-25.38 25.33,4.61 67.89,-56.09 -94.5,-23.86 -102.12,20.34 -206.89,-27.01 -57.1,-149.07 47.63,-278.6 119.39,-386.28l-87.96 -0.12c-68.34,131.78 -154.19,221.45 -97.33,385.29 53.43,81.48 109.31,83.24 204.91,84.21zm-107.57 -469.5l87.96 0.12 31.72 -30.36c-14.09,-43.26 24.11,-35.77 -32.22,-32.84l-27.26 -0.5c-70.74,56.58 -33.21,0.74 -60.2,63.57zm-7 -273.96l116.26 75.85 60.59 55.17c-31.33,62.21 -25.42,40.23 -82.4,79.87 56.33,-2.93 18.13,-10.42 32.22,32.84 56.08,-28.43 58.91,-46.46 96.41,-67.27 71.71,-39.81 46.16,6.2 110.95,-47.18 -72.06,-79.94 -194.2,-65.21 -305.67,-199.3l-53.63 9.45 25.25 60.57zm-158 -38.77l132.75 -21.8 53.63 -9.45c-142.63,-124 -22.52,-256.65 74.98,-339.82 -108.32,8.66 -44.3,13.72 -58.27,-28.8 -142.67,71.22 -168.52,209.38 -109.26,356.74l-93.83 43.13zm203.1 -399.87c13.96,42.52 -50.06,37.46 58.27,28.8 111.44,-17.74 165.12,2.68 264.41,47.63l41.67 5.83 0 -39.51c-97.58,-85.7 -250.55,-103.51 -364.35,-42.74zm503.48 108.15l-139.13 -25.9 -41.67 -5.83 157.66 104.33 23.14 -72.6zm-105.12 -479.74l4.71 22.3 -26.72 99.14c73.15,156.12 161.8,60.4 78.28,286.49l-90.29 6.4 0 39.51 139.13 25.9 37.63 -107.33 -5.58 -93.04 61.74 -4c-80.76,-28.22 -164.56,-133.22 -130.62,-230.98 62.31,-82.06 146.67,-218.48 136.9,-332.13l47.77 4.34c-32.62,-39.14 -5.78,-23.54 -54.89,-44.95 -50.95,-22.25 -15.01,-8.19 -70.57,-13.19 51.25,112.11 -16.69,283.39 -127.49,341.53zm-1062.95 2862.11c87.06,38.22 144.49,60 162.32,156.39l223.04 23.64 6.62 -3.72 10.39 -31.13 -7.69 2.43c-144.41,-6.28 -323.9,-96.76 -317.92,-249.48 -65.56,-37.08 -10.17,-23.37 -91.5,-23.64 -12.45,90.09 -23.32,41.75 14.73,125.51zm-87.54 -203.07c34.35,68.06 -3.52,4.79 53.88,62.85l-40.48 218.35 67.5 -26.19 6.65 -51.94c-38.05,-83.76 -27.19,-35.42 -14.73,-125.51 81.33,0.28 25.94,-13.44 91.5,23.64l-18.06 -57.08 39.04 -53.92c-110.5,37.8 -73,41.22 -185.29,9.8zm-81.31 502.86l-59.23 -24.88c-75.36,3.94 -71.02,2.83 -129.11,-39.12 -50.75,-44.75 -26.17,-23.42 -40.6,-98.47 -17.31,-90.02 12.48,-59.78 -52.17,-102.32 -2.83,102.69 -23.69,184.52 65.31,249.16 55.74,40.48 172.27,72.63 215.8,15.63zm94.7 -221.65c-24.6,121.94 -28.62,146.5 -153.93,196.78l59.23 24.88 27.19 4.66 73.84 -64.04c29.96,-43.78 52.17,-22.7 52.69,-113.85l8.48 -74.61 -67.5 26.19zm-462.75 -63.18l86.94 20.04c64.64,42.54 34.85,12.3 52.17,102.32 14.43,75.06 -10.15,53.72 40.6,98.47 -37.45,-79.92 -23.51,-164.01 -28.08,-252.93l-174.32 -32.42 -22.13 15.95 44.82 48.57zm0 0l-44.82 -48.57 22.13 -15.95c-67.39,-1.86 -118.89,-52.71 -117.82,-129.48 1.14,-81.33 59.9,-127.05 99.94,-184.27l-55.26 17.39 -51.3 -43.48 1.98 64.44c-149.45,133.72 -15.18,295.82 145.15,339.92zm963.88 -540.19l-96.22 -33.81 -2.35 -75.31 -64.44 74.76c58.24,34.63 80.81,25.18 163.02,34.35zm192.48 147.46l33.69 29.74 5.33 133.05 -1.76 59.13c104.38,-45.15 101.45,-236.46 -10.17,-278.88l23.29 61.61 -50.38 -4.66zm-224.78 525.38l7.69 -2.43 -10.39 31.13c137.72,-42.99 132.61,-125.04 139.2,-256.35 59.93,-24.38 92.99,-25.15 125.54,-75.8l1.76 -59.13c-76.44,32.72 -96.24,48.99 -193.05,67.91 -12.45,74.66 14.78,64.94 0.52,148.63 -13.49,79.18 -39.76,77.71 -71.26,146.05zm-917.12 -804.04l26.42 4.71 46.86 -5.33c-42.42,-117.62 -30.76,-188.59 35.87,-282.52 -133.89,8.7 -48.62,12.25 -64.02,-34.83 -86.96,86.34 -55.54,209.92 -45.12,317.97zm45.12 -317.97c15.4,47.08 -69.87,43.53 64.02,34.83 179.98,-83.59 216.35,87.19 362.72,110.8 32.52,-46.04 191.29,-300.21 311.07,-144.73 75.41,97.88 23.46,356.31 -68.26,431.47l19.54 73.57c154.66,-16.67 275.01,17.02 407.69,90.69l50.38 4.66 -23.29 -61.61c-46.93,-60.82 -147.09,-71.48 -219.57,-90.51 -82.2,-9.18 -104.77,0.28 -163.02,-34.35l64.44 -74.76c34.72,-125.81 71.44,-329.45 -51.15,-419.09 -170.63,-124.79 -259.03,57.77 -345.35,123.1 -148.93,-36.69 -198.96,-194 -409.22,-44.05zm-830.63 -717.47l77.49 3.94c86.74,-0.54 147.66,-13.87 215.97,-68.76 -4.42,-47.6 10.22,-39.09 -29.47,-40.06 -250.78,167.75 -389.53,-63.63 -533.32,-56.13l3.85 74.59 265.48 86.42zm-107.15 -643.16l-18.48 42.29c-39.11,69.06 -120.87,57.55 -190.45,39.46l-43.8 11.39c70.69,51.99 33.33,8.66 107.38,42.24l28.77 0.55 77.81 -4.17c207.24,-88.56 5.56,-320.72 471.7,-264.22l48.3 -2.68 -23.64 -46.16 -228.2 -26.44c-62.11,60.4 -91.45,37.08 -141.06,77.76 -58.19,47.72 -17.48,67.15 -88.33,129.98zm318.46 182.11c14.48,69.6 -25.45,18.58 44.08,61.04l80.24 -82.65 -0.4 3.22 21.76 -79.57 -145.68 97.95zm114.47 -314.57l64.05 83.07 -32.84 133.55 -21.76 79.57c154.33,-52.78 173.81,-267.37 15.21,-345.03l23.64 46.16 -48.3 2.68zm-61.79 670.74c39.69,0.97 25.05,-7.54 29.47,40.06 172.64,-92.92 28.08,-276.13 42.17,-417.83l-80.24 82.65c-69.53,-42.46 -29.59,8.56 -44.08,-61.04 39.04,163.49 141.24,138.14 52.69,356.17zm-849.18 -728.31c71.31,21.43 90.69,29.84 144.69,65.26 -9.85,-90.06 -16.15,-66.43 21.78,-139.18l-99.79 20.04 23.67 -38.5 -90.34 92.37zm204.24 -155.13l-5.21 67.52c118.07,-49.59 20.96,-49.49 108.59,-84.71l-32.35 -43.26 -85.9 -14.59 14.86 75.04zm-113.9 62.76l-23.67 38.5 99.79 -20.04 32.57 -13.69 5.21 -67.52 -113.9 62.76zm-52.44 -902.83c100.85,-26.56 158.37,-37.08 247.07,24.43l-3.67 103.06 16.62 40.08c80.76,-29.84 57.92,-85.57 49.46,-165.12l-70.02 -58.56 -134.56 -26.3c-69.53,27.98 -59.83,17.61 -104.9,82.4zm-378.02 450.18c148.38,54.12 116.28,102.37 308.07,36.59l34.08 -23.74c44.18,-71.11 20.14,-16.89 10.07,-69.08 -101.25,55.39 -241.87,137.39 -310.43,-14.33l-61.79 22.84 19.99 47.72zm356.91 -154.38c25.5,61.69 11.63,13.22 -4.69,98.15 10.07,52.19 34.11,-2.03 -10.07,69.08 121.27,-51.35 59.68,-68.26 98.77,-174.13l-84.01 6.9zm0 0l84.01 -6.9c67.3,-34.18 162,-54.25 197.12,-121.32l-16.62 -40.08c-47.87,34.18 -64.81,55.83 -122.14,80.19 -86.89,36.96 -125.76,10 -142.38,88.11zm2048.85 -161.48l-34.13 31.15 234.18 37.16 -87.24 52.69c-69.95,32.69 -99.34,59.98 -174.06,68.21 -47.05,48.2 -51.87,26.96 -138.88,36.89 -47.95,6.75 -131.04,42.46 -168.65,-0.82 -96.54,4.27 -136.23,42 -209.52,-5.68 -96.02,-1.71 -263.35,-38.77 -337.17,-98.92l80.47 -31.7c44.62,-40.83 29.52,-13.57 86.54,-22.62 40.01,-6.35 24.83,-2.48 63.6,-12.03 6.25,-1.54 16.1,0.84 20.64,-7.79 4.54,-8.68 13.94,-5.16 20.36,-8.83 -58.83,-53.16 -20.14,-35.94 -107.3,-46.39l-141.06 42.69 -83.12 60.3 5.31 0.15 -33.51 44.33 51.15 43.04 267.76 94.04 167.93 7.24 265.98 2.16 63.65 6.25c61.56,-41.65 182.02,-50.72 265.56,-91.23l142.48 -72.78c52.79,-77.44 47.4,-19.54 78.46,-91.33 -58.91,-38.15 -28.18,-3.89 -78.63,-54.32l-125.33 -2.38 -34.53 -0.1 -60.92 20.64z"/>
 </g>
</svg>
